G04 #@! TF.GenerationSoftware,KiCad,Pcbnew,(5.0.2-5)-5*
G04 #@! TF.CreationDate,2019-10-01T20:51:56+03:00*
G04 #@! TF.ProjectId,nav_panel,6e61765f-7061-46e6-956c-2e6b69636164,rev?*
G04 #@! TF.SameCoordinates,Original*
G04 #@! TF.FileFunction,Legend,Top*
G04 #@! TF.FilePolarity,Positive*
%FSLAX46Y46*%
G04 Gerber Fmt 4.6, Leading zero omitted, Abs format (unit mm)*
G04 Created by KiCad (PCBNEW (5.0.2-5)-5) date 2019 October 01, Tuesday 20:51:56*
%MOMM*%
%LPD*%
G01*
G04 APERTURE LIST*
%ADD10C,0.300000*%
%ADD11C,0.120000*%
%ADD12C,0.150000*%
G04 APERTURE END LIST*
D10*
X162306190Y-95789714D02*
X162306190Y-94646857D01*
X164401428Y-94646857D01*
X164401428Y-94265904D01*
X165353809Y-95218285D01*
X164401428Y-96170666D01*
X164401428Y-95789714D01*
X162306190Y-95789714D01*
X135254809Y-94583285D02*
X135254809Y-95726142D01*
X133159571Y-95726142D01*
X133159571Y-96107095D01*
X132207190Y-95154714D01*
X133159571Y-94202333D01*
X133159571Y-94583285D01*
X135254809Y-94583285D01*
D11*
X129338523Y-93834000D02*
X129262333Y-93795904D01*
X129148047Y-93795904D01*
X129033761Y-93834000D01*
X128957571Y-93910190D01*
X128919476Y-93986380D01*
X128881380Y-94138761D01*
X128881380Y-94253047D01*
X128919476Y-94405428D01*
X128957571Y-94481619D01*
X129033761Y-94557809D01*
X129148047Y-94595904D01*
X129224238Y-94595904D01*
X129338523Y-94557809D01*
X129376619Y-94519714D01*
X129376619Y-94253047D01*
X129224238Y-94253047D01*
X129719476Y-94595904D02*
X129719476Y-93795904D01*
X130176619Y-94595904D01*
X130176619Y-93795904D01*
X130557571Y-94595904D02*
X130557571Y-93795904D01*
X130748047Y-93795904D01*
X130862333Y-93834000D01*
X130938523Y-93910190D01*
X130976619Y-93986380D01*
X131014714Y-94138761D01*
X131014714Y-94253047D01*
X130976619Y-94405428D01*
X130938523Y-94481619D01*
X130862333Y-94557809D01*
X130748047Y-94595904D01*
X130557571Y-94595904D01*
X166330380Y-94291142D02*
X166939904Y-94291142D01*
X166635142Y-94595904D02*
X166635142Y-93986380D01*
X167701809Y-93795904D02*
X167320857Y-93795904D01*
X167282761Y-94176857D01*
X167320857Y-94138761D01*
X167397047Y-94100666D01*
X167587523Y-94100666D01*
X167663714Y-94138761D01*
X167701809Y-94176857D01*
X167739904Y-94253047D01*
X167739904Y-94443523D01*
X167701809Y-94519714D01*
X167663714Y-94557809D01*
X167587523Y-94595904D01*
X167397047Y-94595904D01*
X167320857Y-94557809D01*
X167282761Y-94519714D01*
X167968476Y-93795904D02*
X168235142Y-94595904D01*
X168501809Y-93795904D01*
G04 #@! TO.C,D1*
X151580000Y-81280462D02*
G75*
G03X146030000Y-79735170I-2990000J462D01*
G01*
X151580000Y-81279538D02*
G75*
G02X146030000Y-82824830I-2990000J-462D01*
G01*
X151090000Y-81280000D02*
G75*
G03X151090000Y-81280000I-2500000J0D01*
G01*
X146030000Y-79735000D02*
X146030000Y-82825000D01*
G04 #@! TO.C,RE1*
X148097000Y-92670000D02*
X149097000Y-92670000D01*
X148597000Y-92170000D02*
X148597000Y-93170000D01*
X155297000Y-96370000D02*
X155297000Y-98970000D01*
X155297000Y-91370000D02*
X155297000Y-93970000D01*
X155297000Y-86370000D02*
X155297000Y-88970000D01*
X141397000Y-88570000D02*
X141097000Y-88870000D01*
X140797000Y-88570000D02*
X141397000Y-88570000D01*
X141097000Y-88870000D02*
X140797000Y-88570000D01*
X141897000Y-86370000D02*
X141897000Y-88870000D01*
X146697000Y-86370000D02*
X141897000Y-86370000D01*
X141897000Y-98970000D02*
X141897000Y-96170000D01*
X146797000Y-98970000D02*
X141897000Y-98970000D01*
X155297000Y-98970000D02*
X150397000Y-98970000D01*
X150397000Y-86370000D02*
X155297000Y-86370000D01*
X151597000Y-92670000D02*
G75*
G03X151597000Y-92670000I-3000000J0D01*
G01*
G04 #@! TO.C,SW1*
X137560000Y-90630000D02*
X137560000Y-89130000D01*
X136310000Y-86630000D02*
X131810000Y-86630000D01*
X130560000Y-89130000D02*
X130560000Y-90630000D01*
X131810000Y-93130000D02*
X136310000Y-93130000D01*
G04 #@! TO.C,SW2*
X161020000Y-93130000D02*
X165520000Y-93130000D01*
X159770000Y-89130000D02*
X159770000Y-90630000D01*
X165520000Y-86630000D02*
X161020000Y-86630000D01*
X166770000Y-90630000D02*
X166770000Y-89130000D01*
G04 #@! TO.C,D1*
D12*
X143914904Y-81732380D02*
X143914904Y-80732380D01*
X144153000Y-80732380D01*
X144295857Y-80780000D01*
X144391095Y-80875238D01*
X144438714Y-80970476D01*
X144486333Y-81160952D01*
X144486333Y-81303809D01*
X144438714Y-81494285D01*
X144391095Y-81589523D01*
X144295857Y-81684761D01*
X144153000Y-81732380D01*
X143914904Y-81732380D01*
X145438714Y-81732380D02*
X144867285Y-81732380D01*
X145153000Y-81732380D02*
X145153000Y-80732380D01*
X145057761Y-80875238D01*
X144962523Y-80970476D01*
X144867285Y-81018095D01*
G04 #@! TO.C,RE1*
X143277952Y-85922380D02*
X142944619Y-85446190D01*
X142706523Y-85922380D02*
X142706523Y-84922380D01*
X143087476Y-84922380D01*
X143182714Y-84970000D01*
X143230333Y-85017619D01*
X143277952Y-85112857D01*
X143277952Y-85255714D01*
X143230333Y-85350952D01*
X143182714Y-85398571D01*
X143087476Y-85446190D01*
X142706523Y-85446190D01*
X143706523Y-85398571D02*
X144039857Y-85398571D01*
X144182714Y-85922380D02*
X143706523Y-85922380D01*
X143706523Y-84922380D01*
X144182714Y-84922380D01*
X145135095Y-85922380D02*
X144563666Y-85922380D01*
X144849380Y-85922380D02*
X144849380Y-84922380D01*
X144754142Y-85065238D01*
X144658904Y-85160476D01*
X144563666Y-85208095D01*
G04 #@! TO.C,SW1*
X132726666Y-86034761D02*
X132869523Y-86082380D01*
X133107619Y-86082380D01*
X133202857Y-86034761D01*
X133250476Y-85987142D01*
X133298095Y-85891904D01*
X133298095Y-85796666D01*
X133250476Y-85701428D01*
X133202857Y-85653809D01*
X133107619Y-85606190D01*
X132917142Y-85558571D01*
X132821904Y-85510952D01*
X132774285Y-85463333D01*
X132726666Y-85368095D01*
X132726666Y-85272857D01*
X132774285Y-85177619D01*
X132821904Y-85130000D01*
X132917142Y-85082380D01*
X133155238Y-85082380D01*
X133298095Y-85130000D01*
X133631428Y-85082380D02*
X133869523Y-86082380D01*
X134060000Y-85368095D01*
X134250476Y-86082380D01*
X134488571Y-85082380D01*
X135393333Y-86082380D02*
X134821904Y-86082380D01*
X135107619Y-86082380D02*
X135107619Y-85082380D01*
X135012380Y-85225238D01*
X134917142Y-85320476D01*
X134821904Y-85368095D01*
G04 #@! TO.C,SW2*
X161936666Y-86034761D02*
X162079523Y-86082380D01*
X162317619Y-86082380D01*
X162412857Y-86034761D01*
X162460476Y-85987142D01*
X162508095Y-85891904D01*
X162508095Y-85796666D01*
X162460476Y-85701428D01*
X162412857Y-85653809D01*
X162317619Y-85606190D01*
X162127142Y-85558571D01*
X162031904Y-85510952D01*
X161984285Y-85463333D01*
X161936666Y-85368095D01*
X161936666Y-85272857D01*
X161984285Y-85177619D01*
X162031904Y-85130000D01*
X162127142Y-85082380D01*
X162365238Y-85082380D01*
X162508095Y-85130000D01*
X162841428Y-85082380D02*
X163079523Y-86082380D01*
X163270000Y-85368095D01*
X163460476Y-86082380D01*
X163698571Y-85082380D01*
X164031904Y-85177619D02*
X164079523Y-85130000D01*
X164174761Y-85082380D01*
X164412857Y-85082380D01*
X164508095Y-85130000D01*
X164555714Y-85177619D01*
X164603333Y-85272857D01*
X164603333Y-85368095D01*
X164555714Y-85510952D01*
X163984285Y-86082380D01*
X164603333Y-86082380D01*
G04 #@! TD*
M02*
