G04 #@! TF.GenerationSoftware,KiCad,Pcbnew,(5.0.2-5)-5*
G04 #@! TF.CreationDate,2019-10-01T20:51:56+03:00*
G04 #@! TF.ProjectId,nav_panel,6e61765f-7061-46e6-956c-2e6b69636164,rev?*
G04 #@! TF.SameCoordinates,Original*
G04 #@! TF.FileFunction,Soldermask,Top*
G04 #@! TF.FilePolarity,Negative*
%FSLAX46Y46*%
G04 Gerber Fmt 4.6, Leading zero omitted, Abs format (unit mm)*
G04 Created by KiCad (PCBNEW (5.0.2-5)-5) date 2019 October 01, Tuesday 20:51:56*
%MOMM*%
%LPD*%
G01*
G04 APERTURE LIST*
%ADD10C,0.100000*%
G04 APERTURE END LIST*
D10*
G36*
X150148000Y-99571000D02*
X147046000Y-99571000D01*
X147046000Y-96969000D01*
X150148000Y-96969000D01*
X150148000Y-99571000D01*
X150148000Y-99571000D01*
G37*
G36*
X155903565Y-94159389D02*
X156094834Y-94238615D01*
X156266976Y-94353637D01*
X156413363Y-94500024D01*
X156528385Y-94672166D01*
X156607611Y-94863435D01*
X156648000Y-95066484D01*
X156648000Y-95273516D01*
X156607611Y-95476565D01*
X156528385Y-95667834D01*
X156413363Y-95839976D01*
X156266976Y-95986363D01*
X156094834Y-96101385D01*
X155903565Y-96180611D01*
X155700516Y-96221000D01*
X155493484Y-96221000D01*
X155290435Y-96180611D01*
X155099166Y-96101385D01*
X154927024Y-95986363D01*
X154780637Y-95839976D01*
X154665615Y-95667834D01*
X154586389Y-95476565D01*
X154546000Y-95273516D01*
X154546000Y-95066484D01*
X154586389Y-94863435D01*
X154665615Y-94672166D01*
X154780637Y-94500024D01*
X154927024Y-94353637D01*
X155099166Y-94238615D01*
X155290435Y-94159389D01*
X155493484Y-94119000D01*
X155700516Y-94119000D01*
X155903565Y-94159389D01*
X155903565Y-94159389D01*
G37*
G36*
X141403565Y-94159389D02*
X141594834Y-94238615D01*
X141766976Y-94353637D01*
X141913363Y-94500024D01*
X142028385Y-94672166D01*
X142107611Y-94863435D01*
X142148000Y-95066484D01*
X142148000Y-95273516D01*
X142107611Y-95476565D01*
X142028385Y-95667834D01*
X141913363Y-95839976D01*
X141766976Y-95986363D01*
X141594834Y-96101385D01*
X141403565Y-96180611D01*
X141200516Y-96221000D01*
X140993484Y-96221000D01*
X140790435Y-96180611D01*
X140599166Y-96101385D01*
X140427024Y-95986363D01*
X140280637Y-95839976D01*
X140165615Y-95667834D01*
X140086389Y-95476565D01*
X140046000Y-95273516D01*
X140046000Y-95066484D01*
X140086389Y-94863435D01*
X140165615Y-94672166D01*
X140280637Y-94500024D01*
X140427024Y-94353637D01*
X140599166Y-94238615D01*
X140790435Y-94159389D01*
X140993484Y-94119000D01*
X141200516Y-94119000D01*
X141403565Y-94159389D01*
X141403565Y-94159389D01*
G37*
G36*
X170290443Y-93085519D02*
X170356627Y-93092037D01*
X170469853Y-93126384D01*
X170526467Y-93143557D01*
X170665087Y-93217652D01*
X170682991Y-93227222D01*
X170718729Y-93256552D01*
X170820186Y-93339814D01*
X170903448Y-93441271D01*
X170932778Y-93477009D01*
X170932779Y-93477011D01*
X171016443Y-93633533D01*
X171016443Y-93633534D01*
X171067963Y-93803373D01*
X171085359Y-93980000D01*
X171067963Y-94156627D01*
X171043092Y-94238615D01*
X171016443Y-94326467D01*
X171001921Y-94353635D01*
X170932778Y-94482991D01*
X170903448Y-94518729D01*
X170820186Y-94620186D01*
X170718729Y-94703448D01*
X170682991Y-94732778D01*
X170682989Y-94732779D01*
X170526467Y-94816443D01*
X170469853Y-94833616D01*
X170356627Y-94867963D01*
X170290443Y-94874481D01*
X170224260Y-94881000D01*
X170135740Y-94881000D01*
X170069557Y-94874481D01*
X170003373Y-94867963D01*
X169890147Y-94833616D01*
X169833533Y-94816443D01*
X169677011Y-94732779D01*
X169677009Y-94732778D01*
X169641271Y-94703448D01*
X169539814Y-94620186D01*
X169456552Y-94518729D01*
X169427222Y-94482991D01*
X169358079Y-94353635D01*
X169343557Y-94326467D01*
X169316908Y-94238615D01*
X169292037Y-94156627D01*
X169274641Y-93980000D01*
X169292037Y-93803373D01*
X169343557Y-93633534D01*
X169343557Y-93633533D01*
X169427221Y-93477011D01*
X169427222Y-93477009D01*
X169456552Y-93441271D01*
X169539814Y-93339814D01*
X169641271Y-93256552D01*
X169677009Y-93227222D01*
X169694913Y-93217652D01*
X169833533Y-93143557D01*
X169890147Y-93126384D01*
X170003373Y-93092037D01*
X170069557Y-93085519D01*
X170135740Y-93079000D01*
X170224260Y-93079000D01*
X170290443Y-93085519D01*
X170290443Y-93085519D01*
G37*
G36*
X127110443Y-93085519D02*
X127176627Y-93092037D01*
X127289853Y-93126384D01*
X127346467Y-93143557D01*
X127485087Y-93217652D01*
X127502991Y-93227222D01*
X127538729Y-93256552D01*
X127640186Y-93339814D01*
X127723448Y-93441271D01*
X127752778Y-93477009D01*
X127752779Y-93477011D01*
X127836443Y-93633533D01*
X127836443Y-93633534D01*
X127887963Y-93803373D01*
X127905359Y-93980000D01*
X127887963Y-94156627D01*
X127863092Y-94238615D01*
X127836443Y-94326467D01*
X127821921Y-94353635D01*
X127752778Y-94482991D01*
X127723448Y-94518729D01*
X127640186Y-94620186D01*
X127538729Y-94703448D01*
X127502991Y-94732778D01*
X127502989Y-94732779D01*
X127346467Y-94816443D01*
X127289853Y-94833616D01*
X127176627Y-94867963D01*
X127110443Y-94874481D01*
X127044260Y-94881000D01*
X126955740Y-94881000D01*
X126889557Y-94874481D01*
X126823373Y-94867963D01*
X126710147Y-94833616D01*
X126653533Y-94816443D01*
X126497011Y-94732779D01*
X126497009Y-94732778D01*
X126461271Y-94703448D01*
X126359814Y-94620186D01*
X126276552Y-94518729D01*
X126247222Y-94482991D01*
X126178079Y-94353635D01*
X126163557Y-94326467D01*
X126136908Y-94238615D01*
X126112037Y-94156627D01*
X126094641Y-93980000D01*
X126112037Y-93803373D01*
X126163557Y-93633534D01*
X126163557Y-93633533D01*
X126247221Y-93477011D01*
X126247222Y-93477009D01*
X126276552Y-93441271D01*
X126359814Y-93339814D01*
X126461271Y-93256552D01*
X126497009Y-93227222D01*
X126514913Y-93217652D01*
X126653533Y-93143557D01*
X126710147Y-93126384D01*
X126823373Y-93092037D01*
X126889557Y-93085519D01*
X126955740Y-93079000D01*
X127044260Y-93079000D01*
X127110443Y-93085519D01*
X127110443Y-93085519D01*
G37*
G36*
X141403565Y-91659389D02*
X141594834Y-91738615D01*
X141766976Y-91853637D01*
X141913363Y-92000024D01*
X142028385Y-92172166D01*
X142107611Y-92363435D01*
X142148000Y-92566484D01*
X142148000Y-92773516D01*
X142107611Y-92976565D01*
X142028385Y-93167834D01*
X141913363Y-93339976D01*
X141766976Y-93486363D01*
X141594834Y-93601385D01*
X141403565Y-93680611D01*
X141200516Y-93721000D01*
X140993484Y-93721000D01*
X140790435Y-93680611D01*
X140599166Y-93601385D01*
X140427024Y-93486363D01*
X140280637Y-93339976D01*
X140165615Y-93167834D01*
X140086389Y-92976565D01*
X140046000Y-92773516D01*
X140046000Y-92566484D01*
X140086389Y-92363435D01*
X140165615Y-92172166D01*
X140280637Y-92000024D01*
X140427024Y-91853637D01*
X140599166Y-91738615D01*
X140790435Y-91659389D01*
X140993484Y-91619000D01*
X141200516Y-91619000D01*
X141403565Y-91659389D01*
X141403565Y-91659389D01*
G37*
G36*
X166826565Y-91119389D02*
X167017834Y-91198615D01*
X167189976Y-91313637D01*
X167336363Y-91460024D01*
X167451385Y-91632166D01*
X167530611Y-91823435D01*
X167571000Y-92026484D01*
X167571000Y-92233516D01*
X167530611Y-92436565D01*
X167451385Y-92627834D01*
X167336363Y-92799976D01*
X167189976Y-92946363D01*
X167017834Y-93061385D01*
X166826565Y-93140611D01*
X166623516Y-93181000D01*
X166416484Y-93181000D01*
X166213435Y-93140611D01*
X166022166Y-93061385D01*
X165850024Y-92946363D01*
X165703637Y-92799976D01*
X165588615Y-92627834D01*
X165509389Y-92436565D01*
X165469000Y-92233516D01*
X165469000Y-92026484D01*
X165509389Y-91823435D01*
X165588615Y-91632166D01*
X165703637Y-91460024D01*
X165850024Y-91313637D01*
X166022166Y-91198615D01*
X166213435Y-91119389D01*
X166416484Y-91079000D01*
X166623516Y-91079000D01*
X166826565Y-91119389D01*
X166826565Y-91119389D01*
G37*
G36*
X160326565Y-91119389D02*
X160517834Y-91198615D01*
X160689976Y-91313637D01*
X160836363Y-91460024D01*
X160951385Y-91632166D01*
X161030611Y-91823435D01*
X161071000Y-92026484D01*
X161071000Y-92233516D01*
X161030611Y-92436565D01*
X160951385Y-92627834D01*
X160836363Y-92799976D01*
X160689976Y-92946363D01*
X160517834Y-93061385D01*
X160326565Y-93140611D01*
X160123516Y-93181000D01*
X159916484Y-93181000D01*
X159713435Y-93140611D01*
X159522166Y-93061385D01*
X159350024Y-92946363D01*
X159203637Y-92799976D01*
X159088615Y-92627834D01*
X159009389Y-92436565D01*
X158969000Y-92233516D01*
X158969000Y-92026484D01*
X159009389Y-91823435D01*
X159088615Y-91632166D01*
X159203637Y-91460024D01*
X159350024Y-91313637D01*
X159522166Y-91198615D01*
X159713435Y-91119389D01*
X159916484Y-91079000D01*
X160123516Y-91079000D01*
X160326565Y-91119389D01*
X160326565Y-91119389D01*
G37*
G36*
X137616565Y-91119389D02*
X137807834Y-91198615D01*
X137979976Y-91313637D01*
X138126363Y-91460024D01*
X138241385Y-91632166D01*
X138320611Y-91823435D01*
X138361000Y-92026484D01*
X138361000Y-92233516D01*
X138320611Y-92436565D01*
X138241385Y-92627834D01*
X138126363Y-92799976D01*
X137979976Y-92946363D01*
X137807834Y-93061385D01*
X137616565Y-93140611D01*
X137413516Y-93181000D01*
X137206484Y-93181000D01*
X137003435Y-93140611D01*
X136812166Y-93061385D01*
X136640024Y-92946363D01*
X136493637Y-92799976D01*
X136378615Y-92627834D01*
X136299389Y-92436565D01*
X136259000Y-92233516D01*
X136259000Y-92026484D01*
X136299389Y-91823435D01*
X136378615Y-91632166D01*
X136493637Y-91460024D01*
X136640024Y-91313637D01*
X136812166Y-91198615D01*
X137003435Y-91119389D01*
X137206484Y-91079000D01*
X137413516Y-91079000D01*
X137616565Y-91119389D01*
X137616565Y-91119389D01*
G37*
G36*
X131116565Y-91119389D02*
X131307834Y-91198615D01*
X131479976Y-91313637D01*
X131626363Y-91460024D01*
X131741385Y-91632166D01*
X131820611Y-91823435D01*
X131861000Y-92026484D01*
X131861000Y-92233516D01*
X131820611Y-92436565D01*
X131741385Y-92627834D01*
X131626363Y-92799976D01*
X131479976Y-92946363D01*
X131307834Y-93061385D01*
X131116565Y-93140611D01*
X130913516Y-93181000D01*
X130706484Y-93181000D01*
X130503435Y-93140611D01*
X130312166Y-93061385D01*
X130140024Y-92946363D01*
X129993637Y-92799976D01*
X129878615Y-92627834D01*
X129799389Y-92436565D01*
X129759000Y-92233516D01*
X129759000Y-92026484D01*
X129799389Y-91823435D01*
X129878615Y-91632166D01*
X129993637Y-91460024D01*
X130140024Y-91313637D01*
X130312166Y-91198615D01*
X130503435Y-91119389D01*
X130706484Y-91079000D01*
X130913516Y-91079000D01*
X131116565Y-91119389D01*
X131116565Y-91119389D01*
G37*
G36*
X170290443Y-90545519D02*
X170356627Y-90552037D01*
X170469853Y-90586384D01*
X170526467Y-90603557D01*
X170646719Y-90667834D01*
X170682991Y-90687222D01*
X170718729Y-90716552D01*
X170820186Y-90799814D01*
X170903448Y-90901271D01*
X170932778Y-90937009D01*
X170932779Y-90937011D01*
X171016443Y-91093533D01*
X171018825Y-91101385D01*
X171067963Y-91263373D01*
X171085359Y-91440000D01*
X171067963Y-91616627D01*
X171063249Y-91632166D01*
X171016443Y-91786467D01*
X170996683Y-91823435D01*
X170932778Y-91942991D01*
X170903448Y-91978729D01*
X170820186Y-92080186D01*
X170718729Y-92163448D01*
X170682991Y-92192778D01*
X170682989Y-92192779D01*
X170526467Y-92276443D01*
X170469853Y-92293616D01*
X170356627Y-92327963D01*
X170290443Y-92334481D01*
X170224260Y-92341000D01*
X170135740Y-92341000D01*
X170069557Y-92334481D01*
X170003373Y-92327963D01*
X169890147Y-92293616D01*
X169833533Y-92276443D01*
X169677011Y-92192779D01*
X169677009Y-92192778D01*
X169641271Y-92163448D01*
X169539814Y-92080186D01*
X169456552Y-91978729D01*
X169427222Y-91942991D01*
X169363317Y-91823435D01*
X169343557Y-91786467D01*
X169296751Y-91632166D01*
X169292037Y-91616627D01*
X169274641Y-91440000D01*
X169292037Y-91263373D01*
X169341175Y-91101385D01*
X169343557Y-91093533D01*
X169427221Y-90937011D01*
X169427222Y-90937009D01*
X169456552Y-90901271D01*
X169539814Y-90799814D01*
X169641271Y-90716552D01*
X169677009Y-90687222D01*
X169713281Y-90667834D01*
X169833533Y-90603557D01*
X169890147Y-90586384D01*
X170003373Y-90552037D01*
X170069558Y-90545518D01*
X170135740Y-90539000D01*
X170224260Y-90539000D01*
X170290443Y-90545519D01*
X170290443Y-90545519D01*
G37*
G36*
X127110443Y-90545519D02*
X127176627Y-90552037D01*
X127289853Y-90586384D01*
X127346467Y-90603557D01*
X127466719Y-90667834D01*
X127502991Y-90687222D01*
X127538729Y-90716552D01*
X127640186Y-90799814D01*
X127723448Y-90901271D01*
X127752778Y-90937009D01*
X127752779Y-90937011D01*
X127836443Y-91093533D01*
X127838825Y-91101385D01*
X127887963Y-91263373D01*
X127905359Y-91440000D01*
X127887963Y-91616627D01*
X127883249Y-91632166D01*
X127836443Y-91786467D01*
X127816683Y-91823435D01*
X127752778Y-91942991D01*
X127723448Y-91978729D01*
X127640186Y-92080186D01*
X127538729Y-92163448D01*
X127502991Y-92192778D01*
X127502989Y-92192779D01*
X127346467Y-92276443D01*
X127289853Y-92293616D01*
X127176627Y-92327963D01*
X127110443Y-92334481D01*
X127044260Y-92341000D01*
X126955740Y-92341000D01*
X126889557Y-92334481D01*
X126823373Y-92327963D01*
X126710147Y-92293616D01*
X126653533Y-92276443D01*
X126497011Y-92192779D01*
X126497009Y-92192778D01*
X126461271Y-92163448D01*
X126359814Y-92080186D01*
X126276552Y-91978729D01*
X126247222Y-91942991D01*
X126183317Y-91823435D01*
X126163557Y-91786467D01*
X126116751Y-91632166D01*
X126112037Y-91616627D01*
X126094641Y-91440000D01*
X126112037Y-91263373D01*
X126161175Y-91101385D01*
X126163557Y-91093533D01*
X126247221Y-90937011D01*
X126247222Y-90937009D01*
X126276552Y-90901271D01*
X126359814Y-90799814D01*
X126461271Y-90716552D01*
X126497009Y-90687222D01*
X126533281Y-90667834D01*
X126653533Y-90603557D01*
X126710147Y-90586384D01*
X126823373Y-90552037D01*
X126889557Y-90545519D01*
X126955740Y-90539000D01*
X127044260Y-90539000D01*
X127110443Y-90545519D01*
X127110443Y-90545519D01*
G37*
G36*
X155903565Y-89159389D02*
X156094834Y-89238615D01*
X156266976Y-89353637D01*
X156413363Y-89500024D01*
X156528385Y-89672166D01*
X156607611Y-89863435D01*
X156648000Y-90066484D01*
X156648000Y-90273516D01*
X156607611Y-90476565D01*
X156528385Y-90667834D01*
X156413363Y-90839976D01*
X156266976Y-90986363D01*
X156094834Y-91101385D01*
X155903565Y-91180611D01*
X155700516Y-91221000D01*
X155493484Y-91221000D01*
X155290435Y-91180611D01*
X155099166Y-91101385D01*
X154927024Y-90986363D01*
X154780637Y-90839976D01*
X154665615Y-90667834D01*
X154586389Y-90476565D01*
X154546000Y-90273516D01*
X154546000Y-90066484D01*
X154586389Y-89863435D01*
X154665615Y-89672166D01*
X154780637Y-89500024D01*
X154927024Y-89353637D01*
X155099166Y-89238615D01*
X155290435Y-89159389D01*
X155493484Y-89119000D01*
X155700516Y-89119000D01*
X155903565Y-89159389D01*
X155903565Y-89159389D01*
G37*
G36*
X142148000Y-91221000D02*
X140046000Y-91221000D01*
X140046000Y-89119000D01*
X142148000Y-89119000D01*
X142148000Y-91221000D01*
X142148000Y-91221000D01*
G37*
G36*
X127110443Y-88005519D02*
X127176627Y-88012037D01*
X127289853Y-88046384D01*
X127346467Y-88063557D01*
X127466719Y-88127834D01*
X127502991Y-88147222D01*
X127538729Y-88176552D01*
X127640186Y-88259814D01*
X127723448Y-88361271D01*
X127752778Y-88397009D01*
X127752779Y-88397011D01*
X127836443Y-88553533D01*
X127838825Y-88561385D01*
X127887963Y-88723373D01*
X127905359Y-88900000D01*
X127887963Y-89076627D01*
X127875109Y-89119000D01*
X127836443Y-89246467D01*
X127762348Y-89385087D01*
X127752778Y-89402991D01*
X127723448Y-89438729D01*
X127640186Y-89540186D01*
X127538729Y-89623448D01*
X127502991Y-89652778D01*
X127502989Y-89652779D01*
X127346467Y-89736443D01*
X127289853Y-89753616D01*
X127176627Y-89787963D01*
X127110443Y-89794481D01*
X127044260Y-89801000D01*
X126955740Y-89801000D01*
X126889557Y-89794481D01*
X126823373Y-89787963D01*
X126710147Y-89753616D01*
X126653533Y-89736443D01*
X126497011Y-89652779D01*
X126497009Y-89652778D01*
X126461271Y-89623448D01*
X126359814Y-89540186D01*
X126276552Y-89438729D01*
X126247222Y-89402991D01*
X126237652Y-89385087D01*
X126163557Y-89246467D01*
X126124891Y-89119000D01*
X126112037Y-89076627D01*
X126094641Y-88900000D01*
X126112037Y-88723373D01*
X126161175Y-88561385D01*
X126163557Y-88553533D01*
X126247221Y-88397011D01*
X126247222Y-88397009D01*
X126276552Y-88361271D01*
X126359814Y-88259814D01*
X126461271Y-88176552D01*
X126497009Y-88147222D01*
X126533281Y-88127834D01*
X126653533Y-88063557D01*
X126710147Y-88046384D01*
X126823373Y-88012037D01*
X126889557Y-88005519D01*
X126955740Y-87999000D01*
X127044260Y-87999000D01*
X127110443Y-88005519D01*
X127110443Y-88005519D01*
G37*
G36*
X170290443Y-88005519D02*
X170356627Y-88012037D01*
X170469853Y-88046384D01*
X170526467Y-88063557D01*
X170646719Y-88127834D01*
X170682991Y-88147222D01*
X170718729Y-88176552D01*
X170820186Y-88259814D01*
X170903448Y-88361271D01*
X170932778Y-88397009D01*
X170932779Y-88397011D01*
X171016443Y-88553533D01*
X171018825Y-88561385D01*
X171067963Y-88723373D01*
X171085359Y-88900000D01*
X171067963Y-89076627D01*
X171055109Y-89119000D01*
X171016443Y-89246467D01*
X170942348Y-89385087D01*
X170932778Y-89402991D01*
X170903448Y-89438729D01*
X170820186Y-89540186D01*
X170718729Y-89623448D01*
X170682991Y-89652778D01*
X170682989Y-89652779D01*
X170526467Y-89736443D01*
X170469853Y-89753616D01*
X170356627Y-89787963D01*
X170290443Y-89794481D01*
X170224260Y-89801000D01*
X170135740Y-89801000D01*
X170069557Y-89794481D01*
X170003373Y-89787963D01*
X169890147Y-89753616D01*
X169833533Y-89736443D01*
X169677011Y-89652779D01*
X169677009Y-89652778D01*
X169641271Y-89623448D01*
X169539814Y-89540186D01*
X169456552Y-89438729D01*
X169427222Y-89402991D01*
X169417652Y-89385087D01*
X169343557Y-89246467D01*
X169304891Y-89119000D01*
X169292037Y-89076627D01*
X169274641Y-88900000D01*
X169292037Y-88723373D01*
X169341175Y-88561385D01*
X169343557Y-88553533D01*
X169427221Y-88397011D01*
X169427222Y-88397009D01*
X169456552Y-88361271D01*
X169539814Y-88259814D01*
X169641271Y-88176552D01*
X169677009Y-88147222D01*
X169713281Y-88127834D01*
X169833533Y-88063557D01*
X169890147Y-88046384D01*
X170003373Y-88012037D01*
X170069557Y-88005519D01*
X170135740Y-87999000D01*
X170224260Y-87999000D01*
X170290443Y-88005519D01*
X170290443Y-88005519D01*
G37*
G36*
X131116565Y-86619389D02*
X131307834Y-86698615D01*
X131479976Y-86813637D01*
X131626363Y-86960024D01*
X131741385Y-87132166D01*
X131820611Y-87323435D01*
X131861000Y-87526484D01*
X131861000Y-87733516D01*
X131820611Y-87936565D01*
X131741385Y-88127834D01*
X131626363Y-88299976D01*
X131479976Y-88446363D01*
X131307834Y-88561385D01*
X131116565Y-88640611D01*
X130913516Y-88681000D01*
X130706484Y-88681000D01*
X130503435Y-88640611D01*
X130312166Y-88561385D01*
X130140024Y-88446363D01*
X129993637Y-88299976D01*
X129878615Y-88127834D01*
X129799389Y-87936565D01*
X129759000Y-87733516D01*
X129759000Y-87526484D01*
X129799389Y-87323435D01*
X129878615Y-87132166D01*
X129993637Y-86960024D01*
X130140024Y-86813637D01*
X130312166Y-86698615D01*
X130503435Y-86619389D01*
X130706484Y-86579000D01*
X130913516Y-86579000D01*
X131116565Y-86619389D01*
X131116565Y-86619389D01*
G37*
G36*
X137616565Y-86619389D02*
X137807834Y-86698615D01*
X137979976Y-86813637D01*
X138126363Y-86960024D01*
X138241385Y-87132166D01*
X138320611Y-87323435D01*
X138361000Y-87526484D01*
X138361000Y-87733516D01*
X138320611Y-87936565D01*
X138241385Y-88127834D01*
X138126363Y-88299976D01*
X137979976Y-88446363D01*
X137807834Y-88561385D01*
X137616565Y-88640611D01*
X137413516Y-88681000D01*
X137206484Y-88681000D01*
X137003435Y-88640611D01*
X136812166Y-88561385D01*
X136640024Y-88446363D01*
X136493637Y-88299976D01*
X136378615Y-88127834D01*
X136299389Y-87936565D01*
X136259000Y-87733516D01*
X136259000Y-87526484D01*
X136299389Y-87323435D01*
X136378615Y-87132166D01*
X136493637Y-86960024D01*
X136640024Y-86813637D01*
X136812166Y-86698615D01*
X137003435Y-86619389D01*
X137206484Y-86579000D01*
X137413516Y-86579000D01*
X137616565Y-86619389D01*
X137616565Y-86619389D01*
G37*
G36*
X160326565Y-86619389D02*
X160517834Y-86698615D01*
X160689976Y-86813637D01*
X160836363Y-86960024D01*
X160951385Y-87132166D01*
X161030611Y-87323435D01*
X161071000Y-87526484D01*
X161071000Y-87733516D01*
X161030611Y-87936565D01*
X160951385Y-88127834D01*
X160836363Y-88299976D01*
X160689976Y-88446363D01*
X160517834Y-88561385D01*
X160326565Y-88640611D01*
X160123516Y-88681000D01*
X159916484Y-88681000D01*
X159713435Y-88640611D01*
X159522166Y-88561385D01*
X159350024Y-88446363D01*
X159203637Y-88299976D01*
X159088615Y-88127834D01*
X159009389Y-87936565D01*
X158969000Y-87733516D01*
X158969000Y-87526484D01*
X159009389Y-87323435D01*
X159088615Y-87132166D01*
X159203637Y-86960024D01*
X159350024Y-86813637D01*
X159522166Y-86698615D01*
X159713435Y-86619389D01*
X159916484Y-86579000D01*
X160123516Y-86579000D01*
X160326565Y-86619389D01*
X160326565Y-86619389D01*
G37*
G36*
X166826565Y-86619389D02*
X167017834Y-86698615D01*
X167189976Y-86813637D01*
X167336363Y-86960024D01*
X167451385Y-87132166D01*
X167530611Y-87323435D01*
X167571000Y-87526484D01*
X167571000Y-87733516D01*
X167530611Y-87936565D01*
X167451385Y-88127834D01*
X167336363Y-88299976D01*
X167189976Y-88446363D01*
X167017834Y-88561385D01*
X166826565Y-88640611D01*
X166623516Y-88681000D01*
X166416484Y-88681000D01*
X166213435Y-88640611D01*
X166022166Y-88561385D01*
X165850024Y-88446363D01*
X165703637Y-88299976D01*
X165588615Y-88127834D01*
X165509389Y-87936565D01*
X165469000Y-87733516D01*
X165469000Y-87526484D01*
X165509389Y-87323435D01*
X165588615Y-87132166D01*
X165703637Y-86960024D01*
X165850024Y-86813637D01*
X166022166Y-86698615D01*
X166213435Y-86619389D01*
X166416484Y-86579000D01*
X166623516Y-86579000D01*
X166826565Y-86619389D01*
X166826565Y-86619389D01*
G37*
G36*
X150148000Y-88371000D02*
X147046000Y-88371000D01*
X147046000Y-85769000D01*
X150148000Y-85769000D01*
X150148000Y-88371000D01*
X150148000Y-88371000D01*
G37*
G36*
X127901000Y-87261000D02*
X126099000Y-87261000D01*
X126099000Y-85459000D01*
X127901000Y-85459000D01*
X127901000Y-87261000D01*
X127901000Y-87261000D01*
G37*
G36*
X171081000Y-87261000D02*
X169279000Y-87261000D01*
X169279000Y-85459000D01*
X171081000Y-85459000D01*
X171081000Y-87261000D01*
X171081000Y-87261000D01*
G37*
G36*
X150137396Y-80365546D02*
X150310466Y-80437234D01*
X150466230Y-80541312D01*
X150598688Y-80673770D01*
X150702766Y-80829534D01*
X150774454Y-81002604D01*
X150811000Y-81186333D01*
X150811000Y-81373667D01*
X150774454Y-81557396D01*
X150702766Y-81730466D01*
X150598688Y-81886230D01*
X150466230Y-82018688D01*
X150310466Y-82122766D01*
X150137396Y-82194454D01*
X149953667Y-82231000D01*
X149766333Y-82231000D01*
X149582604Y-82194454D01*
X149409534Y-82122766D01*
X149253770Y-82018688D01*
X149121312Y-81886230D01*
X149017234Y-81730466D01*
X148945546Y-81557396D01*
X148909000Y-81373667D01*
X148909000Y-81186333D01*
X148945546Y-81002604D01*
X149017234Y-80829534D01*
X149121312Y-80673770D01*
X149253770Y-80541312D01*
X149409534Y-80437234D01*
X149582604Y-80365546D01*
X149766333Y-80329000D01*
X149953667Y-80329000D01*
X150137396Y-80365546D01*
X150137396Y-80365546D01*
G37*
G36*
X148271000Y-82231000D02*
X146369000Y-82231000D01*
X146369000Y-80329000D01*
X148271000Y-80329000D01*
X148271000Y-82231000D01*
X148271000Y-82231000D01*
G37*
M02*
