G04 #@! TF.GenerationSoftware,KiCad,Pcbnew,(5.0.2-5)-5*
G04 #@! TF.CreationDate,2019-10-01T20:51:56+03:00*
G04 #@! TF.ProjectId,nav_panel,6e61765f-7061-46e6-956c-2e6b69636164,rev?*
G04 #@! TF.SameCoordinates,Original*
G04 #@! TF.FileFunction,Copper,L2,Bot*
G04 #@! TF.FilePolarity,Positive*
%FSLAX46Y46*%
G04 Gerber Fmt 4.6, Leading zero omitted, Abs format (unit mm)*
G04 Created by KiCad (PCBNEW (5.0.2-5)-5) date 2019 October 01, Tuesday 20:51:56*
%MOMM*%
%LPD*%
G01*
G04 APERTURE LIST*
G04 #@! TA.AperFunction,ComponentPad*
%ADD10R,1.800000X1.800000*%
G04 #@! TD*
G04 #@! TA.AperFunction,ComponentPad*
%ADD11C,1.800000*%
G04 #@! TD*
G04 #@! TA.AperFunction,Conductor*
%ADD12C,0.100000*%
G04 #@! TD*
G04 #@! TA.AperFunction,SMDPad,CuDef*
%ADD13C,1.150000*%
G04 #@! TD*
G04 #@! TA.AperFunction,ComponentPad*
%ADD14C,2.000000*%
G04 #@! TD*
G04 #@! TA.AperFunction,ComponentPad*
%ADD15R,3.000000X2.500000*%
G04 #@! TD*
G04 #@! TA.AperFunction,ComponentPad*
%ADD16R,2.000000X2.000000*%
G04 #@! TD*
G04 #@! TA.AperFunction,ComponentPad*
%ADD17R,1.700000X1.700000*%
G04 #@! TD*
G04 #@! TA.AperFunction,ComponentPad*
%ADD18O,1.700000X1.700000*%
G04 #@! TD*
G04 #@! TA.AperFunction,Conductor*
%ADD19C,0.500000*%
G04 #@! TD*
G04 #@! TA.AperFunction,Conductor*
%ADD20C,0.250000*%
G04 #@! TD*
G04 #@! TA.AperFunction,Conductor*
%ADD21C,0.254000*%
G04 #@! TD*
G04 APERTURE END LIST*
D10*
G04 #@! TO.P,D1,1*
G04 #@! TO.N,GND*
X147320000Y-81280000D03*
D11*
G04 #@! TO.P,D1,2*
G04 #@! TO.N,Net-(D1-Pad2)*
X149860000Y-81280000D03*
G04 #@! TD*
D12*
G04 #@! TO.N,SW1*
G04 #@! TO.C,R1*
G36*
X137634505Y-84271204D02*
X137658773Y-84274804D01*
X137682572Y-84280765D01*
X137705671Y-84289030D01*
X137727850Y-84299520D01*
X137748893Y-84312132D01*
X137768599Y-84326747D01*
X137786777Y-84343223D01*
X137803253Y-84361401D01*
X137817868Y-84381107D01*
X137830480Y-84402150D01*
X137840970Y-84424329D01*
X137849235Y-84447428D01*
X137855196Y-84471227D01*
X137858796Y-84495495D01*
X137860000Y-84519999D01*
X137860000Y-85170001D01*
X137858796Y-85194505D01*
X137855196Y-85218773D01*
X137849235Y-85242572D01*
X137840970Y-85265671D01*
X137830480Y-85287850D01*
X137817868Y-85308893D01*
X137803253Y-85328599D01*
X137786777Y-85346777D01*
X137768599Y-85363253D01*
X137748893Y-85377868D01*
X137727850Y-85390480D01*
X137705671Y-85400970D01*
X137682572Y-85409235D01*
X137658773Y-85415196D01*
X137634505Y-85418796D01*
X137610001Y-85420000D01*
X136709999Y-85420000D01*
X136685495Y-85418796D01*
X136661227Y-85415196D01*
X136637428Y-85409235D01*
X136614329Y-85400970D01*
X136592150Y-85390480D01*
X136571107Y-85377868D01*
X136551401Y-85363253D01*
X136533223Y-85346777D01*
X136516747Y-85328599D01*
X136502132Y-85308893D01*
X136489520Y-85287850D01*
X136479030Y-85265671D01*
X136470765Y-85242572D01*
X136464804Y-85218773D01*
X136461204Y-85194505D01*
X136460000Y-85170001D01*
X136460000Y-84519999D01*
X136461204Y-84495495D01*
X136464804Y-84471227D01*
X136470765Y-84447428D01*
X136479030Y-84424329D01*
X136489520Y-84402150D01*
X136502132Y-84381107D01*
X136516747Y-84361401D01*
X136533223Y-84343223D01*
X136551401Y-84326747D01*
X136571107Y-84312132D01*
X136592150Y-84299520D01*
X136614329Y-84289030D01*
X136637428Y-84280765D01*
X136661227Y-84274804D01*
X136685495Y-84271204D01*
X136709999Y-84270000D01*
X137610001Y-84270000D01*
X137634505Y-84271204D01*
X137634505Y-84271204D01*
G37*
D13*
G04 #@! TD*
G04 #@! TO.P,R1,1*
G04 #@! TO.N,SW1*
X137160000Y-84845000D03*
D12*
G04 #@! TO.N,GND*
G04 #@! TO.C,R1*
G36*
X137634505Y-82221204D02*
X137658773Y-82224804D01*
X137682572Y-82230765D01*
X137705671Y-82239030D01*
X137727850Y-82249520D01*
X137748893Y-82262132D01*
X137768599Y-82276747D01*
X137786777Y-82293223D01*
X137803253Y-82311401D01*
X137817868Y-82331107D01*
X137830480Y-82352150D01*
X137840970Y-82374329D01*
X137849235Y-82397428D01*
X137855196Y-82421227D01*
X137858796Y-82445495D01*
X137860000Y-82469999D01*
X137860000Y-83120001D01*
X137858796Y-83144505D01*
X137855196Y-83168773D01*
X137849235Y-83192572D01*
X137840970Y-83215671D01*
X137830480Y-83237850D01*
X137817868Y-83258893D01*
X137803253Y-83278599D01*
X137786777Y-83296777D01*
X137768599Y-83313253D01*
X137748893Y-83327868D01*
X137727850Y-83340480D01*
X137705671Y-83350970D01*
X137682572Y-83359235D01*
X137658773Y-83365196D01*
X137634505Y-83368796D01*
X137610001Y-83370000D01*
X136709999Y-83370000D01*
X136685495Y-83368796D01*
X136661227Y-83365196D01*
X136637428Y-83359235D01*
X136614329Y-83350970D01*
X136592150Y-83340480D01*
X136571107Y-83327868D01*
X136551401Y-83313253D01*
X136533223Y-83296777D01*
X136516747Y-83278599D01*
X136502132Y-83258893D01*
X136489520Y-83237850D01*
X136479030Y-83215671D01*
X136470765Y-83192572D01*
X136464804Y-83168773D01*
X136461204Y-83144505D01*
X136460000Y-83120001D01*
X136460000Y-82469999D01*
X136461204Y-82445495D01*
X136464804Y-82421227D01*
X136470765Y-82397428D01*
X136479030Y-82374329D01*
X136489520Y-82352150D01*
X136502132Y-82331107D01*
X136516747Y-82311401D01*
X136533223Y-82293223D01*
X136551401Y-82276747D01*
X136571107Y-82262132D01*
X136592150Y-82249520D01*
X136614329Y-82239030D01*
X136637428Y-82230765D01*
X136661227Y-82224804D01*
X136685495Y-82221204D01*
X136709999Y-82220000D01*
X137610001Y-82220000D01*
X137634505Y-82221204D01*
X137634505Y-82221204D01*
G37*
D13*
G04 #@! TD*
G04 #@! TO.P,R1,2*
G04 #@! TO.N,GND*
X137160000Y-82795000D03*
D12*
G04 #@! TO.N,GND*
G04 #@! TO.C,R2*
G36*
X160494505Y-82221204D02*
X160518773Y-82224804D01*
X160542572Y-82230765D01*
X160565671Y-82239030D01*
X160587850Y-82249520D01*
X160608893Y-82262132D01*
X160628599Y-82276747D01*
X160646777Y-82293223D01*
X160663253Y-82311401D01*
X160677868Y-82331107D01*
X160690480Y-82352150D01*
X160700970Y-82374329D01*
X160709235Y-82397428D01*
X160715196Y-82421227D01*
X160718796Y-82445495D01*
X160720000Y-82469999D01*
X160720000Y-83120001D01*
X160718796Y-83144505D01*
X160715196Y-83168773D01*
X160709235Y-83192572D01*
X160700970Y-83215671D01*
X160690480Y-83237850D01*
X160677868Y-83258893D01*
X160663253Y-83278599D01*
X160646777Y-83296777D01*
X160628599Y-83313253D01*
X160608893Y-83327868D01*
X160587850Y-83340480D01*
X160565671Y-83350970D01*
X160542572Y-83359235D01*
X160518773Y-83365196D01*
X160494505Y-83368796D01*
X160470001Y-83370000D01*
X159569999Y-83370000D01*
X159545495Y-83368796D01*
X159521227Y-83365196D01*
X159497428Y-83359235D01*
X159474329Y-83350970D01*
X159452150Y-83340480D01*
X159431107Y-83327868D01*
X159411401Y-83313253D01*
X159393223Y-83296777D01*
X159376747Y-83278599D01*
X159362132Y-83258893D01*
X159349520Y-83237850D01*
X159339030Y-83215671D01*
X159330765Y-83192572D01*
X159324804Y-83168773D01*
X159321204Y-83144505D01*
X159320000Y-83120001D01*
X159320000Y-82469999D01*
X159321204Y-82445495D01*
X159324804Y-82421227D01*
X159330765Y-82397428D01*
X159339030Y-82374329D01*
X159349520Y-82352150D01*
X159362132Y-82331107D01*
X159376747Y-82311401D01*
X159393223Y-82293223D01*
X159411401Y-82276747D01*
X159431107Y-82262132D01*
X159452150Y-82249520D01*
X159474329Y-82239030D01*
X159497428Y-82230765D01*
X159521227Y-82224804D01*
X159545495Y-82221204D01*
X159569999Y-82220000D01*
X160470001Y-82220000D01*
X160494505Y-82221204D01*
X160494505Y-82221204D01*
G37*
D13*
G04 #@! TD*
G04 #@! TO.P,R2,2*
G04 #@! TO.N,GND*
X160020000Y-82795000D03*
D12*
G04 #@! TO.N,SW2*
G04 #@! TO.C,R2*
G36*
X160494505Y-84271204D02*
X160518773Y-84274804D01*
X160542572Y-84280765D01*
X160565671Y-84289030D01*
X160587850Y-84299520D01*
X160608893Y-84312132D01*
X160628599Y-84326747D01*
X160646777Y-84343223D01*
X160663253Y-84361401D01*
X160677868Y-84381107D01*
X160690480Y-84402150D01*
X160700970Y-84424329D01*
X160709235Y-84447428D01*
X160715196Y-84471227D01*
X160718796Y-84495495D01*
X160720000Y-84519999D01*
X160720000Y-85170001D01*
X160718796Y-85194505D01*
X160715196Y-85218773D01*
X160709235Y-85242572D01*
X160700970Y-85265671D01*
X160690480Y-85287850D01*
X160677868Y-85308893D01*
X160663253Y-85328599D01*
X160646777Y-85346777D01*
X160628599Y-85363253D01*
X160608893Y-85377868D01*
X160587850Y-85390480D01*
X160565671Y-85400970D01*
X160542572Y-85409235D01*
X160518773Y-85415196D01*
X160494505Y-85418796D01*
X160470001Y-85420000D01*
X159569999Y-85420000D01*
X159545495Y-85418796D01*
X159521227Y-85415196D01*
X159497428Y-85409235D01*
X159474329Y-85400970D01*
X159452150Y-85390480D01*
X159431107Y-85377868D01*
X159411401Y-85363253D01*
X159393223Y-85346777D01*
X159376747Y-85328599D01*
X159362132Y-85308893D01*
X159349520Y-85287850D01*
X159339030Y-85265671D01*
X159330765Y-85242572D01*
X159324804Y-85218773D01*
X159321204Y-85194505D01*
X159320000Y-85170001D01*
X159320000Y-84519999D01*
X159321204Y-84495495D01*
X159324804Y-84471227D01*
X159330765Y-84447428D01*
X159339030Y-84424329D01*
X159349520Y-84402150D01*
X159362132Y-84381107D01*
X159376747Y-84361401D01*
X159393223Y-84343223D01*
X159411401Y-84326747D01*
X159431107Y-84312132D01*
X159452150Y-84299520D01*
X159474329Y-84289030D01*
X159497428Y-84280765D01*
X159521227Y-84274804D01*
X159545495Y-84271204D01*
X159569999Y-84270000D01*
X160470001Y-84270000D01*
X160494505Y-84271204D01*
X160494505Y-84271204D01*
G37*
D13*
G04 #@! TD*
G04 #@! TO.P,R2,1*
G04 #@! TO.N,SW2*
X160020000Y-84845000D03*
D12*
G04 #@! TO.N,RE_B*
G04 #@! TO.C,R3*
G36*
X137634505Y-94921204D02*
X137658773Y-94924804D01*
X137682572Y-94930765D01*
X137705671Y-94939030D01*
X137727850Y-94949520D01*
X137748893Y-94962132D01*
X137768599Y-94976747D01*
X137786777Y-94993223D01*
X137803253Y-95011401D01*
X137817868Y-95031107D01*
X137830480Y-95052150D01*
X137840970Y-95074329D01*
X137849235Y-95097428D01*
X137855196Y-95121227D01*
X137858796Y-95145495D01*
X137860000Y-95169999D01*
X137860000Y-95820001D01*
X137858796Y-95844505D01*
X137855196Y-95868773D01*
X137849235Y-95892572D01*
X137840970Y-95915671D01*
X137830480Y-95937850D01*
X137817868Y-95958893D01*
X137803253Y-95978599D01*
X137786777Y-95996777D01*
X137768599Y-96013253D01*
X137748893Y-96027868D01*
X137727850Y-96040480D01*
X137705671Y-96050970D01*
X137682572Y-96059235D01*
X137658773Y-96065196D01*
X137634505Y-96068796D01*
X137610001Y-96070000D01*
X136709999Y-96070000D01*
X136685495Y-96068796D01*
X136661227Y-96065196D01*
X136637428Y-96059235D01*
X136614329Y-96050970D01*
X136592150Y-96040480D01*
X136571107Y-96027868D01*
X136551401Y-96013253D01*
X136533223Y-95996777D01*
X136516747Y-95978599D01*
X136502132Y-95958893D01*
X136489520Y-95937850D01*
X136479030Y-95915671D01*
X136470765Y-95892572D01*
X136464804Y-95868773D01*
X136461204Y-95844505D01*
X136460000Y-95820001D01*
X136460000Y-95169999D01*
X136461204Y-95145495D01*
X136464804Y-95121227D01*
X136470765Y-95097428D01*
X136479030Y-95074329D01*
X136489520Y-95052150D01*
X136502132Y-95031107D01*
X136516747Y-95011401D01*
X136533223Y-94993223D01*
X136551401Y-94976747D01*
X136571107Y-94962132D01*
X136592150Y-94949520D01*
X136614329Y-94939030D01*
X136637428Y-94930765D01*
X136661227Y-94924804D01*
X136685495Y-94921204D01*
X136709999Y-94920000D01*
X137610001Y-94920000D01*
X137634505Y-94921204D01*
X137634505Y-94921204D01*
G37*
D13*
G04 #@! TD*
G04 #@! TO.P,R3,1*
G04 #@! TO.N,RE_B*
X137160000Y-95495000D03*
D12*
G04 #@! TO.N,GND*
G04 #@! TO.C,R3*
G36*
X137634505Y-96971204D02*
X137658773Y-96974804D01*
X137682572Y-96980765D01*
X137705671Y-96989030D01*
X137727850Y-96999520D01*
X137748893Y-97012132D01*
X137768599Y-97026747D01*
X137786777Y-97043223D01*
X137803253Y-97061401D01*
X137817868Y-97081107D01*
X137830480Y-97102150D01*
X137840970Y-97124329D01*
X137849235Y-97147428D01*
X137855196Y-97171227D01*
X137858796Y-97195495D01*
X137860000Y-97219999D01*
X137860000Y-97870001D01*
X137858796Y-97894505D01*
X137855196Y-97918773D01*
X137849235Y-97942572D01*
X137840970Y-97965671D01*
X137830480Y-97987850D01*
X137817868Y-98008893D01*
X137803253Y-98028599D01*
X137786777Y-98046777D01*
X137768599Y-98063253D01*
X137748893Y-98077868D01*
X137727850Y-98090480D01*
X137705671Y-98100970D01*
X137682572Y-98109235D01*
X137658773Y-98115196D01*
X137634505Y-98118796D01*
X137610001Y-98120000D01*
X136709999Y-98120000D01*
X136685495Y-98118796D01*
X136661227Y-98115196D01*
X136637428Y-98109235D01*
X136614329Y-98100970D01*
X136592150Y-98090480D01*
X136571107Y-98077868D01*
X136551401Y-98063253D01*
X136533223Y-98046777D01*
X136516747Y-98028599D01*
X136502132Y-98008893D01*
X136489520Y-97987850D01*
X136479030Y-97965671D01*
X136470765Y-97942572D01*
X136464804Y-97918773D01*
X136461204Y-97894505D01*
X136460000Y-97870001D01*
X136460000Y-97219999D01*
X136461204Y-97195495D01*
X136464804Y-97171227D01*
X136470765Y-97147428D01*
X136479030Y-97124329D01*
X136489520Y-97102150D01*
X136502132Y-97081107D01*
X136516747Y-97061401D01*
X136533223Y-97043223D01*
X136551401Y-97026747D01*
X136571107Y-97012132D01*
X136592150Y-96999520D01*
X136614329Y-96989030D01*
X136637428Y-96980765D01*
X136661227Y-96974804D01*
X136685495Y-96971204D01*
X136709999Y-96970000D01*
X137610001Y-96970000D01*
X137634505Y-96971204D01*
X137634505Y-96971204D01*
G37*
D13*
G04 #@! TD*
G04 #@! TO.P,R3,2*
G04 #@! TO.N,GND*
X137160000Y-97545000D03*
D12*
G04 #@! TO.N,RE1*
G04 #@! TO.C,R4*
G36*
X160494505Y-94921204D02*
X160518773Y-94924804D01*
X160542572Y-94930765D01*
X160565671Y-94939030D01*
X160587850Y-94949520D01*
X160608893Y-94962132D01*
X160628599Y-94976747D01*
X160646777Y-94993223D01*
X160663253Y-95011401D01*
X160677868Y-95031107D01*
X160690480Y-95052150D01*
X160700970Y-95074329D01*
X160709235Y-95097428D01*
X160715196Y-95121227D01*
X160718796Y-95145495D01*
X160720000Y-95169999D01*
X160720000Y-95820001D01*
X160718796Y-95844505D01*
X160715196Y-95868773D01*
X160709235Y-95892572D01*
X160700970Y-95915671D01*
X160690480Y-95937850D01*
X160677868Y-95958893D01*
X160663253Y-95978599D01*
X160646777Y-95996777D01*
X160628599Y-96013253D01*
X160608893Y-96027868D01*
X160587850Y-96040480D01*
X160565671Y-96050970D01*
X160542572Y-96059235D01*
X160518773Y-96065196D01*
X160494505Y-96068796D01*
X160470001Y-96070000D01*
X159569999Y-96070000D01*
X159545495Y-96068796D01*
X159521227Y-96065196D01*
X159497428Y-96059235D01*
X159474329Y-96050970D01*
X159452150Y-96040480D01*
X159431107Y-96027868D01*
X159411401Y-96013253D01*
X159393223Y-95996777D01*
X159376747Y-95978599D01*
X159362132Y-95958893D01*
X159349520Y-95937850D01*
X159339030Y-95915671D01*
X159330765Y-95892572D01*
X159324804Y-95868773D01*
X159321204Y-95844505D01*
X159320000Y-95820001D01*
X159320000Y-95169999D01*
X159321204Y-95145495D01*
X159324804Y-95121227D01*
X159330765Y-95097428D01*
X159339030Y-95074329D01*
X159349520Y-95052150D01*
X159362132Y-95031107D01*
X159376747Y-95011401D01*
X159393223Y-94993223D01*
X159411401Y-94976747D01*
X159431107Y-94962132D01*
X159452150Y-94949520D01*
X159474329Y-94939030D01*
X159497428Y-94930765D01*
X159521227Y-94924804D01*
X159545495Y-94921204D01*
X159569999Y-94920000D01*
X160470001Y-94920000D01*
X160494505Y-94921204D01*
X160494505Y-94921204D01*
G37*
D13*
G04 #@! TD*
G04 #@! TO.P,R4,1*
G04 #@! TO.N,RE1*
X160020000Y-95495000D03*
D12*
G04 #@! TO.N,GND*
G04 #@! TO.C,R4*
G36*
X160494505Y-96971204D02*
X160518773Y-96974804D01*
X160542572Y-96980765D01*
X160565671Y-96989030D01*
X160587850Y-96999520D01*
X160608893Y-97012132D01*
X160628599Y-97026747D01*
X160646777Y-97043223D01*
X160663253Y-97061401D01*
X160677868Y-97081107D01*
X160690480Y-97102150D01*
X160700970Y-97124329D01*
X160709235Y-97147428D01*
X160715196Y-97171227D01*
X160718796Y-97195495D01*
X160720000Y-97219999D01*
X160720000Y-97870001D01*
X160718796Y-97894505D01*
X160715196Y-97918773D01*
X160709235Y-97942572D01*
X160700970Y-97965671D01*
X160690480Y-97987850D01*
X160677868Y-98008893D01*
X160663253Y-98028599D01*
X160646777Y-98046777D01*
X160628599Y-98063253D01*
X160608893Y-98077868D01*
X160587850Y-98090480D01*
X160565671Y-98100970D01*
X160542572Y-98109235D01*
X160518773Y-98115196D01*
X160494505Y-98118796D01*
X160470001Y-98120000D01*
X159569999Y-98120000D01*
X159545495Y-98118796D01*
X159521227Y-98115196D01*
X159497428Y-98109235D01*
X159474329Y-98100970D01*
X159452150Y-98090480D01*
X159431107Y-98077868D01*
X159411401Y-98063253D01*
X159393223Y-98046777D01*
X159376747Y-98028599D01*
X159362132Y-98008893D01*
X159349520Y-97987850D01*
X159339030Y-97965671D01*
X159330765Y-97942572D01*
X159324804Y-97918773D01*
X159321204Y-97894505D01*
X159320000Y-97870001D01*
X159320000Y-97219999D01*
X159321204Y-97195495D01*
X159324804Y-97171227D01*
X159330765Y-97147428D01*
X159339030Y-97124329D01*
X159349520Y-97102150D01*
X159362132Y-97081107D01*
X159376747Y-97061401D01*
X159393223Y-97043223D01*
X159411401Y-97026747D01*
X159431107Y-97012132D01*
X159452150Y-96999520D01*
X159474329Y-96989030D01*
X159497428Y-96980765D01*
X159521227Y-96974804D01*
X159545495Y-96971204D01*
X159569999Y-96970000D01*
X160470001Y-96970000D01*
X160494505Y-96971204D01*
X160494505Y-96971204D01*
G37*
D13*
G04 #@! TD*
G04 #@! TO.P,R4,2*
G04 #@! TO.N,GND*
X160020000Y-97545000D03*
D12*
G04 #@! TO.N,GND*
G04 #@! TO.C,R5*
G36*
X141444505Y-82221204D02*
X141468773Y-82224804D01*
X141492572Y-82230765D01*
X141515671Y-82239030D01*
X141537850Y-82249520D01*
X141558893Y-82262132D01*
X141578599Y-82276747D01*
X141596777Y-82293223D01*
X141613253Y-82311401D01*
X141627868Y-82331107D01*
X141640480Y-82352150D01*
X141650970Y-82374329D01*
X141659235Y-82397428D01*
X141665196Y-82421227D01*
X141668796Y-82445495D01*
X141670000Y-82469999D01*
X141670000Y-83120001D01*
X141668796Y-83144505D01*
X141665196Y-83168773D01*
X141659235Y-83192572D01*
X141650970Y-83215671D01*
X141640480Y-83237850D01*
X141627868Y-83258893D01*
X141613253Y-83278599D01*
X141596777Y-83296777D01*
X141578599Y-83313253D01*
X141558893Y-83327868D01*
X141537850Y-83340480D01*
X141515671Y-83350970D01*
X141492572Y-83359235D01*
X141468773Y-83365196D01*
X141444505Y-83368796D01*
X141420001Y-83370000D01*
X140519999Y-83370000D01*
X140495495Y-83368796D01*
X140471227Y-83365196D01*
X140447428Y-83359235D01*
X140424329Y-83350970D01*
X140402150Y-83340480D01*
X140381107Y-83327868D01*
X140361401Y-83313253D01*
X140343223Y-83296777D01*
X140326747Y-83278599D01*
X140312132Y-83258893D01*
X140299520Y-83237850D01*
X140289030Y-83215671D01*
X140280765Y-83192572D01*
X140274804Y-83168773D01*
X140271204Y-83144505D01*
X140270000Y-83120001D01*
X140270000Y-82469999D01*
X140271204Y-82445495D01*
X140274804Y-82421227D01*
X140280765Y-82397428D01*
X140289030Y-82374329D01*
X140299520Y-82352150D01*
X140312132Y-82331107D01*
X140326747Y-82311401D01*
X140343223Y-82293223D01*
X140361401Y-82276747D01*
X140381107Y-82262132D01*
X140402150Y-82249520D01*
X140424329Y-82239030D01*
X140447428Y-82230765D01*
X140471227Y-82224804D01*
X140495495Y-82221204D01*
X140519999Y-82220000D01*
X141420001Y-82220000D01*
X141444505Y-82221204D01*
X141444505Y-82221204D01*
G37*
D13*
G04 #@! TD*
G04 #@! TO.P,R5,2*
G04 #@! TO.N,GND*
X140970000Y-82795000D03*
D12*
G04 #@! TO.N,RE_A*
G04 #@! TO.C,R5*
G36*
X141444505Y-84271204D02*
X141468773Y-84274804D01*
X141492572Y-84280765D01*
X141515671Y-84289030D01*
X141537850Y-84299520D01*
X141558893Y-84312132D01*
X141578599Y-84326747D01*
X141596777Y-84343223D01*
X141613253Y-84361401D01*
X141627868Y-84381107D01*
X141640480Y-84402150D01*
X141650970Y-84424329D01*
X141659235Y-84447428D01*
X141665196Y-84471227D01*
X141668796Y-84495495D01*
X141670000Y-84519999D01*
X141670000Y-85170001D01*
X141668796Y-85194505D01*
X141665196Y-85218773D01*
X141659235Y-85242572D01*
X141650970Y-85265671D01*
X141640480Y-85287850D01*
X141627868Y-85308893D01*
X141613253Y-85328599D01*
X141596777Y-85346777D01*
X141578599Y-85363253D01*
X141558893Y-85377868D01*
X141537850Y-85390480D01*
X141515671Y-85400970D01*
X141492572Y-85409235D01*
X141468773Y-85415196D01*
X141444505Y-85418796D01*
X141420001Y-85420000D01*
X140519999Y-85420000D01*
X140495495Y-85418796D01*
X140471227Y-85415196D01*
X140447428Y-85409235D01*
X140424329Y-85400970D01*
X140402150Y-85390480D01*
X140381107Y-85377868D01*
X140361401Y-85363253D01*
X140343223Y-85346777D01*
X140326747Y-85328599D01*
X140312132Y-85308893D01*
X140299520Y-85287850D01*
X140289030Y-85265671D01*
X140280765Y-85242572D01*
X140274804Y-85218773D01*
X140271204Y-85194505D01*
X140270000Y-85170001D01*
X140270000Y-84519999D01*
X140271204Y-84495495D01*
X140274804Y-84471227D01*
X140280765Y-84447428D01*
X140289030Y-84424329D01*
X140299520Y-84402150D01*
X140312132Y-84381107D01*
X140326747Y-84361401D01*
X140343223Y-84343223D01*
X140361401Y-84326747D01*
X140381107Y-84312132D01*
X140402150Y-84299520D01*
X140424329Y-84289030D01*
X140447428Y-84280765D01*
X140471227Y-84274804D01*
X140495495Y-84271204D01*
X140519999Y-84270000D01*
X141420001Y-84270000D01*
X141444505Y-84271204D01*
X141444505Y-84271204D01*
G37*
D13*
G04 #@! TD*
G04 #@! TO.P,R5,1*
G04 #@! TO.N,RE_A*
X140970000Y-84845000D03*
D12*
G04 #@! TO.N,LED*
G04 #@! TO.C,R6*
G36*
X166844505Y-84271204D02*
X166868773Y-84274804D01*
X166892572Y-84280765D01*
X166915671Y-84289030D01*
X166937850Y-84299520D01*
X166958893Y-84312132D01*
X166978599Y-84326747D01*
X166996777Y-84343223D01*
X167013253Y-84361401D01*
X167027868Y-84381107D01*
X167040480Y-84402150D01*
X167050970Y-84424329D01*
X167059235Y-84447428D01*
X167065196Y-84471227D01*
X167068796Y-84495495D01*
X167070000Y-84519999D01*
X167070000Y-85170001D01*
X167068796Y-85194505D01*
X167065196Y-85218773D01*
X167059235Y-85242572D01*
X167050970Y-85265671D01*
X167040480Y-85287850D01*
X167027868Y-85308893D01*
X167013253Y-85328599D01*
X166996777Y-85346777D01*
X166978599Y-85363253D01*
X166958893Y-85377868D01*
X166937850Y-85390480D01*
X166915671Y-85400970D01*
X166892572Y-85409235D01*
X166868773Y-85415196D01*
X166844505Y-85418796D01*
X166820001Y-85420000D01*
X165919999Y-85420000D01*
X165895495Y-85418796D01*
X165871227Y-85415196D01*
X165847428Y-85409235D01*
X165824329Y-85400970D01*
X165802150Y-85390480D01*
X165781107Y-85377868D01*
X165761401Y-85363253D01*
X165743223Y-85346777D01*
X165726747Y-85328599D01*
X165712132Y-85308893D01*
X165699520Y-85287850D01*
X165689030Y-85265671D01*
X165680765Y-85242572D01*
X165674804Y-85218773D01*
X165671204Y-85194505D01*
X165670000Y-85170001D01*
X165670000Y-84519999D01*
X165671204Y-84495495D01*
X165674804Y-84471227D01*
X165680765Y-84447428D01*
X165689030Y-84424329D01*
X165699520Y-84402150D01*
X165712132Y-84381107D01*
X165726747Y-84361401D01*
X165743223Y-84343223D01*
X165761401Y-84326747D01*
X165781107Y-84312132D01*
X165802150Y-84299520D01*
X165824329Y-84289030D01*
X165847428Y-84280765D01*
X165871227Y-84274804D01*
X165895495Y-84271204D01*
X165919999Y-84270000D01*
X166820001Y-84270000D01*
X166844505Y-84271204D01*
X166844505Y-84271204D01*
G37*
D13*
G04 #@! TD*
G04 #@! TO.P,R6,2*
G04 #@! TO.N,LED*
X166370000Y-84845000D03*
D12*
G04 #@! TO.N,Net-(D1-Pad2)*
G04 #@! TO.C,R6*
G36*
X166844505Y-82221204D02*
X166868773Y-82224804D01*
X166892572Y-82230765D01*
X166915671Y-82239030D01*
X166937850Y-82249520D01*
X166958893Y-82262132D01*
X166978599Y-82276747D01*
X166996777Y-82293223D01*
X167013253Y-82311401D01*
X167027868Y-82331107D01*
X167040480Y-82352150D01*
X167050970Y-82374329D01*
X167059235Y-82397428D01*
X167065196Y-82421227D01*
X167068796Y-82445495D01*
X167070000Y-82469999D01*
X167070000Y-83120001D01*
X167068796Y-83144505D01*
X167065196Y-83168773D01*
X167059235Y-83192572D01*
X167050970Y-83215671D01*
X167040480Y-83237850D01*
X167027868Y-83258893D01*
X167013253Y-83278599D01*
X166996777Y-83296777D01*
X166978599Y-83313253D01*
X166958893Y-83327868D01*
X166937850Y-83340480D01*
X166915671Y-83350970D01*
X166892572Y-83359235D01*
X166868773Y-83365196D01*
X166844505Y-83368796D01*
X166820001Y-83370000D01*
X165919999Y-83370000D01*
X165895495Y-83368796D01*
X165871227Y-83365196D01*
X165847428Y-83359235D01*
X165824329Y-83350970D01*
X165802150Y-83340480D01*
X165781107Y-83327868D01*
X165761401Y-83313253D01*
X165743223Y-83296777D01*
X165726747Y-83278599D01*
X165712132Y-83258893D01*
X165699520Y-83237850D01*
X165689030Y-83215671D01*
X165680765Y-83192572D01*
X165674804Y-83168773D01*
X165671204Y-83144505D01*
X165670000Y-83120001D01*
X165670000Y-82469999D01*
X165671204Y-82445495D01*
X165674804Y-82421227D01*
X165680765Y-82397428D01*
X165689030Y-82374329D01*
X165699520Y-82352150D01*
X165712132Y-82331107D01*
X165726747Y-82311401D01*
X165743223Y-82293223D01*
X165761401Y-82276747D01*
X165781107Y-82262132D01*
X165802150Y-82249520D01*
X165824329Y-82239030D01*
X165847428Y-82230765D01*
X165871227Y-82224804D01*
X165895495Y-82221204D01*
X165919999Y-82220000D01*
X166820001Y-82220000D01*
X166844505Y-82221204D01*
X166844505Y-82221204D01*
G37*
D13*
G04 #@! TD*
G04 #@! TO.P,R6,1*
G04 #@! TO.N,Net-(D1-Pad2)*
X166370000Y-82795000D03*
D14*
G04 #@! TO.P,RE1,S2*
G04 #@! TO.N,RE1*
X155597000Y-95170000D03*
G04 #@! TO.P,RE1,S1*
G04 #@! TO.N,+5V*
X155597000Y-90170000D03*
D15*
G04 #@! TO.P,RE1,MP*
G04 #@! TO.N,N/C*
X148597000Y-98270000D03*
X148597000Y-87070000D03*
D14*
G04 #@! TO.P,RE1,B*
G04 #@! TO.N,RE_B*
X141097000Y-95170000D03*
G04 #@! TO.P,RE1,C*
G04 #@! TO.N,+5V*
X141097000Y-92670000D03*
D16*
G04 #@! TO.P,RE1,A*
G04 #@! TO.N,RE_A*
X141097000Y-90170000D03*
G04 #@! TD*
D14*
G04 #@! TO.P,SW1,1*
G04 #@! TO.N,SW1*
X137310000Y-87630000D03*
G04 #@! TO.P,SW1,2*
G04 #@! TO.N,+5V*
X137310000Y-92130000D03*
G04 #@! TO.P,SW1,1*
G04 #@! TO.N,SW1*
X130810000Y-87630000D03*
G04 #@! TO.P,SW1,2*
G04 #@! TO.N,+5V*
X130810000Y-92130000D03*
G04 #@! TD*
G04 #@! TO.P,SW2,2*
G04 #@! TO.N,+5V*
X160020000Y-92130000D03*
G04 #@! TO.P,SW2,1*
G04 #@! TO.N,SW2*
X160020000Y-87630000D03*
G04 #@! TO.P,SW2,2*
G04 #@! TO.N,+5V*
X166520000Y-92130000D03*
G04 #@! TO.P,SW2,1*
G04 #@! TO.N,SW2*
X166520000Y-87630000D03*
G04 #@! TD*
D17*
G04 #@! TO.P,J1,1*
G04 #@! TO.N,SW1*
X127000000Y-86360000D03*
D18*
G04 #@! TO.P,J1,2*
G04 #@! TO.N,RE1*
X127000000Y-88900000D03*
G04 #@! TO.P,J1,3*
G04 #@! TO.N,RE_A*
X127000000Y-91440000D03*
G04 #@! TO.P,J1,4*
G04 #@! TO.N,GND*
X127000000Y-93980000D03*
G04 #@! TD*
G04 #@! TO.P,J2,4*
G04 #@! TO.N,+5V*
X170180000Y-93980000D03*
G04 #@! TO.P,J2,3*
G04 #@! TO.N,RE_B*
X170180000Y-91440000D03*
G04 #@! TO.P,J2,2*
G04 #@! TO.N,SW2*
X170180000Y-88900000D03*
D17*
G04 #@! TO.P,J2,1*
G04 #@! TO.N,LED*
X170180000Y-86360000D03*
G04 #@! TD*
D19*
G04 #@! TO.N,GND*
X133595000Y-93980000D02*
X137160000Y-97545000D01*
X127000000Y-93980000D02*
X133595000Y-93980000D01*
X133595000Y-85560000D02*
X133595000Y-93980000D01*
X136360000Y-82795000D02*
X133595000Y-85560000D01*
X137160000Y-82795000D02*
X136360000Y-82795000D01*
X137160000Y-82795000D02*
X140970000Y-82795000D01*
X147205000Y-82795000D02*
X147320000Y-82680000D01*
X140970000Y-82795000D02*
X147205000Y-82795000D01*
X159220000Y-82795000D02*
X160020000Y-82795000D01*
X147320000Y-82680000D02*
X147435000Y-82795000D01*
X147435000Y-82795000D02*
X159220000Y-82795000D01*
X147320000Y-81280000D02*
X147320000Y-82680000D01*
X159220000Y-97545000D02*
X160020000Y-97545000D01*
X137160000Y-97545000D02*
X145761998Y-97545000D01*
X151520000Y-97545000D02*
X159220000Y-97545000D01*
X147167998Y-96139000D02*
X150114000Y-96139000D01*
X150114000Y-96139000D02*
X151520000Y-97545000D01*
X145761998Y-97545000D02*
X147167998Y-96139000D01*
X160643372Y-96921628D02*
X160020000Y-97545000D01*
X163576000Y-93989000D02*
X160643372Y-96921628D01*
X163576000Y-86351000D02*
X163576000Y-93989000D01*
X160020000Y-82795000D02*
X163576000Y-86351000D01*
D20*
G04 #@! TO.N,Net-(D1-Pad2)*
X151132792Y-81280000D02*
X149860000Y-81280000D01*
X151747782Y-81894990D02*
X151132792Y-81280000D01*
X165469990Y-81894990D02*
X151747782Y-81894990D01*
X166370000Y-82795000D02*
X165469990Y-81894990D01*
G04 #@! TO.N,SW1*
X137160000Y-87480000D02*
X137310000Y-87630000D01*
X137160000Y-84845000D02*
X137160000Y-87480000D01*
G04 #@! TO.N,SW2*
X160020000Y-85520000D02*
X160020000Y-87630000D01*
X160020000Y-84845000D02*
X160020000Y-85520000D01*
G04 #@! TO.N,RE_B*
X140772000Y-95495000D02*
X141097000Y-95170000D01*
X137160000Y-95495000D02*
X140772000Y-95495000D01*
G04 #@! TO.N,RE1*
X155922000Y-95495000D02*
X155597000Y-95170000D01*
X160020000Y-95495000D02*
X155922000Y-95495000D01*
G04 #@! TO.N,RE_A*
X140970000Y-90043000D02*
X141097000Y-90170000D01*
X140970000Y-84845000D02*
X140970000Y-90043000D01*
G04 #@! TO.N,LED*
X167885000Y-86360000D02*
X166370000Y-84845000D01*
X170180000Y-86360000D02*
X167885000Y-86360000D01*
G04 #@! TD*
D21*
G04 #@! TO.N,GND*
G36*
X149322667Y-78552802D02*
X149873673Y-78764728D01*
X150368575Y-79086582D01*
X150785746Y-79504301D01*
X151117277Y-80015545D01*
X151211119Y-80226317D01*
X151223195Y-80287028D01*
X151380119Y-80521881D01*
X151614972Y-80678805D01*
X151822074Y-80720000D01*
X169399420Y-80720000D01*
X169810027Y-80778803D01*
X170141110Y-80929338D01*
X170416639Y-81166749D01*
X170614456Y-81471944D01*
X170725700Y-81843917D01*
X170740000Y-82036348D01*
X170740000Y-84862560D01*
X169330000Y-84862560D01*
X169082235Y-84911843D01*
X168872191Y-85052191D01*
X168731843Y-85262235D01*
X168682560Y-85510000D01*
X168682560Y-85600000D01*
X168199802Y-85600000D01*
X167717440Y-85117638D01*
X167717440Y-84519999D01*
X167649127Y-84176564D01*
X167454586Y-83885414D01*
X167356687Y-83820000D01*
X167454586Y-83754586D01*
X167649127Y-83463436D01*
X167717440Y-83120001D01*
X167717440Y-82469999D01*
X167649127Y-82126564D01*
X167454586Y-81835414D01*
X167163436Y-81640873D01*
X166820001Y-81572560D01*
X166222362Y-81572560D01*
X166060321Y-81410519D01*
X166017919Y-81347061D01*
X165766527Y-81179086D01*
X165544842Y-81134990D01*
X165544837Y-81134990D01*
X165469990Y-81120102D01*
X165395143Y-81134990D01*
X152062584Y-81134990D01*
X151723123Y-80795530D01*
X151680721Y-80732071D01*
X151429329Y-80564096D01*
X151207644Y-80520000D01*
X151207639Y-80520000D01*
X151206582Y-80519790D01*
X151161310Y-80410493D01*
X150729507Y-79978690D01*
X150165330Y-79745000D01*
X149554670Y-79745000D01*
X148990493Y-79978690D01*
X148814139Y-80155044D01*
X148758327Y-80020301D01*
X148579698Y-79841673D01*
X148346309Y-79745000D01*
X147605750Y-79745000D01*
X147447000Y-79903750D01*
X147447000Y-81153000D01*
X147467000Y-81153000D01*
X147467000Y-81407000D01*
X147447000Y-81407000D01*
X147447000Y-82656250D01*
X147605750Y-82815000D01*
X148346309Y-82815000D01*
X148579698Y-82718327D01*
X148758327Y-82539699D01*
X148814139Y-82404956D01*
X148990493Y-82581310D01*
X149554670Y-82815000D01*
X150165330Y-82815000D01*
X150729507Y-82581310D01*
X151044404Y-82266413D01*
X151157452Y-82379462D01*
X151199853Y-82442919D01*
X151451245Y-82610894D01*
X151672930Y-82654990D01*
X151672934Y-82654990D01*
X151747781Y-82669878D01*
X151822628Y-82654990D01*
X158830740Y-82654990D01*
X158843750Y-82668000D01*
X159893000Y-82668000D01*
X159893000Y-82654990D01*
X160147000Y-82654990D01*
X160147000Y-82668000D01*
X161196250Y-82668000D01*
X161209260Y-82654990D01*
X165022560Y-82654990D01*
X165022560Y-83120001D01*
X165090873Y-83463436D01*
X165285414Y-83754586D01*
X165383313Y-83820000D01*
X165285414Y-83885414D01*
X165090873Y-84176564D01*
X165022560Y-84519999D01*
X165022560Y-85170001D01*
X165090873Y-85513436D01*
X165285414Y-85804586D01*
X165576564Y-85999127D01*
X165919999Y-86067440D01*
X166019893Y-86067440D01*
X165593847Y-86243914D01*
X165133914Y-86703847D01*
X164885000Y-87304778D01*
X164885000Y-87955222D01*
X165133914Y-88556153D01*
X165593847Y-89016086D01*
X166194778Y-89265000D01*
X166845222Y-89265000D01*
X167446153Y-89016086D01*
X167906086Y-88556153D01*
X168155000Y-87955222D01*
X168155000Y-87304778D01*
X168078462Y-87120000D01*
X168682560Y-87120000D01*
X168682560Y-87210000D01*
X168731843Y-87457765D01*
X168872191Y-87667809D01*
X169082235Y-87808157D01*
X169127619Y-87817184D01*
X169109375Y-87829375D01*
X168781161Y-88320582D01*
X168665908Y-88900000D01*
X168781161Y-89479418D01*
X169109375Y-89970625D01*
X169407761Y-90170000D01*
X169109375Y-90369375D01*
X168781161Y-90860582D01*
X168665908Y-91440000D01*
X168781161Y-92019418D01*
X169109375Y-92510625D01*
X169407761Y-92710000D01*
X169109375Y-92909375D01*
X168781161Y-93400582D01*
X168665908Y-93980000D01*
X168781161Y-94559418D01*
X169109375Y-95050625D01*
X169600582Y-95378839D01*
X170033744Y-95465000D01*
X170326256Y-95465000D01*
X170740001Y-95382701D01*
X170740001Y-98279413D01*
X170681197Y-98690027D01*
X170530661Y-99021112D01*
X170293251Y-99296639D01*
X169988056Y-99494456D01*
X169616083Y-99605700D01*
X169423652Y-99620000D01*
X150724549Y-99620000D01*
X150744440Y-99520000D01*
X150744440Y-97830750D01*
X158685000Y-97830750D01*
X158685000Y-98246309D01*
X158781673Y-98479698D01*
X158960301Y-98658327D01*
X159193690Y-98755000D01*
X159734250Y-98755000D01*
X159893000Y-98596250D01*
X159893000Y-97672000D01*
X160147000Y-97672000D01*
X160147000Y-98596250D01*
X160305750Y-98755000D01*
X160846310Y-98755000D01*
X161079699Y-98658327D01*
X161258327Y-98479698D01*
X161355000Y-98246309D01*
X161355000Y-97830750D01*
X161196250Y-97672000D01*
X160147000Y-97672000D01*
X159893000Y-97672000D01*
X158843750Y-97672000D01*
X158685000Y-97830750D01*
X150744440Y-97830750D01*
X150744440Y-97020000D01*
X150695157Y-96772235D01*
X150554809Y-96562191D01*
X150344765Y-96421843D01*
X150097000Y-96372560D01*
X147097000Y-96372560D01*
X146849235Y-96421843D01*
X146639191Y-96562191D01*
X146498843Y-96772235D01*
X146449560Y-97020000D01*
X146449560Y-99520000D01*
X146469451Y-99620000D01*
X127780580Y-99620000D01*
X127369973Y-99561197D01*
X127038888Y-99410661D01*
X126763361Y-99173251D01*
X126565544Y-98868056D01*
X126454300Y-98496083D01*
X126440000Y-98303652D01*
X126440000Y-97830750D01*
X135825000Y-97830750D01*
X135825000Y-98246309D01*
X135921673Y-98479698D01*
X136100301Y-98658327D01*
X136333690Y-98755000D01*
X136874250Y-98755000D01*
X137033000Y-98596250D01*
X137033000Y-97672000D01*
X137287000Y-97672000D01*
X137287000Y-98596250D01*
X137445750Y-98755000D01*
X137986310Y-98755000D01*
X138219699Y-98658327D01*
X138398327Y-98479698D01*
X138495000Y-98246309D01*
X138495000Y-97830750D01*
X138336250Y-97672000D01*
X137287000Y-97672000D01*
X137033000Y-97672000D01*
X135983750Y-97672000D01*
X135825000Y-97830750D01*
X126440000Y-97830750D01*
X126440000Y-95326101D01*
X126643108Y-95421486D01*
X126873000Y-95300819D01*
X126873000Y-94107000D01*
X127127000Y-94107000D01*
X127127000Y-95300819D01*
X127356892Y-95421486D01*
X127881358Y-95175183D01*
X127886082Y-95169999D01*
X135812560Y-95169999D01*
X135812560Y-95820001D01*
X135880873Y-96163436D01*
X136075414Y-96454586D01*
X136076597Y-96455377D01*
X135921673Y-96610302D01*
X135825000Y-96843691D01*
X135825000Y-97259250D01*
X135983750Y-97418000D01*
X137033000Y-97418000D01*
X137033000Y-97398000D01*
X137287000Y-97398000D01*
X137287000Y-97418000D01*
X138336250Y-97418000D01*
X138495000Y-97259250D01*
X138495000Y-96843691D01*
X138398327Y-96610302D01*
X138243403Y-96455377D01*
X138244586Y-96454586D01*
X138377946Y-96255000D01*
X139869761Y-96255000D01*
X140170847Y-96556086D01*
X140771778Y-96805000D01*
X141422222Y-96805000D01*
X142023153Y-96556086D01*
X142483086Y-96096153D01*
X142732000Y-95495222D01*
X142732000Y-94844778D01*
X153962000Y-94844778D01*
X153962000Y-95495222D01*
X154210914Y-96096153D01*
X154670847Y-96556086D01*
X155271778Y-96805000D01*
X155922222Y-96805000D01*
X156523153Y-96556086D01*
X156824239Y-96255000D01*
X158802054Y-96255000D01*
X158935414Y-96454586D01*
X158936597Y-96455377D01*
X158781673Y-96610302D01*
X158685000Y-96843691D01*
X158685000Y-97259250D01*
X158843750Y-97418000D01*
X159893000Y-97418000D01*
X159893000Y-97398000D01*
X160147000Y-97398000D01*
X160147000Y-97418000D01*
X161196250Y-97418000D01*
X161355000Y-97259250D01*
X161355000Y-96843691D01*
X161258327Y-96610302D01*
X161103403Y-96455377D01*
X161104586Y-96454586D01*
X161299127Y-96163436D01*
X161367440Y-95820001D01*
X161367440Y-95169999D01*
X161299127Y-94826564D01*
X161104586Y-94535414D01*
X160813436Y-94340873D01*
X160470001Y-94272560D01*
X159569999Y-94272560D01*
X159226564Y-94340873D01*
X158935414Y-94535414D01*
X158802054Y-94735000D01*
X157186528Y-94735000D01*
X156983086Y-94243847D01*
X156523153Y-93783914D01*
X155922222Y-93535000D01*
X155271778Y-93535000D01*
X154670847Y-93783914D01*
X154210914Y-94243847D01*
X153962000Y-94844778D01*
X142732000Y-94844778D01*
X142483086Y-94243847D01*
X142159239Y-93920000D01*
X142483086Y-93596153D01*
X142732000Y-92995222D01*
X142732000Y-92344778D01*
X142483086Y-91743847D01*
X142442255Y-91703016D01*
X142554809Y-91627809D01*
X142695157Y-91417765D01*
X142744440Y-91170000D01*
X142744440Y-89844778D01*
X153962000Y-89844778D01*
X153962000Y-90495222D01*
X154210914Y-91096153D01*
X154670847Y-91556086D01*
X155271778Y-91805000D01*
X155922222Y-91805000D01*
X155922757Y-91804778D01*
X158385000Y-91804778D01*
X158385000Y-92455222D01*
X158633914Y-93056153D01*
X159093847Y-93516086D01*
X159694778Y-93765000D01*
X160345222Y-93765000D01*
X160946153Y-93516086D01*
X161406086Y-93056153D01*
X161655000Y-92455222D01*
X161655000Y-91804778D01*
X164885000Y-91804778D01*
X164885000Y-92455222D01*
X165133914Y-93056153D01*
X165593847Y-93516086D01*
X166194778Y-93765000D01*
X166845222Y-93765000D01*
X167446153Y-93516086D01*
X167906086Y-93056153D01*
X168155000Y-92455222D01*
X168155000Y-91804778D01*
X167906086Y-91203847D01*
X167446153Y-90743914D01*
X166845222Y-90495000D01*
X166194778Y-90495000D01*
X165593847Y-90743914D01*
X165133914Y-91203847D01*
X164885000Y-91804778D01*
X161655000Y-91804778D01*
X161406086Y-91203847D01*
X160946153Y-90743914D01*
X160345222Y-90495000D01*
X159694778Y-90495000D01*
X159093847Y-90743914D01*
X158633914Y-91203847D01*
X158385000Y-91804778D01*
X155922757Y-91804778D01*
X156523153Y-91556086D01*
X156983086Y-91096153D01*
X157232000Y-90495222D01*
X157232000Y-89844778D01*
X156983086Y-89243847D01*
X156523153Y-88783914D01*
X155922222Y-88535000D01*
X155271778Y-88535000D01*
X154670847Y-88783914D01*
X154210914Y-89243847D01*
X153962000Y-89844778D01*
X142744440Y-89844778D01*
X142744440Y-89170000D01*
X142695157Y-88922235D01*
X142554809Y-88712191D01*
X142344765Y-88571843D01*
X142097000Y-88522560D01*
X141730000Y-88522560D01*
X141730000Y-86005778D01*
X141763436Y-85999127D01*
X142031517Y-85820000D01*
X146449560Y-85820000D01*
X146449560Y-88320000D01*
X146498843Y-88567765D01*
X146639191Y-88777809D01*
X146849235Y-88918157D01*
X147097000Y-88967440D01*
X150097000Y-88967440D01*
X150344765Y-88918157D01*
X150554809Y-88777809D01*
X150695157Y-88567765D01*
X150744440Y-88320000D01*
X150744440Y-87304778D01*
X158385000Y-87304778D01*
X158385000Y-87955222D01*
X158633914Y-88556153D01*
X159093847Y-89016086D01*
X159694778Y-89265000D01*
X160345222Y-89265000D01*
X160946153Y-89016086D01*
X161406086Y-88556153D01*
X161655000Y-87955222D01*
X161655000Y-87304778D01*
X161406086Y-86703847D01*
X160946153Y-86243914D01*
X160780000Y-86175091D01*
X160780000Y-86005778D01*
X160813436Y-85999127D01*
X161104586Y-85804586D01*
X161299127Y-85513436D01*
X161367440Y-85170001D01*
X161367440Y-84519999D01*
X161299127Y-84176564D01*
X161104586Y-83885414D01*
X161103403Y-83884623D01*
X161258327Y-83729698D01*
X161355000Y-83496309D01*
X161355000Y-83080750D01*
X161196250Y-82922000D01*
X160147000Y-82922000D01*
X160147000Y-82942000D01*
X159893000Y-82942000D01*
X159893000Y-82922000D01*
X158843750Y-82922000D01*
X158685000Y-83080750D01*
X158685000Y-83496309D01*
X158781673Y-83729698D01*
X158936597Y-83884623D01*
X158935414Y-83885414D01*
X158740873Y-84176564D01*
X158672560Y-84519999D01*
X158672560Y-85170001D01*
X158740873Y-85513436D01*
X158935414Y-85804586D01*
X159226564Y-85999127D01*
X159260000Y-86005778D01*
X159260000Y-86175091D01*
X159093847Y-86243914D01*
X158633914Y-86703847D01*
X158385000Y-87304778D01*
X150744440Y-87304778D01*
X150744440Y-85820000D01*
X150695157Y-85572235D01*
X150554809Y-85362191D01*
X150344765Y-85221843D01*
X150097000Y-85172560D01*
X147097000Y-85172560D01*
X146849235Y-85221843D01*
X146639191Y-85362191D01*
X146498843Y-85572235D01*
X146449560Y-85820000D01*
X142031517Y-85820000D01*
X142054586Y-85804586D01*
X142249127Y-85513436D01*
X142317440Y-85170001D01*
X142317440Y-84519999D01*
X142249127Y-84176564D01*
X142054586Y-83885414D01*
X142053403Y-83884623D01*
X142208327Y-83729698D01*
X142305000Y-83496309D01*
X142305000Y-83080750D01*
X142146250Y-82922000D01*
X141097000Y-82922000D01*
X141097000Y-82942000D01*
X140843000Y-82942000D01*
X140843000Y-82922000D01*
X139793750Y-82922000D01*
X139635000Y-83080750D01*
X139635000Y-83496309D01*
X139731673Y-83729698D01*
X139886597Y-83884623D01*
X139885414Y-83885414D01*
X139690873Y-84176564D01*
X139622560Y-84519999D01*
X139622560Y-85170001D01*
X139690873Y-85513436D01*
X139885414Y-85804586D01*
X140176564Y-85999127D01*
X140210000Y-86005778D01*
X140210001Y-88522560D01*
X140097000Y-88522560D01*
X139849235Y-88571843D01*
X139639191Y-88712191D01*
X139498843Y-88922235D01*
X139449560Y-89170000D01*
X139449560Y-91170000D01*
X139498843Y-91417765D01*
X139639191Y-91627809D01*
X139751745Y-91703016D01*
X139710914Y-91743847D01*
X139462000Y-92344778D01*
X139462000Y-92995222D01*
X139710914Y-93596153D01*
X140034761Y-93920000D01*
X139710914Y-94243847D01*
X139507472Y-94735000D01*
X138377946Y-94735000D01*
X138244586Y-94535414D01*
X137953436Y-94340873D01*
X137610001Y-94272560D01*
X136709999Y-94272560D01*
X136366564Y-94340873D01*
X136075414Y-94535414D01*
X135880873Y-94826564D01*
X135812560Y-95169999D01*
X127886082Y-95169999D01*
X128271645Y-94746924D01*
X128441476Y-94336890D01*
X128320155Y-94107000D01*
X127127000Y-94107000D01*
X126873000Y-94107000D01*
X126853000Y-94107000D01*
X126853000Y-93853000D01*
X126873000Y-93853000D01*
X126873000Y-93833000D01*
X127127000Y-93833000D01*
X127127000Y-93853000D01*
X128320155Y-93853000D01*
X128441476Y-93623110D01*
X128271645Y-93213076D01*
X127881358Y-92784817D01*
X127751522Y-92723843D01*
X128070625Y-92510625D01*
X128398839Y-92019418D01*
X128441533Y-91804778D01*
X129175000Y-91804778D01*
X129175000Y-92455222D01*
X129423914Y-93056153D01*
X129883847Y-93516086D01*
X130484778Y-93765000D01*
X131135222Y-93765000D01*
X131736153Y-93516086D01*
X132196086Y-93056153D01*
X132445000Y-92455222D01*
X132445000Y-91804778D01*
X135675000Y-91804778D01*
X135675000Y-92455222D01*
X135923914Y-93056153D01*
X136383847Y-93516086D01*
X136984778Y-93765000D01*
X137635222Y-93765000D01*
X138236153Y-93516086D01*
X138696086Y-93056153D01*
X138945000Y-92455222D01*
X138945000Y-91804778D01*
X138696086Y-91203847D01*
X138236153Y-90743914D01*
X137635222Y-90495000D01*
X136984778Y-90495000D01*
X136383847Y-90743914D01*
X135923914Y-91203847D01*
X135675000Y-91804778D01*
X132445000Y-91804778D01*
X132196086Y-91203847D01*
X131736153Y-90743914D01*
X131135222Y-90495000D01*
X130484778Y-90495000D01*
X129883847Y-90743914D01*
X129423914Y-91203847D01*
X129175000Y-91804778D01*
X128441533Y-91804778D01*
X128514092Y-91440000D01*
X128398839Y-90860582D01*
X128070625Y-90369375D01*
X127772239Y-90170000D01*
X128070625Y-89970625D01*
X128398839Y-89479418D01*
X128514092Y-88900000D01*
X128398839Y-88320582D01*
X128070625Y-87829375D01*
X128052381Y-87817184D01*
X128097765Y-87808157D01*
X128307809Y-87667809D01*
X128448157Y-87457765D01*
X128478587Y-87304778D01*
X129175000Y-87304778D01*
X129175000Y-87955222D01*
X129423914Y-88556153D01*
X129883847Y-89016086D01*
X130484778Y-89265000D01*
X131135222Y-89265000D01*
X131736153Y-89016086D01*
X132196086Y-88556153D01*
X132445000Y-87955222D01*
X132445000Y-87304778D01*
X135675000Y-87304778D01*
X135675000Y-87955222D01*
X135923914Y-88556153D01*
X136383847Y-89016086D01*
X136984778Y-89265000D01*
X137635222Y-89265000D01*
X138236153Y-89016086D01*
X138696086Y-88556153D01*
X138945000Y-87955222D01*
X138945000Y-87304778D01*
X138696086Y-86703847D01*
X138236153Y-86243914D01*
X137920000Y-86112959D01*
X137920000Y-86005778D01*
X137953436Y-85999127D01*
X138244586Y-85804586D01*
X138439127Y-85513436D01*
X138507440Y-85170001D01*
X138507440Y-84519999D01*
X138439127Y-84176564D01*
X138244586Y-83885414D01*
X138243403Y-83884623D01*
X138398327Y-83729698D01*
X138495000Y-83496309D01*
X138495000Y-83080750D01*
X138336250Y-82922000D01*
X137287000Y-82922000D01*
X137287000Y-82942000D01*
X137033000Y-82942000D01*
X137033000Y-82922000D01*
X135983750Y-82922000D01*
X135825000Y-83080750D01*
X135825000Y-83496309D01*
X135921673Y-83729698D01*
X136076597Y-83884623D01*
X136075414Y-83885414D01*
X135880873Y-84176564D01*
X135812560Y-84519999D01*
X135812560Y-85170001D01*
X135880873Y-85513436D01*
X136075414Y-85804586D01*
X136366564Y-85999127D01*
X136400000Y-86005778D01*
X136400001Y-86237223D01*
X136383847Y-86243914D01*
X135923914Y-86703847D01*
X135675000Y-87304778D01*
X132445000Y-87304778D01*
X132196086Y-86703847D01*
X131736153Y-86243914D01*
X131135222Y-85995000D01*
X130484778Y-85995000D01*
X129883847Y-86243914D01*
X129423914Y-86703847D01*
X129175000Y-87304778D01*
X128478587Y-87304778D01*
X128497440Y-87210000D01*
X128497440Y-85510000D01*
X128448157Y-85262235D01*
X128307809Y-85052191D01*
X128097765Y-84911843D01*
X127850000Y-84862560D01*
X126440000Y-84862560D01*
X126440000Y-82093691D01*
X135825000Y-82093691D01*
X135825000Y-82509250D01*
X135983750Y-82668000D01*
X137033000Y-82668000D01*
X137033000Y-81743750D01*
X137287000Y-81743750D01*
X137287000Y-82668000D01*
X138336250Y-82668000D01*
X138495000Y-82509250D01*
X138495000Y-82093691D01*
X139635000Y-82093691D01*
X139635000Y-82509250D01*
X139793750Y-82668000D01*
X140843000Y-82668000D01*
X140843000Y-81743750D01*
X141097000Y-81743750D01*
X141097000Y-82668000D01*
X142146250Y-82668000D01*
X142305000Y-82509250D01*
X142305000Y-82093691D01*
X142208327Y-81860302D01*
X142029699Y-81681673D01*
X141796310Y-81585000D01*
X141255750Y-81585000D01*
X141097000Y-81743750D01*
X140843000Y-81743750D01*
X140684250Y-81585000D01*
X140143690Y-81585000D01*
X139910301Y-81681673D01*
X139731673Y-81860302D01*
X139635000Y-82093691D01*
X138495000Y-82093691D01*
X138398327Y-81860302D01*
X138219699Y-81681673D01*
X137986310Y-81585000D01*
X137445750Y-81585000D01*
X137287000Y-81743750D01*
X137033000Y-81743750D01*
X136874250Y-81585000D01*
X136333690Y-81585000D01*
X136100301Y-81681673D01*
X135921673Y-81860302D01*
X135825000Y-82093691D01*
X126440000Y-82093691D01*
X126440000Y-82060580D01*
X126498803Y-81649973D01*
X126537097Y-81565750D01*
X145785000Y-81565750D01*
X145785000Y-82306310D01*
X145881673Y-82539699D01*
X146060302Y-82718327D01*
X146293691Y-82815000D01*
X147034250Y-82815000D01*
X147193000Y-82656250D01*
X147193000Y-81407000D01*
X145943750Y-81407000D01*
X145785000Y-81565750D01*
X126537097Y-81565750D01*
X126649338Y-81318890D01*
X126886749Y-81043361D01*
X127191944Y-80845544D01*
X127563917Y-80734300D01*
X127756348Y-80720000D01*
X145357926Y-80720000D01*
X145565028Y-80678805D01*
X145785000Y-80531824D01*
X145785000Y-80994250D01*
X145943750Y-81153000D01*
X147193000Y-81153000D01*
X147193000Y-79903750D01*
X147034250Y-79745000D01*
X146293691Y-79745000D01*
X146200703Y-79783517D01*
X146222686Y-79740443D01*
X146594508Y-79281895D01*
X147053545Y-78910672D01*
X147579735Y-78642999D01*
X148150070Y-78490578D01*
X148739636Y-78460068D01*
X149322667Y-78552802D01*
X149322667Y-78552802D01*
G37*
X149322667Y-78552802D02*
X149873673Y-78764728D01*
X150368575Y-79086582D01*
X150785746Y-79504301D01*
X151117277Y-80015545D01*
X151211119Y-80226317D01*
X151223195Y-80287028D01*
X151380119Y-80521881D01*
X151614972Y-80678805D01*
X151822074Y-80720000D01*
X169399420Y-80720000D01*
X169810027Y-80778803D01*
X170141110Y-80929338D01*
X170416639Y-81166749D01*
X170614456Y-81471944D01*
X170725700Y-81843917D01*
X170740000Y-82036348D01*
X170740000Y-84862560D01*
X169330000Y-84862560D01*
X169082235Y-84911843D01*
X168872191Y-85052191D01*
X168731843Y-85262235D01*
X168682560Y-85510000D01*
X168682560Y-85600000D01*
X168199802Y-85600000D01*
X167717440Y-85117638D01*
X167717440Y-84519999D01*
X167649127Y-84176564D01*
X167454586Y-83885414D01*
X167356687Y-83820000D01*
X167454586Y-83754586D01*
X167649127Y-83463436D01*
X167717440Y-83120001D01*
X167717440Y-82469999D01*
X167649127Y-82126564D01*
X167454586Y-81835414D01*
X167163436Y-81640873D01*
X166820001Y-81572560D01*
X166222362Y-81572560D01*
X166060321Y-81410519D01*
X166017919Y-81347061D01*
X165766527Y-81179086D01*
X165544842Y-81134990D01*
X165544837Y-81134990D01*
X165469990Y-81120102D01*
X165395143Y-81134990D01*
X152062584Y-81134990D01*
X151723123Y-80795530D01*
X151680721Y-80732071D01*
X151429329Y-80564096D01*
X151207644Y-80520000D01*
X151207639Y-80520000D01*
X151206582Y-80519790D01*
X151161310Y-80410493D01*
X150729507Y-79978690D01*
X150165330Y-79745000D01*
X149554670Y-79745000D01*
X148990493Y-79978690D01*
X148814139Y-80155044D01*
X148758327Y-80020301D01*
X148579698Y-79841673D01*
X148346309Y-79745000D01*
X147605750Y-79745000D01*
X147447000Y-79903750D01*
X147447000Y-81153000D01*
X147467000Y-81153000D01*
X147467000Y-81407000D01*
X147447000Y-81407000D01*
X147447000Y-82656250D01*
X147605750Y-82815000D01*
X148346309Y-82815000D01*
X148579698Y-82718327D01*
X148758327Y-82539699D01*
X148814139Y-82404956D01*
X148990493Y-82581310D01*
X149554670Y-82815000D01*
X150165330Y-82815000D01*
X150729507Y-82581310D01*
X151044404Y-82266413D01*
X151157452Y-82379462D01*
X151199853Y-82442919D01*
X151451245Y-82610894D01*
X151672930Y-82654990D01*
X151672934Y-82654990D01*
X151747781Y-82669878D01*
X151822628Y-82654990D01*
X158830740Y-82654990D01*
X158843750Y-82668000D01*
X159893000Y-82668000D01*
X159893000Y-82654990D01*
X160147000Y-82654990D01*
X160147000Y-82668000D01*
X161196250Y-82668000D01*
X161209260Y-82654990D01*
X165022560Y-82654990D01*
X165022560Y-83120001D01*
X165090873Y-83463436D01*
X165285414Y-83754586D01*
X165383313Y-83820000D01*
X165285414Y-83885414D01*
X165090873Y-84176564D01*
X165022560Y-84519999D01*
X165022560Y-85170001D01*
X165090873Y-85513436D01*
X165285414Y-85804586D01*
X165576564Y-85999127D01*
X165919999Y-86067440D01*
X166019893Y-86067440D01*
X165593847Y-86243914D01*
X165133914Y-86703847D01*
X164885000Y-87304778D01*
X164885000Y-87955222D01*
X165133914Y-88556153D01*
X165593847Y-89016086D01*
X166194778Y-89265000D01*
X166845222Y-89265000D01*
X167446153Y-89016086D01*
X167906086Y-88556153D01*
X168155000Y-87955222D01*
X168155000Y-87304778D01*
X168078462Y-87120000D01*
X168682560Y-87120000D01*
X168682560Y-87210000D01*
X168731843Y-87457765D01*
X168872191Y-87667809D01*
X169082235Y-87808157D01*
X169127619Y-87817184D01*
X169109375Y-87829375D01*
X168781161Y-88320582D01*
X168665908Y-88900000D01*
X168781161Y-89479418D01*
X169109375Y-89970625D01*
X169407761Y-90170000D01*
X169109375Y-90369375D01*
X168781161Y-90860582D01*
X168665908Y-91440000D01*
X168781161Y-92019418D01*
X169109375Y-92510625D01*
X169407761Y-92710000D01*
X169109375Y-92909375D01*
X168781161Y-93400582D01*
X168665908Y-93980000D01*
X168781161Y-94559418D01*
X169109375Y-95050625D01*
X169600582Y-95378839D01*
X170033744Y-95465000D01*
X170326256Y-95465000D01*
X170740001Y-95382701D01*
X170740001Y-98279413D01*
X170681197Y-98690027D01*
X170530661Y-99021112D01*
X170293251Y-99296639D01*
X169988056Y-99494456D01*
X169616083Y-99605700D01*
X169423652Y-99620000D01*
X150724549Y-99620000D01*
X150744440Y-99520000D01*
X150744440Y-97830750D01*
X158685000Y-97830750D01*
X158685000Y-98246309D01*
X158781673Y-98479698D01*
X158960301Y-98658327D01*
X159193690Y-98755000D01*
X159734250Y-98755000D01*
X159893000Y-98596250D01*
X159893000Y-97672000D01*
X160147000Y-97672000D01*
X160147000Y-98596250D01*
X160305750Y-98755000D01*
X160846310Y-98755000D01*
X161079699Y-98658327D01*
X161258327Y-98479698D01*
X161355000Y-98246309D01*
X161355000Y-97830750D01*
X161196250Y-97672000D01*
X160147000Y-97672000D01*
X159893000Y-97672000D01*
X158843750Y-97672000D01*
X158685000Y-97830750D01*
X150744440Y-97830750D01*
X150744440Y-97020000D01*
X150695157Y-96772235D01*
X150554809Y-96562191D01*
X150344765Y-96421843D01*
X150097000Y-96372560D01*
X147097000Y-96372560D01*
X146849235Y-96421843D01*
X146639191Y-96562191D01*
X146498843Y-96772235D01*
X146449560Y-97020000D01*
X146449560Y-99520000D01*
X146469451Y-99620000D01*
X127780580Y-99620000D01*
X127369973Y-99561197D01*
X127038888Y-99410661D01*
X126763361Y-99173251D01*
X126565544Y-98868056D01*
X126454300Y-98496083D01*
X126440000Y-98303652D01*
X126440000Y-97830750D01*
X135825000Y-97830750D01*
X135825000Y-98246309D01*
X135921673Y-98479698D01*
X136100301Y-98658327D01*
X136333690Y-98755000D01*
X136874250Y-98755000D01*
X137033000Y-98596250D01*
X137033000Y-97672000D01*
X137287000Y-97672000D01*
X137287000Y-98596250D01*
X137445750Y-98755000D01*
X137986310Y-98755000D01*
X138219699Y-98658327D01*
X138398327Y-98479698D01*
X138495000Y-98246309D01*
X138495000Y-97830750D01*
X138336250Y-97672000D01*
X137287000Y-97672000D01*
X137033000Y-97672000D01*
X135983750Y-97672000D01*
X135825000Y-97830750D01*
X126440000Y-97830750D01*
X126440000Y-95326101D01*
X126643108Y-95421486D01*
X126873000Y-95300819D01*
X126873000Y-94107000D01*
X127127000Y-94107000D01*
X127127000Y-95300819D01*
X127356892Y-95421486D01*
X127881358Y-95175183D01*
X127886082Y-95169999D01*
X135812560Y-95169999D01*
X135812560Y-95820001D01*
X135880873Y-96163436D01*
X136075414Y-96454586D01*
X136076597Y-96455377D01*
X135921673Y-96610302D01*
X135825000Y-96843691D01*
X135825000Y-97259250D01*
X135983750Y-97418000D01*
X137033000Y-97418000D01*
X137033000Y-97398000D01*
X137287000Y-97398000D01*
X137287000Y-97418000D01*
X138336250Y-97418000D01*
X138495000Y-97259250D01*
X138495000Y-96843691D01*
X138398327Y-96610302D01*
X138243403Y-96455377D01*
X138244586Y-96454586D01*
X138377946Y-96255000D01*
X139869761Y-96255000D01*
X140170847Y-96556086D01*
X140771778Y-96805000D01*
X141422222Y-96805000D01*
X142023153Y-96556086D01*
X142483086Y-96096153D01*
X142732000Y-95495222D01*
X142732000Y-94844778D01*
X153962000Y-94844778D01*
X153962000Y-95495222D01*
X154210914Y-96096153D01*
X154670847Y-96556086D01*
X155271778Y-96805000D01*
X155922222Y-96805000D01*
X156523153Y-96556086D01*
X156824239Y-96255000D01*
X158802054Y-96255000D01*
X158935414Y-96454586D01*
X158936597Y-96455377D01*
X158781673Y-96610302D01*
X158685000Y-96843691D01*
X158685000Y-97259250D01*
X158843750Y-97418000D01*
X159893000Y-97418000D01*
X159893000Y-97398000D01*
X160147000Y-97398000D01*
X160147000Y-97418000D01*
X161196250Y-97418000D01*
X161355000Y-97259250D01*
X161355000Y-96843691D01*
X161258327Y-96610302D01*
X161103403Y-96455377D01*
X161104586Y-96454586D01*
X161299127Y-96163436D01*
X161367440Y-95820001D01*
X161367440Y-95169999D01*
X161299127Y-94826564D01*
X161104586Y-94535414D01*
X160813436Y-94340873D01*
X160470001Y-94272560D01*
X159569999Y-94272560D01*
X159226564Y-94340873D01*
X158935414Y-94535414D01*
X158802054Y-94735000D01*
X157186528Y-94735000D01*
X156983086Y-94243847D01*
X156523153Y-93783914D01*
X155922222Y-93535000D01*
X155271778Y-93535000D01*
X154670847Y-93783914D01*
X154210914Y-94243847D01*
X153962000Y-94844778D01*
X142732000Y-94844778D01*
X142483086Y-94243847D01*
X142159239Y-93920000D01*
X142483086Y-93596153D01*
X142732000Y-92995222D01*
X142732000Y-92344778D01*
X142483086Y-91743847D01*
X142442255Y-91703016D01*
X142554809Y-91627809D01*
X142695157Y-91417765D01*
X142744440Y-91170000D01*
X142744440Y-89844778D01*
X153962000Y-89844778D01*
X153962000Y-90495222D01*
X154210914Y-91096153D01*
X154670847Y-91556086D01*
X155271778Y-91805000D01*
X155922222Y-91805000D01*
X155922757Y-91804778D01*
X158385000Y-91804778D01*
X158385000Y-92455222D01*
X158633914Y-93056153D01*
X159093847Y-93516086D01*
X159694778Y-93765000D01*
X160345222Y-93765000D01*
X160946153Y-93516086D01*
X161406086Y-93056153D01*
X161655000Y-92455222D01*
X161655000Y-91804778D01*
X164885000Y-91804778D01*
X164885000Y-92455222D01*
X165133914Y-93056153D01*
X165593847Y-93516086D01*
X166194778Y-93765000D01*
X166845222Y-93765000D01*
X167446153Y-93516086D01*
X167906086Y-93056153D01*
X168155000Y-92455222D01*
X168155000Y-91804778D01*
X167906086Y-91203847D01*
X167446153Y-90743914D01*
X166845222Y-90495000D01*
X166194778Y-90495000D01*
X165593847Y-90743914D01*
X165133914Y-91203847D01*
X164885000Y-91804778D01*
X161655000Y-91804778D01*
X161406086Y-91203847D01*
X160946153Y-90743914D01*
X160345222Y-90495000D01*
X159694778Y-90495000D01*
X159093847Y-90743914D01*
X158633914Y-91203847D01*
X158385000Y-91804778D01*
X155922757Y-91804778D01*
X156523153Y-91556086D01*
X156983086Y-91096153D01*
X157232000Y-90495222D01*
X157232000Y-89844778D01*
X156983086Y-89243847D01*
X156523153Y-88783914D01*
X155922222Y-88535000D01*
X155271778Y-88535000D01*
X154670847Y-88783914D01*
X154210914Y-89243847D01*
X153962000Y-89844778D01*
X142744440Y-89844778D01*
X142744440Y-89170000D01*
X142695157Y-88922235D01*
X142554809Y-88712191D01*
X142344765Y-88571843D01*
X142097000Y-88522560D01*
X141730000Y-88522560D01*
X141730000Y-86005778D01*
X141763436Y-85999127D01*
X142031517Y-85820000D01*
X146449560Y-85820000D01*
X146449560Y-88320000D01*
X146498843Y-88567765D01*
X146639191Y-88777809D01*
X146849235Y-88918157D01*
X147097000Y-88967440D01*
X150097000Y-88967440D01*
X150344765Y-88918157D01*
X150554809Y-88777809D01*
X150695157Y-88567765D01*
X150744440Y-88320000D01*
X150744440Y-87304778D01*
X158385000Y-87304778D01*
X158385000Y-87955222D01*
X158633914Y-88556153D01*
X159093847Y-89016086D01*
X159694778Y-89265000D01*
X160345222Y-89265000D01*
X160946153Y-89016086D01*
X161406086Y-88556153D01*
X161655000Y-87955222D01*
X161655000Y-87304778D01*
X161406086Y-86703847D01*
X160946153Y-86243914D01*
X160780000Y-86175091D01*
X160780000Y-86005778D01*
X160813436Y-85999127D01*
X161104586Y-85804586D01*
X161299127Y-85513436D01*
X161367440Y-85170001D01*
X161367440Y-84519999D01*
X161299127Y-84176564D01*
X161104586Y-83885414D01*
X161103403Y-83884623D01*
X161258327Y-83729698D01*
X161355000Y-83496309D01*
X161355000Y-83080750D01*
X161196250Y-82922000D01*
X160147000Y-82922000D01*
X160147000Y-82942000D01*
X159893000Y-82942000D01*
X159893000Y-82922000D01*
X158843750Y-82922000D01*
X158685000Y-83080750D01*
X158685000Y-83496309D01*
X158781673Y-83729698D01*
X158936597Y-83884623D01*
X158935414Y-83885414D01*
X158740873Y-84176564D01*
X158672560Y-84519999D01*
X158672560Y-85170001D01*
X158740873Y-85513436D01*
X158935414Y-85804586D01*
X159226564Y-85999127D01*
X159260000Y-86005778D01*
X159260000Y-86175091D01*
X159093847Y-86243914D01*
X158633914Y-86703847D01*
X158385000Y-87304778D01*
X150744440Y-87304778D01*
X150744440Y-85820000D01*
X150695157Y-85572235D01*
X150554809Y-85362191D01*
X150344765Y-85221843D01*
X150097000Y-85172560D01*
X147097000Y-85172560D01*
X146849235Y-85221843D01*
X146639191Y-85362191D01*
X146498843Y-85572235D01*
X146449560Y-85820000D01*
X142031517Y-85820000D01*
X142054586Y-85804586D01*
X142249127Y-85513436D01*
X142317440Y-85170001D01*
X142317440Y-84519999D01*
X142249127Y-84176564D01*
X142054586Y-83885414D01*
X142053403Y-83884623D01*
X142208327Y-83729698D01*
X142305000Y-83496309D01*
X142305000Y-83080750D01*
X142146250Y-82922000D01*
X141097000Y-82922000D01*
X141097000Y-82942000D01*
X140843000Y-82942000D01*
X140843000Y-82922000D01*
X139793750Y-82922000D01*
X139635000Y-83080750D01*
X139635000Y-83496309D01*
X139731673Y-83729698D01*
X139886597Y-83884623D01*
X139885414Y-83885414D01*
X139690873Y-84176564D01*
X139622560Y-84519999D01*
X139622560Y-85170001D01*
X139690873Y-85513436D01*
X139885414Y-85804586D01*
X140176564Y-85999127D01*
X140210000Y-86005778D01*
X140210001Y-88522560D01*
X140097000Y-88522560D01*
X139849235Y-88571843D01*
X139639191Y-88712191D01*
X139498843Y-88922235D01*
X139449560Y-89170000D01*
X139449560Y-91170000D01*
X139498843Y-91417765D01*
X139639191Y-91627809D01*
X139751745Y-91703016D01*
X139710914Y-91743847D01*
X139462000Y-92344778D01*
X139462000Y-92995222D01*
X139710914Y-93596153D01*
X140034761Y-93920000D01*
X139710914Y-94243847D01*
X139507472Y-94735000D01*
X138377946Y-94735000D01*
X138244586Y-94535414D01*
X137953436Y-94340873D01*
X137610001Y-94272560D01*
X136709999Y-94272560D01*
X136366564Y-94340873D01*
X136075414Y-94535414D01*
X135880873Y-94826564D01*
X135812560Y-95169999D01*
X127886082Y-95169999D01*
X128271645Y-94746924D01*
X128441476Y-94336890D01*
X128320155Y-94107000D01*
X127127000Y-94107000D01*
X126873000Y-94107000D01*
X126853000Y-94107000D01*
X126853000Y-93853000D01*
X126873000Y-93853000D01*
X126873000Y-93833000D01*
X127127000Y-93833000D01*
X127127000Y-93853000D01*
X128320155Y-93853000D01*
X128441476Y-93623110D01*
X128271645Y-93213076D01*
X127881358Y-92784817D01*
X127751522Y-92723843D01*
X128070625Y-92510625D01*
X128398839Y-92019418D01*
X128441533Y-91804778D01*
X129175000Y-91804778D01*
X129175000Y-92455222D01*
X129423914Y-93056153D01*
X129883847Y-93516086D01*
X130484778Y-93765000D01*
X131135222Y-93765000D01*
X131736153Y-93516086D01*
X132196086Y-93056153D01*
X132445000Y-92455222D01*
X132445000Y-91804778D01*
X135675000Y-91804778D01*
X135675000Y-92455222D01*
X135923914Y-93056153D01*
X136383847Y-93516086D01*
X136984778Y-93765000D01*
X137635222Y-93765000D01*
X138236153Y-93516086D01*
X138696086Y-93056153D01*
X138945000Y-92455222D01*
X138945000Y-91804778D01*
X138696086Y-91203847D01*
X138236153Y-90743914D01*
X137635222Y-90495000D01*
X136984778Y-90495000D01*
X136383847Y-90743914D01*
X135923914Y-91203847D01*
X135675000Y-91804778D01*
X132445000Y-91804778D01*
X132196086Y-91203847D01*
X131736153Y-90743914D01*
X131135222Y-90495000D01*
X130484778Y-90495000D01*
X129883847Y-90743914D01*
X129423914Y-91203847D01*
X129175000Y-91804778D01*
X128441533Y-91804778D01*
X128514092Y-91440000D01*
X128398839Y-90860582D01*
X128070625Y-90369375D01*
X127772239Y-90170000D01*
X128070625Y-89970625D01*
X128398839Y-89479418D01*
X128514092Y-88900000D01*
X128398839Y-88320582D01*
X128070625Y-87829375D01*
X128052381Y-87817184D01*
X128097765Y-87808157D01*
X128307809Y-87667809D01*
X128448157Y-87457765D01*
X128478587Y-87304778D01*
X129175000Y-87304778D01*
X129175000Y-87955222D01*
X129423914Y-88556153D01*
X129883847Y-89016086D01*
X130484778Y-89265000D01*
X131135222Y-89265000D01*
X131736153Y-89016086D01*
X132196086Y-88556153D01*
X132445000Y-87955222D01*
X132445000Y-87304778D01*
X135675000Y-87304778D01*
X135675000Y-87955222D01*
X135923914Y-88556153D01*
X136383847Y-89016086D01*
X136984778Y-89265000D01*
X137635222Y-89265000D01*
X138236153Y-89016086D01*
X138696086Y-88556153D01*
X138945000Y-87955222D01*
X138945000Y-87304778D01*
X138696086Y-86703847D01*
X138236153Y-86243914D01*
X137920000Y-86112959D01*
X137920000Y-86005778D01*
X137953436Y-85999127D01*
X138244586Y-85804586D01*
X138439127Y-85513436D01*
X138507440Y-85170001D01*
X138507440Y-84519999D01*
X138439127Y-84176564D01*
X138244586Y-83885414D01*
X138243403Y-83884623D01*
X138398327Y-83729698D01*
X138495000Y-83496309D01*
X138495000Y-83080750D01*
X138336250Y-82922000D01*
X137287000Y-82922000D01*
X137287000Y-82942000D01*
X137033000Y-82942000D01*
X137033000Y-82922000D01*
X135983750Y-82922000D01*
X135825000Y-83080750D01*
X135825000Y-83496309D01*
X135921673Y-83729698D01*
X136076597Y-83884623D01*
X136075414Y-83885414D01*
X135880873Y-84176564D01*
X135812560Y-84519999D01*
X135812560Y-85170001D01*
X135880873Y-85513436D01*
X136075414Y-85804586D01*
X136366564Y-85999127D01*
X136400000Y-86005778D01*
X136400001Y-86237223D01*
X136383847Y-86243914D01*
X135923914Y-86703847D01*
X135675000Y-87304778D01*
X132445000Y-87304778D01*
X132196086Y-86703847D01*
X131736153Y-86243914D01*
X131135222Y-85995000D01*
X130484778Y-85995000D01*
X129883847Y-86243914D01*
X129423914Y-86703847D01*
X129175000Y-87304778D01*
X128478587Y-87304778D01*
X128497440Y-87210000D01*
X128497440Y-85510000D01*
X128448157Y-85262235D01*
X128307809Y-85052191D01*
X128097765Y-84911843D01*
X127850000Y-84862560D01*
X126440000Y-84862560D01*
X126440000Y-82093691D01*
X135825000Y-82093691D01*
X135825000Y-82509250D01*
X135983750Y-82668000D01*
X137033000Y-82668000D01*
X137033000Y-81743750D01*
X137287000Y-81743750D01*
X137287000Y-82668000D01*
X138336250Y-82668000D01*
X138495000Y-82509250D01*
X138495000Y-82093691D01*
X139635000Y-82093691D01*
X139635000Y-82509250D01*
X139793750Y-82668000D01*
X140843000Y-82668000D01*
X140843000Y-81743750D01*
X141097000Y-81743750D01*
X141097000Y-82668000D01*
X142146250Y-82668000D01*
X142305000Y-82509250D01*
X142305000Y-82093691D01*
X142208327Y-81860302D01*
X142029699Y-81681673D01*
X141796310Y-81585000D01*
X141255750Y-81585000D01*
X141097000Y-81743750D01*
X140843000Y-81743750D01*
X140684250Y-81585000D01*
X140143690Y-81585000D01*
X139910301Y-81681673D01*
X139731673Y-81860302D01*
X139635000Y-82093691D01*
X138495000Y-82093691D01*
X138398327Y-81860302D01*
X138219699Y-81681673D01*
X137986310Y-81585000D01*
X137445750Y-81585000D01*
X137287000Y-81743750D01*
X137033000Y-81743750D01*
X136874250Y-81585000D01*
X136333690Y-81585000D01*
X136100301Y-81681673D01*
X135921673Y-81860302D01*
X135825000Y-82093691D01*
X126440000Y-82093691D01*
X126440000Y-82060580D01*
X126498803Y-81649973D01*
X126537097Y-81565750D01*
X145785000Y-81565750D01*
X145785000Y-82306310D01*
X145881673Y-82539699D01*
X146060302Y-82718327D01*
X146293691Y-82815000D01*
X147034250Y-82815000D01*
X147193000Y-82656250D01*
X147193000Y-81407000D01*
X145943750Y-81407000D01*
X145785000Y-81565750D01*
X126537097Y-81565750D01*
X126649338Y-81318890D01*
X126886749Y-81043361D01*
X127191944Y-80845544D01*
X127563917Y-80734300D01*
X127756348Y-80720000D01*
X145357926Y-80720000D01*
X145565028Y-80678805D01*
X145785000Y-80531824D01*
X145785000Y-80994250D01*
X145943750Y-81153000D01*
X147193000Y-81153000D01*
X147193000Y-79903750D01*
X147034250Y-79745000D01*
X146293691Y-79745000D01*
X146200703Y-79783517D01*
X146222686Y-79740443D01*
X146594508Y-79281895D01*
X147053545Y-78910672D01*
X147579735Y-78642999D01*
X148150070Y-78490578D01*
X148739636Y-78460068D01*
X149322667Y-78552802D01*
G04 #@! TD*
M02*
