G04 #@! TF.GenerationSoftware,KiCad,Pcbnew,(5.0.2-5)-5*
G04 #@! TF.CreationDate,2019-09-23T09:23:56+03:00*
G04 #@! TF.ProjectId,digi_pot,64696769-5f70-46f7-942e-6b696361645f,rev?*
G04 #@! TF.SameCoordinates,Original*
G04 #@! TF.FileFunction,Legend,Bot*
G04 #@! TF.FilePolarity,Positive*
%FSLAX46Y46*%
G04 Gerber Fmt 4.6, Leading zero omitted, Abs format (unit mm)*
G04 Created by KiCad (PCBNEW (5.0.2-5)-5) date 2019 September 23, Monday 09:23:56*
%MOMM*%
%LPD*%
G01*
G04 APERTURE LIST*
%ADD10C,0.100000*%
%ADD11C,0.300000*%
%ADD12C,0.120000*%
%ADD13C,0.150000*%
G04 APERTURE END LIST*
D10*
X143935142Y-105646571D02*
X143906571Y-105618000D01*
X143849428Y-105589428D01*
X143706571Y-105589428D01*
X143649428Y-105618000D01*
X143620857Y-105646571D01*
X143592285Y-105703714D01*
X143592285Y-105760857D01*
X143620857Y-105846571D01*
X143963714Y-106189428D01*
X143592285Y-106189428D01*
X143220857Y-105589428D02*
X143163714Y-105589428D01*
X143106571Y-105618000D01*
X143078000Y-105646571D01*
X143049428Y-105703714D01*
X143020857Y-105818000D01*
X143020857Y-105960857D01*
X143049428Y-106075142D01*
X143078000Y-106132285D01*
X143106571Y-106160857D01*
X143163714Y-106189428D01*
X143220857Y-106189428D01*
X143278000Y-106160857D01*
X143306571Y-106132285D01*
X143335142Y-106075142D01*
X143363714Y-105960857D01*
X143363714Y-105818000D01*
X143335142Y-105703714D01*
X143306571Y-105646571D01*
X143278000Y-105618000D01*
X143220857Y-105589428D01*
X142449428Y-106189428D02*
X142792285Y-106189428D01*
X142620857Y-106189428D02*
X142620857Y-105589428D01*
X142678000Y-105675142D01*
X142735142Y-105732285D01*
X142792285Y-105760857D01*
X142163714Y-106189428D02*
X142049428Y-106189428D01*
X141992285Y-106160857D01*
X141963714Y-106132285D01*
X141906571Y-106046571D01*
X141878000Y-105932285D01*
X141878000Y-105703714D01*
X141906571Y-105646571D01*
X141935142Y-105618000D01*
X141992285Y-105589428D01*
X142106571Y-105589428D01*
X142163714Y-105618000D01*
X142192285Y-105646571D01*
X142220857Y-105703714D01*
X142220857Y-105846571D01*
X142192285Y-105903714D01*
X142163714Y-105932285D01*
X142106571Y-105960857D01*
X141992285Y-105960857D01*
X141935142Y-105932285D01*
X141906571Y-105903714D01*
X141878000Y-105846571D01*
X141620857Y-106132285D02*
X141592285Y-106160857D01*
X141620857Y-106189428D01*
X141649428Y-106160857D01*
X141620857Y-106132285D01*
X141620857Y-106189428D01*
X141220857Y-105589428D02*
X141163714Y-105589428D01*
X141106571Y-105618000D01*
X141078000Y-105646571D01*
X141049428Y-105703714D01*
X141020857Y-105818000D01*
X141020857Y-105960857D01*
X141049428Y-106075142D01*
X141078000Y-106132285D01*
X141106571Y-106160857D01*
X141163714Y-106189428D01*
X141220857Y-106189428D01*
X141278000Y-106160857D01*
X141306571Y-106132285D01*
X141335142Y-106075142D01*
X141363714Y-105960857D01*
X141363714Y-105818000D01*
X141335142Y-105703714D01*
X141306571Y-105646571D01*
X141278000Y-105618000D01*
X141220857Y-105589428D01*
X140735142Y-106189428D02*
X140620857Y-106189428D01*
X140563714Y-106160857D01*
X140535142Y-106132285D01*
X140478000Y-106046571D01*
X140449428Y-105932285D01*
X140449428Y-105703714D01*
X140478000Y-105646571D01*
X140506571Y-105618000D01*
X140563714Y-105589428D01*
X140678000Y-105589428D01*
X140735142Y-105618000D01*
X140763714Y-105646571D01*
X140792285Y-105703714D01*
X140792285Y-105846571D01*
X140763714Y-105903714D01*
X140735142Y-105932285D01*
X140678000Y-105960857D01*
X140563714Y-105960857D01*
X140506571Y-105932285D01*
X140478000Y-105903714D01*
X140449428Y-105846571D01*
X140192285Y-106132285D02*
X140163714Y-106160857D01*
X140192285Y-106189428D01*
X140220857Y-106160857D01*
X140192285Y-106132285D01*
X140192285Y-106189428D01*
X139935142Y-105646571D02*
X139906571Y-105618000D01*
X139849428Y-105589428D01*
X139706571Y-105589428D01*
X139649428Y-105618000D01*
X139620857Y-105646571D01*
X139592285Y-105703714D01*
X139592285Y-105760857D01*
X139620857Y-105846571D01*
X139963714Y-106189428D01*
X139592285Y-106189428D01*
X139392285Y-105589428D02*
X139020857Y-105589428D01*
X139220857Y-105818000D01*
X139135142Y-105818000D01*
X139078000Y-105846571D01*
X139049428Y-105875142D01*
X139020857Y-105932285D01*
X139020857Y-106075142D01*
X139049428Y-106132285D01*
X139078000Y-106160857D01*
X139135142Y-106189428D01*
X139306571Y-106189428D01*
X139363714Y-106160857D01*
X139392285Y-106132285D01*
D11*
X155280857Y-106215571D02*
X155280857Y-104715571D01*
X154923714Y-104715571D01*
X154709428Y-104787000D01*
X154566571Y-104929857D01*
X154495142Y-105072714D01*
X154423714Y-105358428D01*
X154423714Y-105572714D01*
X154495142Y-105858428D01*
X154566571Y-106001285D01*
X154709428Y-106144142D01*
X154923714Y-106215571D01*
X155280857Y-106215571D01*
X153780857Y-106215571D02*
X153780857Y-105215571D01*
X153780857Y-104715571D02*
X153852285Y-104787000D01*
X153780857Y-104858428D01*
X153709428Y-104787000D01*
X153780857Y-104715571D01*
X153780857Y-104858428D01*
X152423714Y-105215571D02*
X152423714Y-106429857D01*
X152495142Y-106572714D01*
X152566571Y-106644142D01*
X152709428Y-106715571D01*
X152923714Y-106715571D01*
X153066571Y-106644142D01*
X152423714Y-106144142D02*
X152566571Y-106215571D01*
X152852285Y-106215571D01*
X152995142Y-106144142D01*
X153066571Y-106072714D01*
X153138000Y-105929857D01*
X153138000Y-105501285D01*
X153066571Y-105358428D01*
X152995142Y-105287000D01*
X152852285Y-105215571D01*
X152566571Y-105215571D01*
X152423714Y-105287000D01*
X151709428Y-106215571D02*
X151709428Y-105215571D01*
X151709428Y-104715571D02*
X151780857Y-104787000D01*
X151709428Y-104858428D01*
X151638000Y-104787000D01*
X151709428Y-104715571D01*
X151709428Y-104858428D01*
X150995142Y-106215571D02*
X150995142Y-104715571D01*
X150423714Y-104715571D01*
X150280857Y-104787000D01*
X150209428Y-104858428D01*
X150138000Y-105001285D01*
X150138000Y-105215571D01*
X150209428Y-105358428D01*
X150280857Y-105429857D01*
X150423714Y-105501285D01*
X150995142Y-105501285D01*
X149280857Y-106215571D02*
X149423714Y-106144142D01*
X149495142Y-106072714D01*
X149566571Y-105929857D01*
X149566571Y-105501285D01*
X149495142Y-105358428D01*
X149423714Y-105287000D01*
X149280857Y-105215571D01*
X149066571Y-105215571D01*
X148923714Y-105287000D01*
X148852285Y-105358428D01*
X148780857Y-105501285D01*
X148780857Y-105929857D01*
X148852285Y-106072714D01*
X148923714Y-106144142D01*
X149066571Y-106215571D01*
X149280857Y-106215571D01*
X148352285Y-105215571D02*
X147780857Y-105215571D01*
X148138000Y-104715571D02*
X148138000Y-106001285D01*
X148066571Y-106144142D01*
X147923714Y-106215571D01*
X147780857Y-106215571D01*
D10*
X160069380Y-105695714D02*
X160107476Y-105733809D01*
X160221761Y-105771904D01*
X160297952Y-105771904D01*
X160412238Y-105733809D01*
X160488428Y-105657619D01*
X160526523Y-105581428D01*
X160564619Y-105429047D01*
X160564619Y-105314761D01*
X160526523Y-105162380D01*
X160488428Y-105086190D01*
X160412238Y-105010000D01*
X160297952Y-104971904D01*
X160221761Y-104971904D01*
X160107476Y-105010000D01*
X160069380Y-105048095D01*
X159726523Y-105771904D02*
X159726523Y-104971904D01*
X159726523Y-105352857D02*
X159269380Y-105352857D01*
X159269380Y-105771904D02*
X159269380Y-104971904D01*
X158469380Y-105010000D02*
X158545571Y-104971904D01*
X158659857Y-104971904D01*
X158774142Y-105010000D01*
X158850333Y-105086190D01*
X158888428Y-105162380D01*
X158926523Y-105314761D01*
X158926523Y-105429047D01*
X158888428Y-105581428D01*
X158850333Y-105657619D01*
X158774142Y-105733809D01*
X158659857Y-105771904D01*
X158583666Y-105771904D01*
X158469380Y-105733809D01*
X158431285Y-105695714D01*
X158431285Y-105429047D01*
X158583666Y-105429047D01*
X160818619Y-101606333D02*
X160437666Y-101606333D01*
X160894809Y-101834904D02*
X160628142Y-101034904D01*
X160361476Y-101834904D01*
X160132904Y-101111095D02*
X160094809Y-101073000D01*
X160018619Y-101034904D01*
X159828142Y-101034904D01*
X159751952Y-101073000D01*
X159713857Y-101111095D01*
X159675761Y-101187285D01*
X159675761Y-101263476D01*
X159713857Y-101377761D01*
X160171000Y-101834904D01*
X159675761Y-101834904D01*
X160818619Y-99193333D02*
X160437666Y-99193333D01*
X160894809Y-99421904D02*
X160628142Y-98621904D01*
X160361476Y-99421904D01*
X159675761Y-99421904D02*
X160132904Y-99421904D01*
X159904333Y-99421904D02*
X159904333Y-98621904D01*
X159980523Y-98736190D01*
X160056714Y-98812380D01*
X160132904Y-98850476D01*
X160818619Y-96653333D02*
X160437666Y-96653333D01*
X160894809Y-96881904D02*
X160628142Y-96081904D01*
X160361476Y-96881904D01*
X159942428Y-96081904D02*
X159866238Y-96081904D01*
X159790047Y-96120000D01*
X159751952Y-96158095D01*
X159713857Y-96234285D01*
X159675761Y-96386666D01*
X159675761Y-96577142D01*
X159713857Y-96729523D01*
X159751952Y-96805714D01*
X159790047Y-96843809D01*
X159866238Y-96881904D01*
X159942428Y-96881904D01*
X160018619Y-96843809D01*
X160056714Y-96805714D01*
X160094809Y-96729523D01*
X160132904Y-96577142D01*
X160132904Y-96386666D01*
X160094809Y-96234285D01*
X160056714Y-96158095D01*
X160018619Y-96120000D01*
X159942428Y-96081904D01*
X160818619Y-94303809D02*
X160704333Y-94341904D01*
X160513857Y-94341904D01*
X160437666Y-94303809D01*
X160399571Y-94265714D01*
X160361476Y-94189523D01*
X160361476Y-94113333D01*
X160399571Y-94037142D01*
X160437666Y-93999047D01*
X160513857Y-93960952D01*
X160666238Y-93922857D01*
X160742428Y-93884761D01*
X160780523Y-93846666D01*
X160818619Y-93770476D01*
X160818619Y-93694285D01*
X160780523Y-93618095D01*
X160742428Y-93580000D01*
X160666238Y-93541904D01*
X160475761Y-93541904D01*
X160361476Y-93580000D01*
X159561476Y-94265714D02*
X159599571Y-94303809D01*
X159713857Y-94341904D01*
X159790047Y-94341904D01*
X159904333Y-94303809D01*
X159980523Y-94227619D01*
X160018619Y-94151428D01*
X160056714Y-93999047D01*
X160056714Y-93884761D01*
X160018619Y-93732380D01*
X159980523Y-93656190D01*
X159904333Y-93580000D01*
X159790047Y-93541904D01*
X159713857Y-93541904D01*
X159599571Y-93580000D01*
X159561476Y-93618095D01*
X158837666Y-94341904D02*
X159218619Y-94341904D01*
X159218619Y-93541904D01*
X160818619Y-91890809D02*
X160704333Y-91928904D01*
X160513857Y-91928904D01*
X160437666Y-91890809D01*
X160399571Y-91852714D01*
X160361476Y-91776523D01*
X160361476Y-91700333D01*
X160399571Y-91624142D01*
X160437666Y-91586047D01*
X160513857Y-91547952D01*
X160666238Y-91509857D01*
X160742428Y-91471761D01*
X160780523Y-91433666D01*
X160818619Y-91357476D01*
X160818619Y-91281285D01*
X160780523Y-91205095D01*
X160742428Y-91167000D01*
X160666238Y-91128904D01*
X160475761Y-91128904D01*
X160361476Y-91167000D01*
X160018619Y-91928904D02*
X160018619Y-91128904D01*
X159828142Y-91128904D01*
X159713857Y-91167000D01*
X159637666Y-91243190D01*
X159599571Y-91319380D01*
X159561476Y-91471761D01*
X159561476Y-91586047D01*
X159599571Y-91738428D01*
X159637666Y-91814619D01*
X159713857Y-91890809D01*
X159828142Y-91928904D01*
X160018619Y-91928904D01*
X159256714Y-91700333D02*
X158875761Y-91700333D01*
X159332904Y-91928904D02*
X159066238Y-91128904D01*
X158799571Y-91928904D01*
X138291523Y-103701904D02*
X138024857Y-104501904D01*
X137758190Y-103701904D01*
X137034380Y-104425714D02*
X137072476Y-104463809D01*
X137186761Y-104501904D01*
X137262952Y-104501904D01*
X137377238Y-104463809D01*
X137453428Y-104387619D01*
X137491523Y-104311428D01*
X137529619Y-104159047D01*
X137529619Y-104044761D01*
X137491523Y-103892380D01*
X137453428Y-103816190D01*
X137377238Y-103740000D01*
X137262952Y-103701904D01*
X137186761Y-103701904D01*
X137072476Y-103740000D01*
X137034380Y-103778095D01*
X136234380Y-104425714D02*
X136272476Y-104463809D01*
X136386761Y-104501904D01*
X136462952Y-104501904D01*
X136577238Y-104463809D01*
X136653428Y-104387619D01*
X136691523Y-104311428D01*
X136729619Y-104159047D01*
X136729619Y-104044761D01*
X136691523Y-103892380D01*
X136653428Y-103816190D01*
X136577238Y-103740000D01*
X136462952Y-103701904D01*
X136386761Y-103701904D01*
X136272476Y-103740000D01*
X136234380Y-103778095D01*
X137910571Y-101327000D02*
X137986761Y-101288904D01*
X138101047Y-101288904D01*
X138215333Y-101327000D01*
X138291523Y-101403190D01*
X138329619Y-101479380D01*
X138367714Y-101631761D01*
X138367714Y-101746047D01*
X138329619Y-101898428D01*
X138291523Y-101974619D01*
X138215333Y-102050809D01*
X138101047Y-102088904D01*
X138024857Y-102088904D01*
X137910571Y-102050809D01*
X137872476Y-102012714D01*
X137872476Y-101746047D01*
X138024857Y-101746047D01*
X137529619Y-102088904D02*
X137529619Y-101288904D01*
X137072476Y-102088904D01*
X137072476Y-101288904D01*
X136691523Y-102088904D02*
X136691523Y-101288904D01*
X136501047Y-101288904D01*
X136386761Y-101327000D01*
X136310571Y-101403190D01*
X136272476Y-101479380D01*
X136234380Y-101631761D01*
X136234380Y-101746047D01*
X136272476Y-101898428D01*
X136310571Y-101974619D01*
X136386761Y-102050809D01*
X136501047Y-102088904D01*
X136691523Y-102088904D01*
X137605809Y-99548904D02*
X137872476Y-99167952D01*
X138062952Y-99548904D02*
X138062952Y-98748904D01*
X137758190Y-98748904D01*
X137682000Y-98787000D01*
X137643904Y-98825095D01*
X137605809Y-98901285D01*
X137605809Y-99015571D01*
X137643904Y-99091761D01*
X137682000Y-99129857D01*
X137758190Y-99167952D01*
X138062952Y-99167952D01*
X137301047Y-99510809D02*
X137186761Y-99548904D01*
X136996285Y-99548904D01*
X136920095Y-99510809D01*
X136882000Y-99472714D01*
X136843904Y-99396523D01*
X136843904Y-99320333D01*
X136882000Y-99244142D01*
X136920095Y-99206047D01*
X136996285Y-99167952D01*
X137148666Y-99129857D01*
X137224857Y-99091761D01*
X137262952Y-99053666D01*
X137301047Y-98977476D01*
X137301047Y-98901285D01*
X137262952Y-98825095D01*
X137224857Y-98787000D01*
X137148666Y-98748904D01*
X136958190Y-98748904D01*
X136843904Y-98787000D01*
X136615333Y-98748904D02*
X136158190Y-98748904D01*
X136386761Y-99548904D02*
X136386761Y-98748904D01*
X138291523Y-96843809D02*
X138177238Y-96881904D01*
X137986761Y-96881904D01*
X137910571Y-96843809D01*
X137872476Y-96805714D01*
X137834380Y-96729523D01*
X137834380Y-96653333D01*
X137872476Y-96577142D01*
X137910571Y-96539047D01*
X137986761Y-96500952D01*
X138139142Y-96462857D01*
X138215333Y-96424761D01*
X138253428Y-96386666D01*
X138291523Y-96310476D01*
X138291523Y-96234285D01*
X138253428Y-96158095D01*
X138215333Y-96120000D01*
X138139142Y-96081904D01*
X137948666Y-96081904D01*
X137834380Y-96120000D01*
X137034380Y-96805714D02*
X137072476Y-96843809D01*
X137186761Y-96881904D01*
X137262952Y-96881904D01*
X137377238Y-96843809D01*
X137453428Y-96767619D01*
X137491523Y-96691428D01*
X137529619Y-96539047D01*
X137529619Y-96424761D01*
X137491523Y-96272380D01*
X137453428Y-96196190D01*
X137377238Y-96120000D01*
X137262952Y-96081904D01*
X137186761Y-96081904D01*
X137072476Y-96120000D01*
X137034380Y-96158095D01*
X136691523Y-96881904D02*
X136691523Y-96081904D01*
X136234380Y-96881904D02*
X136577238Y-96424761D01*
X136234380Y-96081904D02*
X136691523Y-96539047D01*
X138786761Y-94468904D02*
X138786761Y-93668904D01*
X138520095Y-94240333D01*
X138253428Y-93668904D01*
X138253428Y-94468904D01*
X137720095Y-93668904D02*
X137567714Y-93668904D01*
X137491523Y-93707000D01*
X137415333Y-93783190D01*
X137377238Y-93935571D01*
X137377238Y-94202238D01*
X137415333Y-94354619D01*
X137491523Y-94430809D01*
X137567714Y-94468904D01*
X137720095Y-94468904D01*
X137796285Y-94430809D01*
X137872476Y-94354619D01*
X137910571Y-94202238D01*
X137910571Y-93935571D01*
X137872476Y-93783190D01*
X137796285Y-93707000D01*
X137720095Y-93668904D01*
X137072476Y-94430809D02*
X136958190Y-94468904D01*
X136767714Y-94468904D01*
X136691523Y-94430809D01*
X136653428Y-94392714D01*
X136615333Y-94316523D01*
X136615333Y-94240333D01*
X136653428Y-94164142D01*
X136691523Y-94126047D01*
X136767714Y-94087952D01*
X136920095Y-94049857D01*
X136996285Y-94011761D01*
X137034380Y-93973666D01*
X137072476Y-93897476D01*
X137072476Y-93821285D01*
X137034380Y-93745095D01*
X136996285Y-93707000D01*
X136920095Y-93668904D01*
X136729619Y-93668904D01*
X136615333Y-93707000D01*
X136272476Y-94468904D02*
X136272476Y-93668904D01*
X138786761Y-91928904D02*
X138786761Y-91128904D01*
X138520095Y-91700333D01*
X138253428Y-91128904D01*
X138253428Y-91928904D01*
X137872476Y-91928904D02*
X137872476Y-91128904D01*
X137529619Y-91890809D02*
X137415333Y-91928904D01*
X137224857Y-91928904D01*
X137148666Y-91890809D01*
X137110571Y-91852714D01*
X137072476Y-91776523D01*
X137072476Y-91700333D01*
X137110571Y-91624142D01*
X137148666Y-91586047D01*
X137224857Y-91547952D01*
X137377238Y-91509857D01*
X137453428Y-91471761D01*
X137491523Y-91433666D01*
X137529619Y-91357476D01*
X137529619Y-91281285D01*
X137491523Y-91205095D01*
X137453428Y-91167000D01*
X137377238Y-91128904D01*
X137186761Y-91128904D01*
X137072476Y-91167000D01*
X136577238Y-91128904D02*
X136424857Y-91128904D01*
X136348666Y-91167000D01*
X136272476Y-91243190D01*
X136234380Y-91395571D01*
X136234380Y-91662238D01*
X136272476Y-91814619D01*
X136348666Y-91890809D01*
X136424857Y-91928904D01*
X136577238Y-91928904D01*
X136653428Y-91890809D01*
X136729619Y-91814619D01*
X136767714Y-91662238D01*
X136767714Y-91395571D01*
X136729619Y-91243190D01*
X136653428Y-91167000D01*
X136577238Y-91128904D01*
D12*
G04 #@! TO.C,R4*
X157405000Y-98686252D02*
X157405000Y-98163748D01*
X158825000Y-98686252D02*
X158825000Y-98163748D01*
D13*
G04 #@! TO.C,U1*
X150310000Y-81465000D02*
X150310000Y-81690000D01*
X143060000Y-81465000D02*
X143060000Y-81790000D01*
X143060000Y-88715000D02*
X143060000Y-88390000D01*
X150310000Y-88715000D02*
X150310000Y-88390000D01*
X150310000Y-81465000D02*
X149985000Y-81465000D01*
X150310000Y-88715000D02*
X149985000Y-88715000D01*
X143060000Y-88715000D02*
X143385000Y-88715000D01*
X143060000Y-81465000D02*
X143385000Y-81465000D01*
X150310000Y-81690000D02*
X151735000Y-81690000D01*
D12*
G04 #@! TO.C,J2*
X133290000Y-90110000D02*
X135950000Y-90110000D01*
X133290000Y-102870000D02*
X133290000Y-90110000D01*
X135950000Y-102870000D02*
X135950000Y-90110000D01*
X133290000Y-102870000D02*
X135950000Y-102870000D01*
X133290000Y-104140000D02*
X133290000Y-105470000D01*
X133290000Y-105470000D02*
X134620000Y-105470000D01*
G04 #@! TO.C,J3*
X135950000Y-87690000D02*
X133290000Y-87690000D01*
X135950000Y-82550000D02*
X135950000Y-87690000D01*
X133290000Y-82550000D02*
X133290000Y-87690000D01*
X135950000Y-82550000D02*
X133290000Y-82550000D01*
X135950000Y-81280000D02*
X135950000Y-79950000D01*
X135950000Y-79950000D02*
X134620000Y-79950000D01*
G04 #@! TO.C,J4*
X163890000Y-79950000D02*
X162560000Y-79950000D01*
X163890000Y-81280000D02*
X163890000Y-79950000D01*
X163890000Y-82550000D02*
X161230000Y-82550000D01*
X161230000Y-82550000D02*
X161230000Y-87690000D01*
X163890000Y-82550000D02*
X163890000Y-87690000D01*
X163890000Y-87690000D02*
X161230000Y-87690000D01*
G04 #@! TO.C,R1*
X142442000Y-98686252D02*
X142442000Y-98163748D01*
X141022000Y-98686252D02*
X141022000Y-98163748D01*
G04 #@! TO.C,R2*
X153722000Y-98686252D02*
X153722000Y-98163748D01*
X155142000Y-98686252D02*
X155142000Y-98163748D01*
G04 #@! TO.C,R3*
X156920000Y-98686252D02*
X156920000Y-98163748D01*
X155500000Y-98686252D02*
X155500000Y-98163748D01*
G04 #@! TO.C,C1*
X159841000Y-84828748D02*
X159841000Y-85351252D01*
X158421000Y-84828748D02*
X158421000Y-85351252D01*
G04 #@! TO.C,R5*
X151391252Y-96445000D02*
X150868748Y-96445000D01*
X151391252Y-97865000D02*
X150868748Y-97865000D01*
G04 #@! TO.C,R6*
X145788748Y-96445000D02*
X146311252Y-96445000D01*
X145788748Y-97865000D02*
X146311252Y-97865000D01*
G04 #@! TO.C,C3*
X138691252Y-85015000D02*
X138168748Y-85015000D01*
X138691252Y-86435000D02*
X138168748Y-86435000D01*
G04 #@! TO.C,J5*
X163890000Y-105470000D02*
X161230000Y-105470000D01*
X163890000Y-92710000D02*
X163890000Y-105470000D01*
X161230000Y-92710000D02*
X161230000Y-105470000D01*
X163890000Y-92710000D02*
X161230000Y-92710000D01*
X163890000Y-91440000D02*
X163890000Y-90110000D01*
X163890000Y-90110000D02*
X162560000Y-90110000D01*
G04 #@! TO.C,R7*
X157555000Y-81653748D02*
X157555000Y-82176252D01*
X156135000Y-81653748D02*
X156135000Y-82176252D01*
G04 #@! TO.C,R8*
X153595000Y-81653748D02*
X153595000Y-82176252D01*
X155015000Y-81653748D02*
X155015000Y-82176252D01*
G04 #@! TO.C,R9*
X156135000Y-89161252D02*
X156135000Y-88638748D01*
X157555000Y-89161252D02*
X157555000Y-88638748D01*
G04 #@! TO.C,R10*
X155015000Y-89161252D02*
X155015000Y-88638748D01*
X153595000Y-89161252D02*
X153595000Y-88638748D01*
G04 #@! TO.C,R4*
D10*
X158857904Y-100704666D02*
X158476952Y-100438000D01*
X158857904Y-100247523D02*
X158057904Y-100247523D01*
X158057904Y-100552285D01*
X158096000Y-100628476D01*
X158134095Y-100666571D01*
X158210285Y-100704666D01*
X158324571Y-100704666D01*
X158400761Y-100666571D01*
X158438857Y-100628476D01*
X158476952Y-100552285D01*
X158476952Y-100247523D01*
X158324571Y-101390380D02*
X158857904Y-101390380D01*
X158019809Y-101199904D02*
X158591238Y-101009428D01*
X158591238Y-101504666D01*
X157970571Y-95015142D02*
X157942000Y-95043714D01*
X157913428Y-95100857D01*
X157913428Y-95243714D01*
X157942000Y-95300857D01*
X157970571Y-95329428D01*
X158027714Y-95358000D01*
X158084857Y-95358000D01*
X158170571Y-95329428D01*
X158513428Y-94986571D01*
X158513428Y-95358000D01*
X157970571Y-95586571D02*
X157942000Y-95615142D01*
X157913428Y-95672285D01*
X157913428Y-95815142D01*
X157942000Y-95872285D01*
X157970571Y-95900857D01*
X158027714Y-95929428D01*
X158084857Y-95929428D01*
X158170571Y-95900857D01*
X158513428Y-95558000D01*
X158513428Y-95929428D01*
X157913428Y-96300857D02*
X157913428Y-96358000D01*
X157942000Y-96415142D01*
X157970571Y-96443714D01*
X158027714Y-96472285D01*
X158142000Y-96500857D01*
X158284857Y-96500857D01*
X158399142Y-96472285D01*
X158456285Y-96443714D01*
X158484857Y-96415142D01*
X158513428Y-96358000D01*
X158513428Y-96300857D01*
X158484857Y-96243714D01*
X158456285Y-96215142D01*
X158399142Y-96186571D01*
X158284857Y-96158000D01*
X158142000Y-96158000D01*
X158027714Y-96186571D01*
X157970571Y-96215142D01*
X157942000Y-96243714D01*
X157913428Y-96300857D01*
G04 #@! TO.C,U1*
X151231523Y-79317904D02*
X151231523Y-79965523D01*
X151193428Y-80041714D01*
X151155333Y-80079809D01*
X151079142Y-80117904D01*
X150926761Y-80117904D01*
X150850571Y-80079809D01*
X150812476Y-80041714D01*
X150774380Y-79965523D01*
X150774380Y-79317904D01*
X149974380Y-80117904D02*
X150431523Y-80117904D01*
X150202952Y-80117904D02*
X150202952Y-79317904D01*
X150279142Y-79432190D01*
X150355333Y-79508380D01*
X150431523Y-79546476D01*
X149467428Y-79475000D02*
X149181714Y-79475000D01*
X149524571Y-79646428D02*
X149324571Y-79046428D01*
X149124571Y-79646428D01*
X149010285Y-79046428D02*
X148667428Y-79046428D01*
X148838857Y-79646428D02*
X148838857Y-79046428D01*
X148467428Y-79646428D02*
X148467428Y-79246428D01*
X148467428Y-79303571D02*
X148438857Y-79275000D01*
X148381714Y-79246428D01*
X148296000Y-79246428D01*
X148238857Y-79275000D01*
X148210285Y-79332142D01*
X148210285Y-79646428D01*
X148210285Y-79332142D02*
X148181714Y-79275000D01*
X148124571Y-79246428D01*
X148038857Y-79246428D01*
X147981714Y-79275000D01*
X147953142Y-79332142D01*
X147953142Y-79646428D01*
X147438857Y-79617857D02*
X147496000Y-79646428D01*
X147610285Y-79646428D01*
X147667428Y-79617857D01*
X147696000Y-79560714D01*
X147696000Y-79332142D01*
X147667428Y-79275000D01*
X147610285Y-79246428D01*
X147496000Y-79246428D01*
X147438857Y-79275000D01*
X147410285Y-79332142D01*
X147410285Y-79389285D01*
X147696000Y-79446428D01*
X146896000Y-79246428D02*
X146896000Y-79732142D01*
X146924571Y-79789285D01*
X146953142Y-79817857D01*
X147010285Y-79846428D01*
X147096000Y-79846428D01*
X147153142Y-79817857D01*
X146896000Y-79617857D02*
X146953142Y-79646428D01*
X147067428Y-79646428D01*
X147124571Y-79617857D01*
X147153142Y-79589285D01*
X147181714Y-79532142D01*
X147181714Y-79360714D01*
X147153142Y-79303571D01*
X147124571Y-79275000D01*
X147067428Y-79246428D01*
X146953142Y-79246428D01*
X146896000Y-79275000D01*
X146353142Y-79646428D02*
X146353142Y-79332142D01*
X146381714Y-79275000D01*
X146438857Y-79246428D01*
X146553142Y-79246428D01*
X146610285Y-79275000D01*
X146353142Y-79617857D02*
X146410285Y-79646428D01*
X146553142Y-79646428D01*
X146610285Y-79617857D01*
X146638857Y-79560714D01*
X146638857Y-79503571D01*
X146610285Y-79446428D01*
X146553142Y-79417857D01*
X146410285Y-79417857D01*
X146353142Y-79389285D01*
X146124571Y-79046428D02*
X145753142Y-79046428D01*
X145953142Y-79275000D01*
X145867428Y-79275000D01*
X145810285Y-79303571D01*
X145781714Y-79332142D01*
X145753142Y-79389285D01*
X145753142Y-79532142D01*
X145781714Y-79589285D01*
X145810285Y-79617857D01*
X145867428Y-79646428D01*
X146038857Y-79646428D01*
X146096000Y-79617857D01*
X146124571Y-79589285D01*
X145524571Y-79103571D02*
X145496000Y-79075000D01*
X145438857Y-79046428D01*
X145296000Y-79046428D01*
X145238857Y-79075000D01*
X145210285Y-79103571D01*
X145181714Y-79160714D01*
X145181714Y-79217857D01*
X145210285Y-79303571D01*
X145553142Y-79646428D01*
X145181714Y-79646428D01*
X144838857Y-79303571D02*
X144896000Y-79275000D01*
X144924571Y-79246428D01*
X144953142Y-79189285D01*
X144953142Y-79160714D01*
X144924571Y-79103571D01*
X144896000Y-79075000D01*
X144838857Y-79046428D01*
X144724571Y-79046428D01*
X144667428Y-79075000D01*
X144638857Y-79103571D01*
X144610285Y-79160714D01*
X144610285Y-79189285D01*
X144638857Y-79246428D01*
X144667428Y-79275000D01*
X144724571Y-79303571D01*
X144838857Y-79303571D01*
X144896000Y-79332142D01*
X144924571Y-79360714D01*
X144953142Y-79417857D01*
X144953142Y-79532142D01*
X144924571Y-79589285D01*
X144896000Y-79617857D01*
X144838857Y-79646428D01*
X144724571Y-79646428D01*
X144667428Y-79617857D01*
X144638857Y-79589285D01*
X144610285Y-79532142D01*
X144610285Y-79417857D01*
X144638857Y-79360714D01*
X144667428Y-79332142D01*
X144724571Y-79303571D01*
X144353142Y-79646428D02*
X144353142Y-79046428D01*
X144124571Y-79046428D01*
X144067428Y-79075000D01*
X144038857Y-79103571D01*
X144010285Y-79160714D01*
X144010285Y-79246428D01*
X144038857Y-79303571D01*
X144067428Y-79332142D01*
X144124571Y-79360714D01*
X144353142Y-79360714D01*
X143753142Y-79417857D02*
X143296000Y-79417857D01*
X143038857Y-79475000D02*
X142753142Y-79475000D01*
X143096000Y-79646428D02*
X142896000Y-79046428D01*
X142696000Y-79646428D01*
X142496000Y-79046428D02*
X142496000Y-79532142D01*
X142467428Y-79589285D01*
X142438857Y-79617857D01*
X142381714Y-79646428D01*
X142267428Y-79646428D01*
X142210285Y-79617857D01*
X142181714Y-79589285D01*
X142153142Y-79532142D01*
X142153142Y-79046428D01*
G04 #@! TO.C,J2*
D13*
X136350333Y-105878380D02*
X136350333Y-106592666D01*
X136397952Y-106735523D01*
X136493190Y-106830761D01*
X136636047Y-106878380D01*
X136731285Y-106878380D01*
X135921761Y-105973619D02*
X135874142Y-105926000D01*
X135778904Y-105878380D01*
X135540809Y-105878380D01*
X135445571Y-105926000D01*
X135397952Y-105973619D01*
X135350333Y-106068857D01*
X135350333Y-106164095D01*
X135397952Y-106306952D01*
X135969380Y-106878380D01*
X135350333Y-106878380D01*
G04 #@! TO.C,J3*
X135969333Y-78573380D02*
X135969333Y-79287666D01*
X136016952Y-79430523D01*
X136112190Y-79525761D01*
X136255047Y-79573380D01*
X136350285Y-79573380D01*
X135588380Y-78573380D02*
X134969333Y-78573380D01*
X135302666Y-78954333D01*
X135159809Y-78954333D01*
X135064571Y-79001952D01*
X135016952Y-79049571D01*
X134969333Y-79144809D01*
X134969333Y-79382904D01*
X135016952Y-79478142D01*
X135064571Y-79525761D01*
X135159809Y-79573380D01*
X135445523Y-79573380D01*
X135540761Y-79525761D01*
X135588380Y-79478142D01*
G04 #@! TO.C,J4*
X161877333Y-78700380D02*
X161877333Y-79414666D01*
X161924952Y-79557523D01*
X162020190Y-79652761D01*
X162163047Y-79700380D01*
X162258285Y-79700380D01*
X160972571Y-79033714D02*
X160972571Y-79700380D01*
X161210666Y-78652761D02*
X161448761Y-79367047D01*
X160829714Y-79367047D01*
G04 #@! TO.C,R1*
D10*
X142093904Y-100704666D02*
X141712952Y-100438000D01*
X142093904Y-100247523D02*
X141293904Y-100247523D01*
X141293904Y-100552285D01*
X141332000Y-100628476D01*
X141370095Y-100666571D01*
X141446285Y-100704666D01*
X141560571Y-100704666D01*
X141636761Y-100666571D01*
X141674857Y-100628476D01*
X141712952Y-100552285D01*
X141712952Y-100247523D01*
X142093904Y-101466571D02*
X142093904Y-101009428D01*
X142093904Y-101238000D02*
X141293904Y-101238000D01*
X141408190Y-101161809D01*
X141484380Y-101085619D01*
X141522476Y-101009428D01*
X141460571Y-95015142D02*
X141432000Y-95043714D01*
X141403428Y-95100857D01*
X141403428Y-95243714D01*
X141432000Y-95300857D01*
X141460571Y-95329428D01*
X141517714Y-95358000D01*
X141574857Y-95358000D01*
X141660571Y-95329428D01*
X142003428Y-94986571D01*
X142003428Y-95358000D01*
X141460571Y-95586571D02*
X141432000Y-95615142D01*
X141403428Y-95672285D01*
X141403428Y-95815142D01*
X141432000Y-95872285D01*
X141460571Y-95900857D01*
X141517714Y-95929428D01*
X141574857Y-95929428D01*
X141660571Y-95900857D01*
X142003428Y-95558000D01*
X142003428Y-95929428D01*
X141403428Y-96300857D02*
X141403428Y-96358000D01*
X141432000Y-96415142D01*
X141460571Y-96443714D01*
X141517714Y-96472285D01*
X141632000Y-96500857D01*
X141774857Y-96500857D01*
X141889142Y-96472285D01*
X141946285Y-96443714D01*
X141974857Y-96415142D01*
X142003428Y-96358000D01*
X142003428Y-96300857D01*
X141974857Y-96243714D01*
X141946285Y-96215142D01*
X141889142Y-96186571D01*
X141774857Y-96158000D01*
X141632000Y-96158000D01*
X141517714Y-96186571D01*
X141460571Y-96215142D01*
X141432000Y-96243714D01*
X141403428Y-96300857D01*
G04 #@! TO.C,R2*
X154920904Y-100704666D02*
X154539952Y-100438000D01*
X154920904Y-100247523D02*
X154120904Y-100247523D01*
X154120904Y-100552285D01*
X154159000Y-100628476D01*
X154197095Y-100666571D01*
X154273285Y-100704666D01*
X154387571Y-100704666D01*
X154463761Y-100666571D01*
X154501857Y-100628476D01*
X154539952Y-100552285D01*
X154539952Y-100247523D01*
X154197095Y-101009428D02*
X154159000Y-101047523D01*
X154120904Y-101123714D01*
X154120904Y-101314190D01*
X154159000Y-101390380D01*
X154197095Y-101428476D01*
X154273285Y-101466571D01*
X154349476Y-101466571D01*
X154463761Y-101428476D01*
X154920904Y-100971333D01*
X154920904Y-101466571D01*
X154160571Y-95015142D02*
X154132000Y-95043714D01*
X154103428Y-95100857D01*
X154103428Y-95243714D01*
X154132000Y-95300857D01*
X154160571Y-95329428D01*
X154217714Y-95358000D01*
X154274857Y-95358000D01*
X154360571Y-95329428D01*
X154703428Y-94986571D01*
X154703428Y-95358000D01*
X154160571Y-95586571D02*
X154132000Y-95615142D01*
X154103428Y-95672285D01*
X154103428Y-95815142D01*
X154132000Y-95872285D01*
X154160571Y-95900857D01*
X154217714Y-95929428D01*
X154274857Y-95929428D01*
X154360571Y-95900857D01*
X154703428Y-95558000D01*
X154703428Y-95929428D01*
X154103428Y-96300857D02*
X154103428Y-96358000D01*
X154132000Y-96415142D01*
X154160571Y-96443714D01*
X154217714Y-96472285D01*
X154332000Y-96500857D01*
X154474857Y-96500857D01*
X154589142Y-96472285D01*
X154646285Y-96443714D01*
X154674857Y-96415142D01*
X154703428Y-96358000D01*
X154703428Y-96300857D01*
X154674857Y-96243714D01*
X154646285Y-96215142D01*
X154589142Y-96186571D01*
X154474857Y-96158000D01*
X154332000Y-96158000D01*
X154217714Y-96186571D01*
X154160571Y-96215142D01*
X154132000Y-96243714D01*
X154103428Y-96300857D01*
G04 #@! TO.C,R3*
X156825904Y-100704666D02*
X156444952Y-100438000D01*
X156825904Y-100247523D02*
X156025904Y-100247523D01*
X156025904Y-100552285D01*
X156064000Y-100628476D01*
X156102095Y-100666571D01*
X156178285Y-100704666D01*
X156292571Y-100704666D01*
X156368761Y-100666571D01*
X156406857Y-100628476D01*
X156444952Y-100552285D01*
X156444952Y-100247523D01*
X156025904Y-100971333D02*
X156025904Y-101466571D01*
X156330666Y-101199904D01*
X156330666Y-101314190D01*
X156368761Y-101390380D01*
X156406857Y-101428476D01*
X156483047Y-101466571D01*
X156673523Y-101466571D01*
X156749714Y-101428476D01*
X156787809Y-101390380D01*
X156825904Y-101314190D01*
X156825904Y-101085619D01*
X156787809Y-101009428D01*
X156749714Y-100971333D01*
X155938571Y-95015142D02*
X155910000Y-95043714D01*
X155881428Y-95100857D01*
X155881428Y-95243714D01*
X155910000Y-95300857D01*
X155938571Y-95329428D01*
X155995714Y-95358000D01*
X156052857Y-95358000D01*
X156138571Y-95329428D01*
X156481428Y-94986571D01*
X156481428Y-95358000D01*
X155938571Y-95586571D02*
X155910000Y-95615142D01*
X155881428Y-95672285D01*
X155881428Y-95815142D01*
X155910000Y-95872285D01*
X155938571Y-95900857D01*
X155995714Y-95929428D01*
X156052857Y-95929428D01*
X156138571Y-95900857D01*
X156481428Y-95558000D01*
X156481428Y-95929428D01*
X155881428Y-96300857D02*
X155881428Y-96358000D01*
X155910000Y-96415142D01*
X155938571Y-96443714D01*
X155995714Y-96472285D01*
X156110000Y-96500857D01*
X156252857Y-96500857D01*
X156367142Y-96472285D01*
X156424285Y-96443714D01*
X156452857Y-96415142D01*
X156481428Y-96358000D01*
X156481428Y-96300857D01*
X156452857Y-96243714D01*
X156424285Y-96215142D01*
X156367142Y-96186571D01*
X156252857Y-96158000D01*
X156110000Y-96158000D01*
X155995714Y-96186571D01*
X155938571Y-96215142D01*
X155910000Y-96243714D01*
X155881428Y-96300857D01*
G04 #@! TO.C,C1*
X158146714Y-84956666D02*
X158184809Y-84918571D01*
X158222904Y-84804285D01*
X158222904Y-84728095D01*
X158184809Y-84613809D01*
X158108619Y-84537619D01*
X158032428Y-84499523D01*
X157880047Y-84461428D01*
X157765761Y-84461428D01*
X157613380Y-84499523D01*
X157537190Y-84537619D01*
X157461000Y-84613809D01*
X157422904Y-84728095D01*
X157422904Y-84804285D01*
X157461000Y-84918571D01*
X157499095Y-84956666D01*
X158222904Y-85718571D02*
X158222904Y-85261428D01*
X158222904Y-85490000D02*
X157422904Y-85490000D01*
X157537190Y-85413809D01*
X157613380Y-85337619D01*
X157651476Y-85261428D01*
X160072428Y-84361428D02*
X160072428Y-84418571D01*
X160101000Y-84475714D01*
X160129571Y-84504285D01*
X160186714Y-84532857D01*
X160301000Y-84561428D01*
X160443857Y-84561428D01*
X160558142Y-84532857D01*
X160615285Y-84504285D01*
X160643857Y-84475714D01*
X160672428Y-84418571D01*
X160672428Y-84361428D01*
X160643857Y-84304285D01*
X160615285Y-84275714D01*
X160558142Y-84247142D01*
X160443857Y-84218571D01*
X160301000Y-84218571D01*
X160186714Y-84247142D01*
X160129571Y-84275714D01*
X160101000Y-84304285D01*
X160072428Y-84361428D01*
X160615285Y-84818571D02*
X160643857Y-84847142D01*
X160672428Y-84818571D01*
X160643857Y-84790000D01*
X160615285Y-84818571D01*
X160672428Y-84818571D01*
X160672428Y-85418571D02*
X160672428Y-85075714D01*
X160672428Y-85247142D02*
X160072428Y-85247142D01*
X160158142Y-85190000D01*
X160215285Y-85132857D01*
X160243857Y-85075714D01*
X160272428Y-85932857D02*
X160672428Y-85932857D01*
X160272428Y-85675714D02*
X160586714Y-85675714D01*
X160643857Y-85704285D01*
X160672428Y-85761428D01*
X160672428Y-85847142D01*
X160643857Y-85904285D01*
X160615285Y-85932857D01*
G04 #@! TO.C,R5*
X151263333Y-96246904D02*
X151530000Y-95865952D01*
X151720476Y-96246904D02*
X151720476Y-95446904D01*
X151415714Y-95446904D01*
X151339523Y-95485000D01*
X151301428Y-95523095D01*
X151263333Y-95599285D01*
X151263333Y-95713571D01*
X151301428Y-95789761D01*
X151339523Y-95827857D01*
X151415714Y-95865952D01*
X151720476Y-95865952D01*
X150539523Y-95446904D02*
X150920476Y-95446904D01*
X150958571Y-95827857D01*
X150920476Y-95789761D01*
X150844285Y-95751666D01*
X150653809Y-95751666D01*
X150577619Y-95789761D01*
X150539523Y-95827857D01*
X150501428Y-95904047D01*
X150501428Y-96094523D01*
X150539523Y-96170714D01*
X150577619Y-96208809D01*
X150653809Y-96246904D01*
X150844285Y-96246904D01*
X150920476Y-96208809D01*
X150958571Y-96170714D01*
X151487142Y-98696428D02*
X151830000Y-98696428D01*
X151658571Y-98696428D02*
X151658571Y-98096428D01*
X151715714Y-98182142D01*
X151772857Y-98239285D01*
X151830000Y-98267857D01*
X151115714Y-98096428D02*
X151058571Y-98096428D01*
X151001428Y-98125000D01*
X150972857Y-98153571D01*
X150944285Y-98210714D01*
X150915714Y-98325000D01*
X150915714Y-98467857D01*
X150944285Y-98582142D01*
X150972857Y-98639285D01*
X151001428Y-98667857D01*
X151058571Y-98696428D01*
X151115714Y-98696428D01*
X151172857Y-98667857D01*
X151201428Y-98639285D01*
X151230000Y-98582142D01*
X151258571Y-98467857D01*
X151258571Y-98325000D01*
X151230000Y-98210714D01*
X151201428Y-98153571D01*
X151172857Y-98125000D01*
X151115714Y-98096428D01*
X150658571Y-98696428D02*
X150658571Y-98096428D01*
X150601428Y-98467857D02*
X150430000Y-98696428D01*
X150430000Y-98296428D02*
X150658571Y-98525000D01*
G04 #@! TO.C,R6*
X146183333Y-96246904D02*
X146450000Y-95865952D01*
X146640476Y-96246904D02*
X146640476Y-95446904D01*
X146335714Y-95446904D01*
X146259523Y-95485000D01*
X146221428Y-95523095D01*
X146183333Y-95599285D01*
X146183333Y-95713571D01*
X146221428Y-95789761D01*
X146259523Y-95827857D01*
X146335714Y-95865952D01*
X146640476Y-95865952D01*
X145497619Y-95446904D02*
X145650000Y-95446904D01*
X145726190Y-95485000D01*
X145764285Y-95523095D01*
X145840476Y-95637380D01*
X145878571Y-95789761D01*
X145878571Y-96094523D01*
X145840476Y-96170714D01*
X145802380Y-96208809D01*
X145726190Y-96246904D01*
X145573809Y-96246904D01*
X145497619Y-96208809D01*
X145459523Y-96170714D01*
X145421428Y-96094523D01*
X145421428Y-95904047D01*
X145459523Y-95827857D01*
X145497619Y-95789761D01*
X145573809Y-95751666D01*
X145726190Y-95751666D01*
X145802380Y-95789761D01*
X145840476Y-95827857D01*
X145878571Y-95904047D01*
X146407142Y-98696428D02*
X146750000Y-98696428D01*
X146578571Y-98696428D02*
X146578571Y-98096428D01*
X146635714Y-98182142D01*
X146692857Y-98239285D01*
X146750000Y-98267857D01*
X146035714Y-98096428D02*
X145978571Y-98096428D01*
X145921428Y-98125000D01*
X145892857Y-98153571D01*
X145864285Y-98210714D01*
X145835714Y-98325000D01*
X145835714Y-98467857D01*
X145864285Y-98582142D01*
X145892857Y-98639285D01*
X145921428Y-98667857D01*
X145978571Y-98696428D01*
X146035714Y-98696428D01*
X146092857Y-98667857D01*
X146121428Y-98639285D01*
X146150000Y-98582142D01*
X146178571Y-98467857D01*
X146178571Y-98325000D01*
X146150000Y-98210714D01*
X146121428Y-98153571D01*
X146092857Y-98125000D01*
X146035714Y-98096428D01*
X145578571Y-98696428D02*
X145578571Y-98096428D01*
X145521428Y-98467857D02*
X145350000Y-98696428D01*
X145350000Y-98296428D02*
X145578571Y-98525000D01*
G04 #@! TO.C,C3*
X138563333Y-84613714D02*
X138601428Y-84651809D01*
X138715714Y-84689904D01*
X138791904Y-84689904D01*
X138906190Y-84651809D01*
X138982380Y-84575619D01*
X139020476Y-84499428D01*
X139058571Y-84347047D01*
X139058571Y-84232761D01*
X139020476Y-84080380D01*
X138982380Y-84004190D01*
X138906190Y-83928000D01*
X138791904Y-83889904D01*
X138715714Y-83889904D01*
X138601428Y-83928000D01*
X138563333Y-83966095D01*
X138296666Y-83889904D02*
X137801428Y-83889904D01*
X138068095Y-84194666D01*
X137953809Y-84194666D01*
X137877619Y-84232761D01*
X137839523Y-84270857D01*
X137801428Y-84347047D01*
X137801428Y-84537523D01*
X137839523Y-84613714D01*
X137877619Y-84651809D01*
X137953809Y-84689904D01*
X138182380Y-84689904D01*
X138258571Y-84651809D01*
X138296666Y-84613714D01*
X138904571Y-86666428D02*
X138847428Y-86666428D01*
X138790285Y-86695000D01*
X138761714Y-86723571D01*
X138733142Y-86780714D01*
X138704571Y-86895000D01*
X138704571Y-87037857D01*
X138733142Y-87152142D01*
X138761714Y-87209285D01*
X138790285Y-87237857D01*
X138847428Y-87266428D01*
X138904571Y-87266428D01*
X138961714Y-87237857D01*
X138990285Y-87209285D01*
X139018857Y-87152142D01*
X139047428Y-87037857D01*
X139047428Y-86895000D01*
X139018857Y-86780714D01*
X138990285Y-86723571D01*
X138961714Y-86695000D01*
X138904571Y-86666428D01*
X138447428Y-87209285D02*
X138418857Y-87237857D01*
X138447428Y-87266428D01*
X138476000Y-87237857D01*
X138447428Y-87209285D01*
X138447428Y-87266428D01*
X137847428Y-87266428D02*
X138190285Y-87266428D01*
X138018857Y-87266428D02*
X138018857Y-86666428D01*
X138076000Y-86752142D01*
X138133142Y-86809285D01*
X138190285Y-86837857D01*
X137333142Y-86866428D02*
X137333142Y-87266428D01*
X137590285Y-86866428D02*
X137590285Y-87180714D01*
X137561714Y-87237857D01*
X137504571Y-87266428D01*
X137418857Y-87266428D01*
X137361714Y-87237857D01*
X137333142Y-87209285D01*
G04 #@! TO.C,J5*
D13*
X162893333Y-88562380D02*
X162893333Y-89276666D01*
X162940952Y-89419523D01*
X163036190Y-89514761D01*
X163179047Y-89562380D01*
X163274285Y-89562380D01*
X161940952Y-88562380D02*
X162417142Y-88562380D01*
X162464761Y-89038571D01*
X162417142Y-88990952D01*
X162321904Y-88943333D01*
X162083809Y-88943333D01*
X161988571Y-88990952D01*
X161940952Y-89038571D01*
X161893333Y-89133809D01*
X161893333Y-89371904D01*
X161940952Y-89467142D01*
X161988571Y-89514761D01*
X162083809Y-89562380D01*
X162321904Y-89562380D01*
X162417142Y-89514761D01*
X162464761Y-89467142D01*
G04 #@! TO.C,R7*
D10*
X156698904Y-79114666D02*
X156317952Y-78848000D01*
X156698904Y-78657523D02*
X155898904Y-78657523D01*
X155898904Y-78962285D01*
X155937000Y-79038476D01*
X155975095Y-79076571D01*
X156051285Y-79114666D01*
X156165571Y-79114666D01*
X156241761Y-79076571D01*
X156279857Y-79038476D01*
X156317952Y-78962285D01*
X156317952Y-78657523D01*
X155898904Y-79381333D02*
X155898904Y-79914666D01*
X156698904Y-79571809D01*
X157751428Y-78890857D02*
X157751428Y-78548000D01*
X157751428Y-78719428D02*
X157151428Y-78719428D01*
X157237142Y-78662285D01*
X157294285Y-78605142D01*
X157322857Y-78548000D01*
X157151428Y-79262285D02*
X157151428Y-79319428D01*
X157180000Y-79376571D01*
X157208571Y-79405142D01*
X157265714Y-79433714D01*
X157380000Y-79462285D01*
X157522857Y-79462285D01*
X157637142Y-79433714D01*
X157694285Y-79405142D01*
X157722857Y-79376571D01*
X157751428Y-79319428D01*
X157751428Y-79262285D01*
X157722857Y-79205142D01*
X157694285Y-79176571D01*
X157637142Y-79148000D01*
X157522857Y-79119428D01*
X157380000Y-79119428D01*
X157265714Y-79148000D01*
X157208571Y-79176571D01*
X157180000Y-79205142D01*
X157151428Y-79262285D01*
X157751428Y-79719428D02*
X157151428Y-79719428D01*
X157522857Y-79776571D02*
X157751428Y-79948000D01*
X157351428Y-79948000D02*
X157580000Y-79719428D01*
G04 #@! TO.C,R8*
X154031904Y-79241666D02*
X153650952Y-78975000D01*
X154031904Y-78784523D02*
X153231904Y-78784523D01*
X153231904Y-79089285D01*
X153270000Y-79165476D01*
X153308095Y-79203571D01*
X153384285Y-79241666D01*
X153498571Y-79241666D01*
X153574761Y-79203571D01*
X153612857Y-79165476D01*
X153650952Y-79089285D01*
X153650952Y-78784523D01*
X153574761Y-79698809D02*
X153536666Y-79622619D01*
X153498571Y-79584523D01*
X153422380Y-79546428D01*
X153384285Y-79546428D01*
X153308095Y-79584523D01*
X153270000Y-79622619D01*
X153231904Y-79698809D01*
X153231904Y-79851190D01*
X153270000Y-79927380D01*
X153308095Y-79965476D01*
X153384285Y-80003571D01*
X153422380Y-80003571D01*
X153498571Y-79965476D01*
X153536666Y-79927380D01*
X153574761Y-79851190D01*
X153574761Y-79698809D01*
X153612857Y-79622619D01*
X153650952Y-79584523D01*
X153727142Y-79546428D01*
X153879523Y-79546428D01*
X153955714Y-79584523D01*
X153993809Y-79622619D01*
X154031904Y-79698809D01*
X154031904Y-79851190D01*
X153993809Y-79927380D01*
X153955714Y-79965476D01*
X153879523Y-80003571D01*
X153727142Y-80003571D01*
X153650952Y-79965476D01*
X153612857Y-79927380D01*
X153574761Y-79851190D01*
X155211428Y-78890857D02*
X155211428Y-78548000D01*
X155211428Y-78719428D02*
X154611428Y-78719428D01*
X154697142Y-78662285D01*
X154754285Y-78605142D01*
X154782857Y-78548000D01*
X154611428Y-79262285D02*
X154611428Y-79319428D01*
X154640000Y-79376571D01*
X154668571Y-79405142D01*
X154725714Y-79433714D01*
X154840000Y-79462285D01*
X154982857Y-79462285D01*
X155097142Y-79433714D01*
X155154285Y-79405142D01*
X155182857Y-79376571D01*
X155211428Y-79319428D01*
X155211428Y-79262285D01*
X155182857Y-79205142D01*
X155154285Y-79176571D01*
X155097142Y-79148000D01*
X154982857Y-79119428D01*
X154840000Y-79119428D01*
X154725714Y-79148000D01*
X154668571Y-79176571D01*
X154640000Y-79205142D01*
X154611428Y-79262285D01*
X155211428Y-79719428D02*
X154611428Y-79719428D01*
X154982857Y-79776571D02*
X155211428Y-79948000D01*
X154811428Y-79948000D02*
X155040000Y-79719428D01*
G04 #@! TO.C,R9*
X156698904Y-91306666D02*
X156317952Y-91040000D01*
X156698904Y-90849523D02*
X155898904Y-90849523D01*
X155898904Y-91154285D01*
X155937000Y-91230476D01*
X155975095Y-91268571D01*
X156051285Y-91306666D01*
X156165571Y-91306666D01*
X156241761Y-91268571D01*
X156279857Y-91230476D01*
X156317952Y-91154285D01*
X156317952Y-90849523D01*
X156698904Y-91687619D02*
X156698904Y-91840000D01*
X156660809Y-91916190D01*
X156622714Y-91954285D01*
X156508428Y-92030476D01*
X156356047Y-92068571D01*
X156051285Y-92068571D01*
X155975095Y-92030476D01*
X155937000Y-91992380D01*
X155898904Y-91916190D01*
X155898904Y-91763809D01*
X155937000Y-91687619D01*
X155975095Y-91649523D01*
X156051285Y-91611428D01*
X156241761Y-91611428D01*
X156317952Y-91649523D01*
X156356047Y-91687619D01*
X156394142Y-91763809D01*
X156394142Y-91916190D01*
X156356047Y-91992380D01*
X156317952Y-92030476D01*
X156241761Y-92068571D01*
X157624428Y-91209857D02*
X157624428Y-90867000D01*
X157624428Y-91038428D02*
X157024428Y-91038428D01*
X157110142Y-90981285D01*
X157167285Y-90924142D01*
X157195857Y-90867000D01*
X157024428Y-91581285D02*
X157024428Y-91638428D01*
X157053000Y-91695571D01*
X157081571Y-91724142D01*
X157138714Y-91752714D01*
X157253000Y-91781285D01*
X157395857Y-91781285D01*
X157510142Y-91752714D01*
X157567285Y-91724142D01*
X157595857Y-91695571D01*
X157624428Y-91638428D01*
X157624428Y-91581285D01*
X157595857Y-91524142D01*
X157567285Y-91495571D01*
X157510142Y-91467000D01*
X157395857Y-91438428D01*
X157253000Y-91438428D01*
X157138714Y-91467000D01*
X157081571Y-91495571D01*
X157053000Y-91524142D01*
X157024428Y-91581285D01*
X157624428Y-92038428D02*
X157024428Y-92038428D01*
X157395857Y-92095571D02*
X157624428Y-92267000D01*
X157224428Y-92267000D02*
X157453000Y-92038428D01*
G04 #@! TO.C,R10*
X154158904Y-85464714D02*
X153777952Y-85198047D01*
X154158904Y-85007571D02*
X153358904Y-85007571D01*
X153358904Y-85312333D01*
X153397000Y-85388523D01*
X153435095Y-85426619D01*
X153511285Y-85464714D01*
X153625571Y-85464714D01*
X153701761Y-85426619D01*
X153739857Y-85388523D01*
X153777952Y-85312333D01*
X153777952Y-85007571D01*
X154158904Y-86226619D02*
X154158904Y-85769476D01*
X154158904Y-85998047D02*
X153358904Y-85998047D01*
X153473190Y-85921857D01*
X153549380Y-85845666D01*
X153587476Y-85769476D01*
X153358904Y-86721857D02*
X153358904Y-86798047D01*
X153397000Y-86874238D01*
X153435095Y-86912333D01*
X153511285Y-86950428D01*
X153663666Y-86988523D01*
X153854142Y-86988523D01*
X154006523Y-86950428D01*
X154082714Y-86912333D01*
X154120809Y-86874238D01*
X154158904Y-86798047D01*
X154158904Y-86721857D01*
X154120809Y-86645666D01*
X154082714Y-86607571D01*
X154006523Y-86569476D01*
X153854142Y-86531380D01*
X153663666Y-86531380D01*
X153511285Y-86569476D01*
X153435095Y-86607571D01*
X153397000Y-86645666D01*
X153358904Y-86721857D01*
X155084428Y-85875857D02*
X155084428Y-85533000D01*
X155084428Y-85704428D02*
X154484428Y-85704428D01*
X154570142Y-85647285D01*
X154627285Y-85590142D01*
X154655857Y-85533000D01*
X154484428Y-86247285D02*
X154484428Y-86304428D01*
X154513000Y-86361571D01*
X154541571Y-86390142D01*
X154598714Y-86418714D01*
X154713000Y-86447285D01*
X154855857Y-86447285D01*
X154970142Y-86418714D01*
X155027285Y-86390142D01*
X155055857Y-86361571D01*
X155084428Y-86304428D01*
X155084428Y-86247285D01*
X155055857Y-86190142D01*
X155027285Y-86161571D01*
X154970142Y-86133000D01*
X154855857Y-86104428D01*
X154713000Y-86104428D01*
X154598714Y-86133000D01*
X154541571Y-86161571D01*
X154513000Y-86190142D01*
X154484428Y-86247285D01*
X155084428Y-86704428D02*
X154484428Y-86704428D01*
X154855857Y-86761571D02*
X155084428Y-86933000D01*
X154684428Y-86933000D02*
X154913000Y-86704428D01*
G04 #@! TD*
M02*
