G04 #@! TF.GenerationSoftware,KiCad,Pcbnew,(5.0.2-5)-5*
G04 #@! TF.CreationDate,2019-09-23T09:23:56+03:00*
G04 #@! TF.ProjectId,digi_pot,64696769-5f70-46f7-942e-6b696361645f,rev?*
G04 #@! TF.SameCoordinates,Original*
G04 #@! TF.FileFunction,Copper,L1,Top*
G04 #@! TF.FilePolarity,Positive*
%FSLAX46Y46*%
G04 Gerber Fmt 4.6, Leading zero omitted, Abs format (unit mm)*
G04 Created by KiCad (PCBNEW (5.0.2-5)-5) date 2019 September 23, Monday 09:23:56*
%MOMM*%
%LPD*%
G01*
G04 APERTURE LIST*
G04 #@! TA.AperFunction,ComponentPad*
%ADD10O,1.600000X1.600000*%
G04 #@! TD*
G04 #@! TA.AperFunction,ComponentPad*
%ADD11R,1.600000X1.600000*%
G04 #@! TD*
G04 #@! TA.AperFunction,ComponentPad*
%ADD12R,2.500000X3.000000*%
G04 #@! TD*
G04 #@! TA.AperFunction,ComponentPad*
%ADD13C,2.000000*%
G04 #@! TD*
G04 #@! TA.AperFunction,ComponentPad*
%ADD14R,2.000000X2.000000*%
G04 #@! TD*
G04 #@! TA.AperFunction,SMDPad,CuDef*
%ADD15R,1.450000X0.450000*%
G04 #@! TD*
G04 #@! TA.AperFunction,ComponentPad*
%ADD16R,1.700000X1.700000*%
G04 #@! TD*
G04 #@! TA.AperFunction,ComponentPad*
%ADD17O,1.700000X1.700000*%
G04 #@! TD*
G04 #@! TA.AperFunction,Conductor*
%ADD18C,0.100000*%
G04 #@! TD*
G04 #@! TA.AperFunction,SMDPad,CuDef*
%ADD19C,1.150000*%
G04 #@! TD*
G04 #@! TA.AperFunction,ViaPad*
%ADD20C,0.800000*%
G04 #@! TD*
G04 #@! TA.AperFunction,Conductor*
%ADD21C,0.250000*%
G04 #@! TD*
G04 #@! TA.AperFunction,Conductor*
%ADD22C,0.400000*%
G04 #@! TD*
G04 APERTURE END LIST*
D10*
G04 #@! TO.P,J1,8*
G04 #@! TO.N,Net-(J1-Pad8)*
X157478400Y-102209600D03*
G04 #@! TO.P,J1,7*
G04 #@! TO.N,Net-(J1-Pad7)*
X154938400Y-102209600D03*
G04 #@! TO.P,J1,6*
G04 #@! TO.N,Net-(J1-Pad6)*
X152398400Y-102209600D03*
G04 #@! TO.P,J1,5*
G04 #@! TO.N,Net-(J1-Pad5)*
X149858400Y-102209600D03*
G04 #@! TO.P,J1,4*
G04 #@! TO.N,LED4*
X147318400Y-102209600D03*
G04 #@! TO.P,J1,3*
G04 #@! TO.N,LED3*
X144778400Y-102209600D03*
G04 #@! TO.P,J1,2*
G04 #@! TO.N,LED2*
X142238400Y-102209600D03*
D11*
G04 #@! TO.P,J1,1*
G04 #@! TO.N,LED1*
X139698400Y-102209600D03*
G04 #@! TD*
D12*
G04 #@! TO.P,SW1,MP*
G04 #@! TO.N,N/C*
X154199200Y-92626800D03*
X142999200Y-92626800D03*
D13*
G04 #@! TO.P,SW1,B*
G04 #@! TO.N,RE_B*
X151099200Y-100126800D03*
G04 #@! TO.P,SW1,C*
G04 #@! TO.N,+5V*
X148599200Y-100126800D03*
D14*
G04 #@! TO.P,SW1,A*
G04 #@! TO.N,RE_A*
X146099200Y-100126800D03*
G04 #@! TD*
D15*
G04 #@! TO.P,U2,1*
G04 #@! TO.N,MCP_CS*
X152175000Y-83865000D03*
G04 #@! TO.P,U2,2*
G04 #@! TO.N,SCK*
X152175000Y-83215000D03*
G04 #@! TO.P,U2,3*
G04 #@! TO.N,MOSI*
X152175000Y-82565000D03*
G04 #@! TO.P,U2,4*
G04 #@! TO.N,GND*
X152175000Y-81915000D03*
G04 #@! TO.P,U2,5*
G04 #@! TO.N,Net-(J4-Pad3)*
X152175000Y-81265000D03*
G04 #@! TO.P,U2,6*
G04 #@! TO.N,Net-(J4-Pad2)*
X152175000Y-80615000D03*
G04 #@! TO.P,U2,7*
G04 #@! TO.N,Net-(J4-Pad1)*
X152175000Y-79965000D03*
G04 #@! TO.P,U2,8*
G04 #@! TO.N,Net-(J3-Pad1)*
X146275000Y-79965000D03*
G04 #@! TO.P,U2,9*
G04 #@! TO.N,Net-(J3-Pad2)*
X146275000Y-80615000D03*
G04 #@! TO.P,U2,10*
G04 #@! TO.N,Net-(J3-Pad3)*
X146275000Y-81265000D03*
G04 #@! TO.P,U2,11*
G04 #@! TO.N,Net-(U2-Pad11)*
X146275000Y-81915000D03*
G04 #@! TO.P,U2,12*
G04 #@! TO.N,MCP_SHDN*
X146275000Y-82565000D03*
G04 #@! TO.P,U2,13*
G04 #@! TO.N,MISO*
X146275000Y-83215000D03*
G04 #@! TO.P,U2,14*
G04 #@! TO.N,+5V*
X146275000Y-83865000D03*
G04 #@! TD*
D16*
G04 #@! TO.P,J2,1*
G04 #@! TO.N,+5V*
X134620000Y-104140000D03*
D17*
G04 #@! TO.P,J2,2*
G04 #@! TO.N,GND*
X134620000Y-101600000D03*
G04 #@! TO.P,J2,3*
G04 #@! TO.N,RST*
X134620000Y-99060000D03*
G04 #@! TO.P,J2,4*
G04 #@! TO.N,SCK*
X134620000Y-96520000D03*
G04 #@! TO.P,J2,5*
G04 #@! TO.N,MOSI*
X134620000Y-93980000D03*
G04 #@! TO.P,J2,6*
G04 #@! TO.N,MISO*
X134620000Y-91440000D03*
G04 #@! TD*
D16*
G04 #@! TO.P,J3,1*
G04 #@! TO.N,Net-(J3-Pad1)*
X134620000Y-81280000D03*
D17*
G04 #@! TO.P,J3,2*
G04 #@! TO.N,Net-(J3-Pad2)*
X134620000Y-83820000D03*
G04 #@! TO.P,J3,3*
G04 #@! TO.N,Net-(J3-Pad3)*
X134620000Y-86360000D03*
G04 #@! TD*
G04 #@! TO.P,J4,3*
G04 #@! TO.N,Net-(J4-Pad3)*
X162560000Y-86360000D03*
G04 #@! TO.P,J4,2*
G04 #@! TO.N,Net-(J4-Pad2)*
X162560000Y-83820000D03*
D16*
G04 #@! TO.P,J4,1*
G04 #@! TO.N,Net-(J4-Pad1)*
X162560000Y-81280000D03*
G04 #@! TD*
D18*
G04 #@! TO.N,+5V*
G04 #@! TO.C,C2*
G36*
X140428505Y-86412204D02*
X140452773Y-86415804D01*
X140476572Y-86421765D01*
X140499671Y-86430030D01*
X140521850Y-86440520D01*
X140542893Y-86453132D01*
X140562599Y-86467747D01*
X140580777Y-86484223D01*
X140597253Y-86502401D01*
X140611868Y-86522107D01*
X140624480Y-86543150D01*
X140634970Y-86565329D01*
X140643235Y-86588428D01*
X140649196Y-86612227D01*
X140652796Y-86636495D01*
X140654000Y-86660999D01*
X140654000Y-87311001D01*
X140652796Y-87335505D01*
X140649196Y-87359773D01*
X140643235Y-87383572D01*
X140634970Y-87406671D01*
X140624480Y-87428850D01*
X140611868Y-87449893D01*
X140597253Y-87469599D01*
X140580777Y-87487777D01*
X140562599Y-87504253D01*
X140542893Y-87518868D01*
X140521850Y-87531480D01*
X140499671Y-87541970D01*
X140476572Y-87550235D01*
X140452773Y-87556196D01*
X140428505Y-87559796D01*
X140404001Y-87561000D01*
X139503999Y-87561000D01*
X139479495Y-87559796D01*
X139455227Y-87556196D01*
X139431428Y-87550235D01*
X139408329Y-87541970D01*
X139386150Y-87531480D01*
X139365107Y-87518868D01*
X139345401Y-87504253D01*
X139327223Y-87487777D01*
X139310747Y-87469599D01*
X139296132Y-87449893D01*
X139283520Y-87428850D01*
X139273030Y-87406671D01*
X139264765Y-87383572D01*
X139258804Y-87359773D01*
X139255204Y-87335505D01*
X139254000Y-87311001D01*
X139254000Y-86660999D01*
X139255204Y-86636495D01*
X139258804Y-86612227D01*
X139264765Y-86588428D01*
X139273030Y-86565329D01*
X139283520Y-86543150D01*
X139296132Y-86522107D01*
X139310747Y-86502401D01*
X139327223Y-86484223D01*
X139345401Y-86467747D01*
X139365107Y-86453132D01*
X139386150Y-86440520D01*
X139408329Y-86430030D01*
X139431428Y-86421765D01*
X139455227Y-86415804D01*
X139479495Y-86412204D01*
X139503999Y-86411000D01*
X140404001Y-86411000D01*
X140428505Y-86412204D01*
X140428505Y-86412204D01*
G37*
D19*
G04 #@! TD*
G04 #@! TO.P,C2,1*
G04 #@! TO.N,+5V*
X139954000Y-86986000D03*
D18*
G04 #@! TO.N,GND*
G04 #@! TO.C,C2*
G36*
X140428505Y-88462204D02*
X140452773Y-88465804D01*
X140476572Y-88471765D01*
X140499671Y-88480030D01*
X140521850Y-88490520D01*
X140542893Y-88503132D01*
X140562599Y-88517747D01*
X140580777Y-88534223D01*
X140597253Y-88552401D01*
X140611868Y-88572107D01*
X140624480Y-88593150D01*
X140634970Y-88615329D01*
X140643235Y-88638428D01*
X140649196Y-88662227D01*
X140652796Y-88686495D01*
X140654000Y-88710999D01*
X140654000Y-89361001D01*
X140652796Y-89385505D01*
X140649196Y-89409773D01*
X140643235Y-89433572D01*
X140634970Y-89456671D01*
X140624480Y-89478850D01*
X140611868Y-89499893D01*
X140597253Y-89519599D01*
X140580777Y-89537777D01*
X140562599Y-89554253D01*
X140542893Y-89568868D01*
X140521850Y-89581480D01*
X140499671Y-89591970D01*
X140476572Y-89600235D01*
X140452773Y-89606196D01*
X140428505Y-89609796D01*
X140404001Y-89611000D01*
X139503999Y-89611000D01*
X139479495Y-89609796D01*
X139455227Y-89606196D01*
X139431428Y-89600235D01*
X139408329Y-89591970D01*
X139386150Y-89581480D01*
X139365107Y-89568868D01*
X139345401Y-89554253D01*
X139327223Y-89537777D01*
X139310747Y-89519599D01*
X139296132Y-89499893D01*
X139283520Y-89478850D01*
X139273030Y-89456671D01*
X139264765Y-89433572D01*
X139258804Y-89409773D01*
X139255204Y-89385505D01*
X139254000Y-89361001D01*
X139254000Y-88710999D01*
X139255204Y-88686495D01*
X139258804Y-88662227D01*
X139264765Y-88638428D01*
X139273030Y-88615329D01*
X139283520Y-88593150D01*
X139296132Y-88572107D01*
X139310747Y-88552401D01*
X139327223Y-88534223D01*
X139345401Y-88517747D01*
X139365107Y-88503132D01*
X139386150Y-88490520D01*
X139408329Y-88480030D01*
X139431428Y-88471765D01*
X139455227Y-88465804D01*
X139479495Y-88462204D01*
X139503999Y-88461000D01*
X140404001Y-88461000D01*
X140428505Y-88462204D01*
X140428505Y-88462204D01*
G37*
D19*
G04 #@! TD*
G04 #@! TO.P,C2,2*
G04 #@! TO.N,GND*
X139954000Y-89036000D03*
D16*
G04 #@! TO.P,J5,1*
G04 #@! TO.N,SDA*
X162560000Y-91440000D03*
D17*
G04 #@! TO.P,J5,2*
G04 #@! TO.N,SCL*
X162560000Y-93980000D03*
G04 #@! TO.P,J5,3*
G04 #@! TO.N,A0*
X162560000Y-96520000D03*
G04 #@! TO.P,J5,4*
G04 #@! TO.N,A1*
X162560000Y-99060000D03*
G04 #@! TO.P,J5,5*
G04 #@! TO.N,A2*
X162560000Y-101600000D03*
G04 #@! TO.P,J5,6*
G04 #@! TO.N,CHG*
X162560000Y-104140000D03*
G04 #@! TD*
D18*
G04 #@! TO.N,GND*
G04 #@! TO.C,R11*
G36*
X142841505Y-84017204D02*
X142865773Y-84020804D01*
X142889572Y-84026765D01*
X142912671Y-84035030D01*
X142934850Y-84045520D01*
X142955893Y-84058132D01*
X142975599Y-84072747D01*
X142993777Y-84089223D01*
X143010253Y-84107401D01*
X143024868Y-84127107D01*
X143037480Y-84148150D01*
X143047970Y-84170329D01*
X143056235Y-84193428D01*
X143062196Y-84217227D01*
X143065796Y-84241495D01*
X143067000Y-84265999D01*
X143067000Y-84916001D01*
X143065796Y-84940505D01*
X143062196Y-84964773D01*
X143056235Y-84988572D01*
X143047970Y-85011671D01*
X143037480Y-85033850D01*
X143024868Y-85054893D01*
X143010253Y-85074599D01*
X142993777Y-85092777D01*
X142975599Y-85109253D01*
X142955893Y-85123868D01*
X142934850Y-85136480D01*
X142912671Y-85146970D01*
X142889572Y-85155235D01*
X142865773Y-85161196D01*
X142841505Y-85164796D01*
X142817001Y-85166000D01*
X141916999Y-85166000D01*
X141892495Y-85164796D01*
X141868227Y-85161196D01*
X141844428Y-85155235D01*
X141821329Y-85146970D01*
X141799150Y-85136480D01*
X141778107Y-85123868D01*
X141758401Y-85109253D01*
X141740223Y-85092777D01*
X141723747Y-85074599D01*
X141709132Y-85054893D01*
X141696520Y-85033850D01*
X141686030Y-85011671D01*
X141677765Y-84988572D01*
X141671804Y-84964773D01*
X141668204Y-84940505D01*
X141667000Y-84916001D01*
X141667000Y-84265999D01*
X141668204Y-84241495D01*
X141671804Y-84217227D01*
X141677765Y-84193428D01*
X141686030Y-84170329D01*
X141696520Y-84148150D01*
X141709132Y-84127107D01*
X141723747Y-84107401D01*
X141740223Y-84089223D01*
X141758401Y-84072747D01*
X141778107Y-84058132D01*
X141799150Y-84045520D01*
X141821329Y-84035030D01*
X141844428Y-84026765D01*
X141868227Y-84020804D01*
X141892495Y-84017204D01*
X141916999Y-84016000D01*
X142817001Y-84016000D01*
X142841505Y-84017204D01*
X142841505Y-84017204D01*
G37*
D19*
G04 #@! TD*
G04 #@! TO.P,R11,1*
G04 #@! TO.N,GND*
X142367000Y-84591000D03*
D18*
G04 #@! TO.N,MCP_SHDN*
G04 #@! TO.C,R11*
G36*
X142841505Y-81967204D02*
X142865773Y-81970804D01*
X142889572Y-81976765D01*
X142912671Y-81985030D01*
X142934850Y-81995520D01*
X142955893Y-82008132D01*
X142975599Y-82022747D01*
X142993777Y-82039223D01*
X143010253Y-82057401D01*
X143024868Y-82077107D01*
X143037480Y-82098150D01*
X143047970Y-82120329D01*
X143056235Y-82143428D01*
X143062196Y-82167227D01*
X143065796Y-82191495D01*
X143067000Y-82215999D01*
X143067000Y-82866001D01*
X143065796Y-82890505D01*
X143062196Y-82914773D01*
X143056235Y-82938572D01*
X143047970Y-82961671D01*
X143037480Y-82983850D01*
X143024868Y-83004893D01*
X143010253Y-83024599D01*
X142993777Y-83042777D01*
X142975599Y-83059253D01*
X142955893Y-83073868D01*
X142934850Y-83086480D01*
X142912671Y-83096970D01*
X142889572Y-83105235D01*
X142865773Y-83111196D01*
X142841505Y-83114796D01*
X142817001Y-83116000D01*
X141916999Y-83116000D01*
X141892495Y-83114796D01*
X141868227Y-83111196D01*
X141844428Y-83105235D01*
X141821329Y-83096970D01*
X141799150Y-83086480D01*
X141778107Y-83073868D01*
X141758401Y-83059253D01*
X141740223Y-83042777D01*
X141723747Y-83024599D01*
X141709132Y-83004893D01*
X141696520Y-82983850D01*
X141686030Y-82961671D01*
X141677765Y-82938572D01*
X141671804Y-82914773D01*
X141668204Y-82890505D01*
X141667000Y-82866001D01*
X141667000Y-82215999D01*
X141668204Y-82191495D01*
X141671804Y-82167227D01*
X141677765Y-82143428D01*
X141686030Y-82120329D01*
X141696520Y-82098150D01*
X141709132Y-82077107D01*
X141723747Y-82057401D01*
X141740223Y-82039223D01*
X141758401Y-82022747D01*
X141778107Y-82008132D01*
X141799150Y-81995520D01*
X141821329Y-81985030D01*
X141844428Y-81976765D01*
X141868227Y-81970804D01*
X141892495Y-81967204D01*
X141916999Y-81966000D01*
X142817001Y-81966000D01*
X142841505Y-81967204D01*
X142841505Y-81967204D01*
G37*
D19*
G04 #@! TD*
G04 #@! TO.P,R11,2*
G04 #@! TO.N,MCP_SHDN*
X142367000Y-82541000D03*
D20*
G04 #@! TO.N,Net-(J1-Pad5)*
X141224000Y-103378000D03*
G04 #@! TO.N,GND*
X152527000Y-89916000D03*
X156845000Y-91440000D03*
X137414000Y-87122000D03*
X154305000Y-79375000D03*
X144018000Y-84709000D03*
X153924000Y-86106000D03*
X151129954Y-95504000D03*
X139827000Y-98425000D03*
X157802865Y-85529135D03*
G04 #@! TO.N,+5V*
X152654000Y-84709000D03*
X148336000Y-87630000D03*
X140843000Y-85724995D03*
X157542730Y-84321591D03*
X146685000Y-84708992D03*
G04 #@! TO.N,RST*
X135763000Y-88392008D03*
X148082000Y-79338010D03*
X145034000Y-78866998D03*
G04 #@! TO.N,SCK*
X140716000Y-91567000D03*
X142240000Y-89026996D03*
G04 #@! TO.N,MOSI*
X145317633Y-86457367D03*
G04 #@! TO.N,MISO*
X144375304Y-86122644D03*
G04 #@! TO.N,LED4*
X146318908Y-87630284D03*
G04 #@! TO.N,LED3*
X147320000Y-87630000D03*
G04 #@! TO.N,LED2*
X138430000Y-88392000D03*
G04 #@! TO.N,LED1*
X137414000Y-88392000D03*
G04 #@! TO.N,MCP_SHDN*
X147828000Y-82550000D03*
G04 #@! TO.N,MCP_CS*
X149534988Y-83888160D03*
G04 #@! TD*
D21*
G04 #@! TO.N,Net-(J1-Pad5)*
X141623999Y-103777999D02*
X141224000Y-103378000D01*
X141630610Y-103784610D02*
X141623999Y-103777999D01*
X149414760Y-103784610D02*
X141630610Y-103784610D01*
X149858400Y-103340970D02*
X149414760Y-103784610D01*
X149858400Y-102209600D02*
X149858400Y-103340970D01*
G04 #@! TO.N,Net-(J3-Pad1)*
X134620000Y-80180000D02*
X134620000Y-81280000D01*
X134835000Y-79965000D02*
X134620000Y-80180000D01*
X146275000Y-79965000D02*
X134835000Y-79965000D01*
G04 #@! TO.N,Net-(J3-Pad2)*
X137439002Y-83820000D02*
X135822081Y-83820000D01*
X140644002Y-80615000D02*
X137439002Y-83820000D01*
X135822081Y-83820000D02*
X134620000Y-83820000D01*
X146275000Y-80615000D02*
X140644002Y-80615000D01*
G04 #@! TO.N,Net-(J3-Pad3)*
X135469999Y-85510001D02*
X134620000Y-86360000D01*
X136385411Y-85510001D02*
X135469999Y-85510001D01*
X140635422Y-81259990D02*
X136385411Y-85510001D01*
X145294990Y-81259990D02*
X140635422Y-81259990D01*
X145300000Y-81265000D02*
X145294990Y-81259990D01*
X146275000Y-81265000D02*
X145300000Y-81265000D01*
G04 #@! TO.N,Net-(J4-Pad3)*
X161357919Y-86360000D02*
X162560000Y-86360000D01*
X156195000Y-81265000D02*
X161290000Y-86360000D01*
X161290000Y-86360000D02*
X161357919Y-86360000D01*
X152175000Y-81265000D02*
X156195000Y-81265000D01*
G04 #@! TO.N,Net-(J4-Pad2)*
X159482000Y-80615000D02*
X162560000Y-83693000D01*
X162560000Y-83693000D02*
X162560000Y-83820000D01*
X152175000Y-80615000D02*
X159482000Y-80615000D01*
G04 #@! TO.N,Net-(J4-Pad1)*
X162560000Y-80180000D02*
X162560000Y-81280000D01*
X162517000Y-80137000D02*
X162560000Y-80180000D01*
X153225001Y-80137000D02*
X162517000Y-80137000D01*
X153225001Y-80129999D02*
X153225001Y-80137000D01*
X152175000Y-79965000D02*
X152274999Y-80064999D01*
X153160001Y-80064999D02*
X153225001Y-80129999D01*
X152274999Y-80064999D02*
X153160001Y-80064999D01*
G04 #@! TO.N,GND*
X139827000Y-89163000D02*
X139954000Y-89036000D01*
D22*
X155321000Y-89916000D02*
X152527000Y-89916000D01*
X156845000Y-91440000D02*
X155321000Y-89916000D01*
X151494998Y-78975001D02*
X151049977Y-79420022D01*
X151049977Y-79420022D02*
X151050000Y-81915000D01*
X153905001Y-78975001D02*
X151494998Y-78975001D01*
X151050000Y-81915000D02*
X152175000Y-81915000D01*
X154305000Y-79375000D02*
X153905001Y-78975001D01*
X142485000Y-84709000D02*
X142367000Y-84591000D01*
X144018000Y-84709000D02*
X142485000Y-84709000D01*
X140577372Y-88412628D02*
X139954000Y-89036000D01*
X141743628Y-85214372D02*
X141743628Y-87246372D01*
X141743628Y-87246372D02*
X140577372Y-88412628D01*
X142367000Y-84591000D02*
X141743628Y-85214372D01*
X139330628Y-88412628D02*
X139954000Y-89036000D01*
X139330628Y-88108626D02*
X139330628Y-88412628D01*
X138344002Y-87122000D02*
X139330628Y-88108626D01*
X137414000Y-87122000D02*
X138344002Y-87122000D01*
X156845000Y-91440000D02*
X156845000Y-86487000D01*
X157226000Y-86106000D02*
X157588001Y-85743999D01*
X156845000Y-86487000D02*
X157588001Y-85743999D01*
X153924000Y-86106000D02*
X157226000Y-86106000D01*
X151529953Y-95104001D02*
X151129954Y-95504000D01*
X152527000Y-94106954D02*
X151529953Y-95104001D01*
X152527000Y-89916000D02*
X152527000Y-94106954D01*
X139954000Y-89711000D02*
X139827000Y-89838000D01*
X139827000Y-89838000D02*
X139827000Y-98425000D01*
X139954000Y-89036000D02*
X139954000Y-89711000D01*
X151529953Y-95903999D02*
X151129954Y-95504000D01*
X134620000Y-101600000D02*
X137668000Y-104648000D01*
X156138401Y-102993855D02*
X156138401Y-100512447D01*
X156138401Y-100512447D02*
X151529953Y-95903999D01*
X154484256Y-104648000D02*
X156138401Y-102993855D01*
X137668000Y-104648000D02*
X154484256Y-104648000D01*
X157588001Y-85743999D02*
X157802865Y-85529135D01*
G04 #@! TO.N,+5V*
X157155321Y-84709000D02*
X157542730Y-84321591D01*
X152654000Y-84709000D02*
X157155321Y-84709000D01*
X146493992Y-84708992D02*
X146685000Y-84708992D01*
X146275000Y-84490000D02*
X146493992Y-84708992D01*
X146275000Y-83865000D02*
X146275000Y-84490000D01*
X140843000Y-85159310D02*
X140843000Y-85724995D01*
X140843000Y-84420744D02*
X140843000Y-85159310D01*
X141647754Y-83615990D02*
X140843000Y-84420744D01*
X143086246Y-83615990D02*
X141647754Y-83615990D01*
X143335256Y-83865000D02*
X143086246Y-83615990D01*
X146275000Y-83865000D02*
X143335256Y-83865000D01*
X139954000Y-86613995D02*
X140843000Y-85724995D01*
X139954000Y-86986000D02*
X139954000Y-86613995D01*
X148336000Y-99863600D02*
X148599200Y-100126800D01*
X148336000Y-87630000D02*
X148336000Y-99863600D01*
D21*
G04 #@! TO.N,RST*
X134620000Y-99060000D02*
X136162999Y-97517001D01*
X136162999Y-88792007D02*
X135763000Y-88392008D01*
X136162999Y-97517001D02*
X136162999Y-88792007D01*
X148082000Y-79338010D02*
X145505012Y-79338010D01*
X145433999Y-79266997D02*
X145034000Y-78866998D01*
X145505012Y-79338010D02*
X145433999Y-79266997D01*
G04 #@! TO.N,SCK*
X142240000Y-90043000D02*
X142240000Y-89592681D01*
X142240000Y-89592681D02*
X142240000Y-89026996D01*
X140716000Y-91567000D02*
X142240000Y-90043000D01*
X142805685Y-89026996D02*
X142240000Y-89026996D01*
X152175000Y-83215000D02*
X151200000Y-83215000D01*
X151200000Y-83215000D02*
X151148159Y-83163159D01*
X145942719Y-86905283D02*
X143821006Y-89026996D01*
X148532011Y-85334813D02*
X146961541Y-86905283D01*
X149186987Y-83163159D02*
X148532011Y-83818135D01*
X148532011Y-83818135D02*
X148532011Y-85334813D01*
X146961541Y-86905283D02*
X145942719Y-86905283D01*
X151148159Y-83163159D02*
X149186987Y-83163159D01*
X143821006Y-89026996D02*
X142805685Y-89026996D01*
G04 #@! TO.N,MOSI*
X145717632Y-86057368D02*
X145317633Y-86457367D01*
X148956000Y-82565000D02*
X147860012Y-83660988D01*
X152175000Y-82565000D02*
X148956000Y-82565000D01*
X147860012Y-83660988D02*
X147860012Y-85370401D01*
X147173045Y-86057368D02*
X145717632Y-86057368D01*
X147860012Y-85370401D02*
X147173045Y-86057368D01*
G04 #@! TO.N,MISO*
X146275000Y-83215000D02*
X147250000Y-83215000D01*
X144775303Y-85722645D02*
X144375304Y-86122644D01*
X144936939Y-85561009D02*
X144775303Y-85722645D01*
X147410001Y-85184009D02*
X147033001Y-85561009D01*
X147250000Y-83215000D02*
X147410001Y-83375001D01*
X147033001Y-85561009D02*
X144936939Y-85561009D01*
X147410001Y-83375001D02*
X147410001Y-85184009D01*
G04 #@! TO.N,LED4*
X146318908Y-88195969D02*
X146318908Y-87630284D01*
X146193399Y-103334601D02*
X143948401Y-103334601D01*
X147318400Y-102209600D02*
X146193399Y-103334601D01*
X143948401Y-103334601D02*
X143653399Y-103039599D01*
X143653399Y-103039599D02*
X143653399Y-99043601D01*
X143653399Y-99043601D02*
X146318908Y-96378092D01*
X146318908Y-96378092D02*
X146318908Y-88195969D01*
G04 #@! TO.N,LED3*
X144774199Y-98938801D02*
X147320000Y-96393000D01*
X147320000Y-96393000D02*
X147320000Y-87630000D01*
X144774199Y-102205399D02*
X144774199Y-98938801D01*
X144778400Y-102209600D02*
X144774199Y-102205399D01*
G04 #@! TO.N,LED2*
X138430000Y-98401200D02*
X142367000Y-102338200D01*
X138430000Y-88392000D02*
X138430000Y-98401200D01*
G04 #@! TO.N,LED1*
X137414000Y-88957685D02*
X137414000Y-88392000D01*
X137414000Y-98875200D02*
X137414000Y-88957685D01*
X139698400Y-101159600D02*
X137414000Y-98875200D01*
X139698400Y-102209600D02*
X139698400Y-101159600D01*
G04 #@! TO.N,MCP_SHDN*
X142391000Y-82565000D02*
X142367000Y-82541000D01*
X146275000Y-82565000D02*
X142391000Y-82565000D01*
X146290000Y-82550000D02*
X146275000Y-82565000D01*
X147828000Y-82550000D02*
X146290000Y-82550000D01*
G04 #@! TO.N,MCP_CS*
X152175000Y-83865000D02*
X149558148Y-83865000D01*
X149558148Y-83865000D02*
X149534988Y-83888160D01*
G04 #@! TD*
M02*
