%TF.GenerationSoftware,KiCad,Pcbnew,(5.0.2-5)-5*%
%TF.CreationDate,2019-09-23T09:23:43+03:00*%
%TF.ProjectId,digi_pot,64696769-5f70-46f7-942e-6b696361645f,rev?*%
%TF.SameCoordinates,Original*%
%TF.FileFunction,Plated,1,2,PTH,Mixed*%
%TF.FilePolarity,Positive*%
%FSLAX46Y46*%
G04 Gerber Fmt 4.6, Leading zero omitted, Abs format (unit mm)*
G04 Created by KiCad (PCBNEW (5.0.2-5)-5) date 2019 September 23, Monday 09:23:43*
%MOMM*%
%LPD*%
G01*
G04 APERTURE LIST*
%TA.AperFunction,ViaDrill*%
%ADD10C,0.400000*%
%TD*%
%TA.AperFunction,ComponentDrill*%
%ADD11C,0.800000*%
%TD*%
%TA.AperFunction,ComponentDrill*%
%ADD12C,1.000000*%
%TD*%
%TA.AperFunction,Slot*%
%ADD13C,2.000000*%
%TD*%
G04 APERTURE END LIST*
D10*
X135763000Y-88392008D03*
X137414000Y-87122000D03*
X137414000Y-88392000D03*
X138430000Y-88392000D03*
X139827000Y-98425000D03*
X140716000Y-91567000D03*
X140843000Y-85724995D03*
X141224000Y-103378000D03*
X142240000Y-89026996D03*
X144018000Y-84709000D03*
X144375304Y-86122644D03*
X145034000Y-78866998D03*
X145317633Y-86457367D03*
X146318908Y-87630284D03*
X146685000Y-84708992D03*
X147320000Y-87630000D03*
X147828000Y-82550000D03*
X148082000Y-79338010D03*
X148336000Y-87630000D03*
X149534988Y-83888160D03*
X151129954Y-95504000D03*
X152527000Y-89916000D03*
X152654000Y-84709000D03*
X153924000Y-86106000D03*
X154305000Y-79375000D03*
X156845000Y-91440000D03*
X157542730Y-84321591D03*
X157802865Y-85529135D03*
D11*
%TO.C,J1*%
X139698400Y-102209600D03*
X142238400Y-102209600D03*
X144778400Y-102209600D03*
X147318400Y-102209600D03*
X149858400Y-102209600D03*
X152398400Y-102209600D03*
X154938400Y-102209600D03*
X157478400Y-102209600D03*
D12*
%TO.C,J2*%
X134620000Y-91440000D03*
X134620000Y-93980000D03*
X134620000Y-96520000D03*
X134620000Y-99060000D03*
X134620000Y-101600000D03*
X134620000Y-104140000D03*
%TO.C,J3*%
X134620000Y-81280000D03*
X134620000Y-83820000D03*
X134620000Y-86360000D03*
%TO.C,SW1*%
X146099200Y-100126800D03*
X148599200Y-100126800D03*
X151099200Y-100126800D03*
%TO.C,J4*%
X162560000Y-81280000D03*
X162560000Y-83820000D03*
X162560000Y-86360000D03*
%TO.C,J5*%
X162560000Y-91440000D03*
X162560000Y-93980000D03*
X162560000Y-96520000D03*
X162560000Y-99060000D03*
X162560000Y-101600000D03*
X162560000Y-104140000D03*
D13*
%TO.C,SW1*%
X142999200Y-92376800D02*
X142999200Y-92876800D01*
X154199200Y-92376800D02*
X154199200Y-92876800D01*
M02*
