G04 #@! TF.GenerationSoftware,KiCad,Pcbnew,(5.0.2-5)-5*
G04 #@! TF.CreationDate,2019-09-23T09:23:56+03:00*
G04 #@! TF.ProjectId,digi_pot,64696769-5f70-46f7-942e-6b696361645f,rev?*
G04 #@! TF.SameCoordinates,Original*
G04 #@! TF.FileFunction,Paste,Bot*
G04 #@! TF.FilePolarity,Positive*
%FSLAX46Y46*%
G04 Gerber Fmt 4.6, Leading zero omitted, Abs format (unit mm)*
G04 Created by KiCad (PCBNEW (5.0.2-5)-5) date 2019 September 23, Monday 09:23:56*
%MOMM*%
%LPD*%
G01*
G04 APERTURE LIST*
%ADD10C,0.100000*%
%ADD11C,1.150000*%
%ADD12R,1.600000X0.550000*%
%ADD13R,0.550000X1.600000*%
G04 APERTURE END LIST*
D10*
G04 #@! TO.C,R4*
G36*
X158589505Y-96826204D02*
X158613773Y-96829804D01*
X158637572Y-96835765D01*
X158660671Y-96844030D01*
X158682850Y-96854520D01*
X158703893Y-96867132D01*
X158723599Y-96881747D01*
X158741777Y-96898223D01*
X158758253Y-96916401D01*
X158772868Y-96936107D01*
X158785480Y-96957150D01*
X158795970Y-96979329D01*
X158804235Y-97002428D01*
X158810196Y-97026227D01*
X158813796Y-97050495D01*
X158815000Y-97074999D01*
X158815000Y-97725001D01*
X158813796Y-97749505D01*
X158810196Y-97773773D01*
X158804235Y-97797572D01*
X158795970Y-97820671D01*
X158785480Y-97842850D01*
X158772868Y-97863893D01*
X158758253Y-97883599D01*
X158741777Y-97901777D01*
X158723599Y-97918253D01*
X158703893Y-97932868D01*
X158682850Y-97945480D01*
X158660671Y-97955970D01*
X158637572Y-97964235D01*
X158613773Y-97970196D01*
X158589505Y-97973796D01*
X158565001Y-97975000D01*
X157664999Y-97975000D01*
X157640495Y-97973796D01*
X157616227Y-97970196D01*
X157592428Y-97964235D01*
X157569329Y-97955970D01*
X157547150Y-97945480D01*
X157526107Y-97932868D01*
X157506401Y-97918253D01*
X157488223Y-97901777D01*
X157471747Y-97883599D01*
X157457132Y-97863893D01*
X157444520Y-97842850D01*
X157434030Y-97820671D01*
X157425765Y-97797572D01*
X157419804Y-97773773D01*
X157416204Y-97749505D01*
X157415000Y-97725001D01*
X157415000Y-97074999D01*
X157416204Y-97050495D01*
X157419804Y-97026227D01*
X157425765Y-97002428D01*
X157434030Y-96979329D01*
X157444520Y-96957150D01*
X157457132Y-96936107D01*
X157471747Y-96916401D01*
X157488223Y-96898223D01*
X157506401Y-96881747D01*
X157526107Y-96867132D01*
X157547150Y-96854520D01*
X157569329Y-96844030D01*
X157592428Y-96835765D01*
X157616227Y-96829804D01*
X157640495Y-96826204D01*
X157664999Y-96825000D01*
X158565001Y-96825000D01*
X158589505Y-96826204D01*
X158589505Y-96826204D01*
G37*
D11*
X158115000Y-97400000D03*
D10*
G36*
X158589505Y-98876204D02*
X158613773Y-98879804D01*
X158637572Y-98885765D01*
X158660671Y-98894030D01*
X158682850Y-98904520D01*
X158703893Y-98917132D01*
X158723599Y-98931747D01*
X158741777Y-98948223D01*
X158758253Y-98966401D01*
X158772868Y-98986107D01*
X158785480Y-99007150D01*
X158795970Y-99029329D01*
X158804235Y-99052428D01*
X158810196Y-99076227D01*
X158813796Y-99100495D01*
X158815000Y-99124999D01*
X158815000Y-99775001D01*
X158813796Y-99799505D01*
X158810196Y-99823773D01*
X158804235Y-99847572D01*
X158795970Y-99870671D01*
X158785480Y-99892850D01*
X158772868Y-99913893D01*
X158758253Y-99933599D01*
X158741777Y-99951777D01*
X158723599Y-99968253D01*
X158703893Y-99982868D01*
X158682850Y-99995480D01*
X158660671Y-100005970D01*
X158637572Y-100014235D01*
X158613773Y-100020196D01*
X158589505Y-100023796D01*
X158565001Y-100025000D01*
X157664999Y-100025000D01*
X157640495Y-100023796D01*
X157616227Y-100020196D01*
X157592428Y-100014235D01*
X157569329Y-100005970D01*
X157547150Y-99995480D01*
X157526107Y-99982868D01*
X157506401Y-99968253D01*
X157488223Y-99951777D01*
X157471747Y-99933599D01*
X157457132Y-99913893D01*
X157444520Y-99892850D01*
X157434030Y-99870671D01*
X157425765Y-99847572D01*
X157419804Y-99823773D01*
X157416204Y-99799505D01*
X157415000Y-99775001D01*
X157415000Y-99124999D01*
X157416204Y-99100495D01*
X157419804Y-99076227D01*
X157425765Y-99052428D01*
X157434030Y-99029329D01*
X157444520Y-99007150D01*
X157457132Y-98986107D01*
X157471747Y-98966401D01*
X157488223Y-98948223D01*
X157506401Y-98931747D01*
X157526107Y-98917132D01*
X157547150Y-98904520D01*
X157569329Y-98894030D01*
X157592428Y-98885765D01*
X157616227Y-98879804D01*
X157640495Y-98876204D01*
X157664999Y-98875000D01*
X158565001Y-98875000D01*
X158589505Y-98876204D01*
X158589505Y-98876204D01*
G37*
D11*
X158115000Y-99450000D03*
G04 #@! TD*
D12*
G04 #@! TO.C,U1*
X150935000Y-82290000D03*
X150935000Y-83090000D03*
X150935000Y-83890000D03*
X150935000Y-84690000D03*
X150935000Y-85490000D03*
X150935000Y-86290000D03*
X150935000Y-87090000D03*
X150935000Y-87890000D03*
D13*
X149485000Y-89340000D03*
X148685000Y-89340000D03*
X147885000Y-89340000D03*
X147085000Y-89340000D03*
X146285000Y-89340000D03*
X145485000Y-89340000D03*
X144685000Y-89340000D03*
X143885000Y-89340000D03*
D12*
X142435000Y-87890000D03*
X142435000Y-87090000D03*
X142435000Y-86290000D03*
X142435000Y-85490000D03*
X142435000Y-84690000D03*
X142435000Y-83890000D03*
X142435000Y-83090000D03*
X142435000Y-82290000D03*
D13*
X143885000Y-80840000D03*
X144685000Y-80840000D03*
X145485000Y-80840000D03*
X146285000Y-80840000D03*
X147085000Y-80840000D03*
X147885000Y-80840000D03*
X148685000Y-80840000D03*
X149485000Y-80840000D03*
G04 #@! TD*
D10*
G04 #@! TO.C,R1*
G36*
X142206505Y-98876204D02*
X142230773Y-98879804D01*
X142254572Y-98885765D01*
X142277671Y-98894030D01*
X142299850Y-98904520D01*
X142320893Y-98917132D01*
X142340599Y-98931747D01*
X142358777Y-98948223D01*
X142375253Y-98966401D01*
X142389868Y-98986107D01*
X142402480Y-99007150D01*
X142412970Y-99029329D01*
X142421235Y-99052428D01*
X142427196Y-99076227D01*
X142430796Y-99100495D01*
X142432000Y-99124999D01*
X142432000Y-99775001D01*
X142430796Y-99799505D01*
X142427196Y-99823773D01*
X142421235Y-99847572D01*
X142412970Y-99870671D01*
X142402480Y-99892850D01*
X142389868Y-99913893D01*
X142375253Y-99933599D01*
X142358777Y-99951777D01*
X142340599Y-99968253D01*
X142320893Y-99982868D01*
X142299850Y-99995480D01*
X142277671Y-100005970D01*
X142254572Y-100014235D01*
X142230773Y-100020196D01*
X142206505Y-100023796D01*
X142182001Y-100025000D01*
X141281999Y-100025000D01*
X141257495Y-100023796D01*
X141233227Y-100020196D01*
X141209428Y-100014235D01*
X141186329Y-100005970D01*
X141164150Y-99995480D01*
X141143107Y-99982868D01*
X141123401Y-99968253D01*
X141105223Y-99951777D01*
X141088747Y-99933599D01*
X141074132Y-99913893D01*
X141061520Y-99892850D01*
X141051030Y-99870671D01*
X141042765Y-99847572D01*
X141036804Y-99823773D01*
X141033204Y-99799505D01*
X141032000Y-99775001D01*
X141032000Y-99124999D01*
X141033204Y-99100495D01*
X141036804Y-99076227D01*
X141042765Y-99052428D01*
X141051030Y-99029329D01*
X141061520Y-99007150D01*
X141074132Y-98986107D01*
X141088747Y-98966401D01*
X141105223Y-98948223D01*
X141123401Y-98931747D01*
X141143107Y-98917132D01*
X141164150Y-98904520D01*
X141186329Y-98894030D01*
X141209428Y-98885765D01*
X141233227Y-98879804D01*
X141257495Y-98876204D01*
X141281999Y-98875000D01*
X142182001Y-98875000D01*
X142206505Y-98876204D01*
X142206505Y-98876204D01*
G37*
D11*
X141732000Y-99450000D03*
D10*
G36*
X142206505Y-96826204D02*
X142230773Y-96829804D01*
X142254572Y-96835765D01*
X142277671Y-96844030D01*
X142299850Y-96854520D01*
X142320893Y-96867132D01*
X142340599Y-96881747D01*
X142358777Y-96898223D01*
X142375253Y-96916401D01*
X142389868Y-96936107D01*
X142402480Y-96957150D01*
X142412970Y-96979329D01*
X142421235Y-97002428D01*
X142427196Y-97026227D01*
X142430796Y-97050495D01*
X142432000Y-97074999D01*
X142432000Y-97725001D01*
X142430796Y-97749505D01*
X142427196Y-97773773D01*
X142421235Y-97797572D01*
X142412970Y-97820671D01*
X142402480Y-97842850D01*
X142389868Y-97863893D01*
X142375253Y-97883599D01*
X142358777Y-97901777D01*
X142340599Y-97918253D01*
X142320893Y-97932868D01*
X142299850Y-97945480D01*
X142277671Y-97955970D01*
X142254572Y-97964235D01*
X142230773Y-97970196D01*
X142206505Y-97973796D01*
X142182001Y-97975000D01*
X141281999Y-97975000D01*
X141257495Y-97973796D01*
X141233227Y-97970196D01*
X141209428Y-97964235D01*
X141186329Y-97955970D01*
X141164150Y-97945480D01*
X141143107Y-97932868D01*
X141123401Y-97918253D01*
X141105223Y-97901777D01*
X141088747Y-97883599D01*
X141074132Y-97863893D01*
X141061520Y-97842850D01*
X141051030Y-97820671D01*
X141042765Y-97797572D01*
X141036804Y-97773773D01*
X141033204Y-97749505D01*
X141032000Y-97725001D01*
X141032000Y-97074999D01*
X141033204Y-97050495D01*
X141036804Y-97026227D01*
X141042765Y-97002428D01*
X141051030Y-96979329D01*
X141061520Y-96957150D01*
X141074132Y-96936107D01*
X141088747Y-96916401D01*
X141105223Y-96898223D01*
X141123401Y-96881747D01*
X141143107Y-96867132D01*
X141164150Y-96854520D01*
X141186329Y-96844030D01*
X141209428Y-96835765D01*
X141233227Y-96829804D01*
X141257495Y-96826204D01*
X141281999Y-96825000D01*
X142182001Y-96825000D01*
X142206505Y-96826204D01*
X142206505Y-96826204D01*
G37*
D11*
X141732000Y-97400000D03*
G04 #@! TD*
D10*
G04 #@! TO.C,R2*
G36*
X154906505Y-96826204D02*
X154930773Y-96829804D01*
X154954572Y-96835765D01*
X154977671Y-96844030D01*
X154999850Y-96854520D01*
X155020893Y-96867132D01*
X155040599Y-96881747D01*
X155058777Y-96898223D01*
X155075253Y-96916401D01*
X155089868Y-96936107D01*
X155102480Y-96957150D01*
X155112970Y-96979329D01*
X155121235Y-97002428D01*
X155127196Y-97026227D01*
X155130796Y-97050495D01*
X155132000Y-97074999D01*
X155132000Y-97725001D01*
X155130796Y-97749505D01*
X155127196Y-97773773D01*
X155121235Y-97797572D01*
X155112970Y-97820671D01*
X155102480Y-97842850D01*
X155089868Y-97863893D01*
X155075253Y-97883599D01*
X155058777Y-97901777D01*
X155040599Y-97918253D01*
X155020893Y-97932868D01*
X154999850Y-97945480D01*
X154977671Y-97955970D01*
X154954572Y-97964235D01*
X154930773Y-97970196D01*
X154906505Y-97973796D01*
X154882001Y-97975000D01*
X153981999Y-97975000D01*
X153957495Y-97973796D01*
X153933227Y-97970196D01*
X153909428Y-97964235D01*
X153886329Y-97955970D01*
X153864150Y-97945480D01*
X153843107Y-97932868D01*
X153823401Y-97918253D01*
X153805223Y-97901777D01*
X153788747Y-97883599D01*
X153774132Y-97863893D01*
X153761520Y-97842850D01*
X153751030Y-97820671D01*
X153742765Y-97797572D01*
X153736804Y-97773773D01*
X153733204Y-97749505D01*
X153732000Y-97725001D01*
X153732000Y-97074999D01*
X153733204Y-97050495D01*
X153736804Y-97026227D01*
X153742765Y-97002428D01*
X153751030Y-96979329D01*
X153761520Y-96957150D01*
X153774132Y-96936107D01*
X153788747Y-96916401D01*
X153805223Y-96898223D01*
X153823401Y-96881747D01*
X153843107Y-96867132D01*
X153864150Y-96854520D01*
X153886329Y-96844030D01*
X153909428Y-96835765D01*
X153933227Y-96829804D01*
X153957495Y-96826204D01*
X153981999Y-96825000D01*
X154882001Y-96825000D01*
X154906505Y-96826204D01*
X154906505Y-96826204D01*
G37*
D11*
X154432000Y-97400000D03*
D10*
G36*
X154906505Y-98876204D02*
X154930773Y-98879804D01*
X154954572Y-98885765D01*
X154977671Y-98894030D01*
X154999850Y-98904520D01*
X155020893Y-98917132D01*
X155040599Y-98931747D01*
X155058777Y-98948223D01*
X155075253Y-98966401D01*
X155089868Y-98986107D01*
X155102480Y-99007150D01*
X155112970Y-99029329D01*
X155121235Y-99052428D01*
X155127196Y-99076227D01*
X155130796Y-99100495D01*
X155132000Y-99124999D01*
X155132000Y-99775001D01*
X155130796Y-99799505D01*
X155127196Y-99823773D01*
X155121235Y-99847572D01*
X155112970Y-99870671D01*
X155102480Y-99892850D01*
X155089868Y-99913893D01*
X155075253Y-99933599D01*
X155058777Y-99951777D01*
X155040599Y-99968253D01*
X155020893Y-99982868D01*
X154999850Y-99995480D01*
X154977671Y-100005970D01*
X154954572Y-100014235D01*
X154930773Y-100020196D01*
X154906505Y-100023796D01*
X154882001Y-100025000D01*
X153981999Y-100025000D01*
X153957495Y-100023796D01*
X153933227Y-100020196D01*
X153909428Y-100014235D01*
X153886329Y-100005970D01*
X153864150Y-99995480D01*
X153843107Y-99982868D01*
X153823401Y-99968253D01*
X153805223Y-99951777D01*
X153788747Y-99933599D01*
X153774132Y-99913893D01*
X153761520Y-99892850D01*
X153751030Y-99870671D01*
X153742765Y-99847572D01*
X153736804Y-99823773D01*
X153733204Y-99799505D01*
X153732000Y-99775001D01*
X153732000Y-99124999D01*
X153733204Y-99100495D01*
X153736804Y-99076227D01*
X153742765Y-99052428D01*
X153751030Y-99029329D01*
X153761520Y-99007150D01*
X153774132Y-98986107D01*
X153788747Y-98966401D01*
X153805223Y-98948223D01*
X153823401Y-98931747D01*
X153843107Y-98917132D01*
X153864150Y-98904520D01*
X153886329Y-98894030D01*
X153909428Y-98885765D01*
X153933227Y-98879804D01*
X153957495Y-98876204D01*
X153981999Y-98875000D01*
X154882001Y-98875000D01*
X154906505Y-98876204D01*
X154906505Y-98876204D01*
G37*
D11*
X154432000Y-99450000D03*
G04 #@! TD*
D10*
G04 #@! TO.C,R3*
G36*
X156684505Y-98876204D02*
X156708773Y-98879804D01*
X156732572Y-98885765D01*
X156755671Y-98894030D01*
X156777850Y-98904520D01*
X156798893Y-98917132D01*
X156818599Y-98931747D01*
X156836777Y-98948223D01*
X156853253Y-98966401D01*
X156867868Y-98986107D01*
X156880480Y-99007150D01*
X156890970Y-99029329D01*
X156899235Y-99052428D01*
X156905196Y-99076227D01*
X156908796Y-99100495D01*
X156910000Y-99124999D01*
X156910000Y-99775001D01*
X156908796Y-99799505D01*
X156905196Y-99823773D01*
X156899235Y-99847572D01*
X156890970Y-99870671D01*
X156880480Y-99892850D01*
X156867868Y-99913893D01*
X156853253Y-99933599D01*
X156836777Y-99951777D01*
X156818599Y-99968253D01*
X156798893Y-99982868D01*
X156777850Y-99995480D01*
X156755671Y-100005970D01*
X156732572Y-100014235D01*
X156708773Y-100020196D01*
X156684505Y-100023796D01*
X156660001Y-100025000D01*
X155759999Y-100025000D01*
X155735495Y-100023796D01*
X155711227Y-100020196D01*
X155687428Y-100014235D01*
X155664329Y-100005970D01*
X155642150Y-99995480D01*
X155621107Y-99982868D01*
X155601401Y-99968253D01*
X155583223Y-99951777D01*
X155566747Y-99933599D01*
X155552132Y-99913893D01*
X155539520Y-99892850D01*
X155529030Y-99870671D01*
X155520765Y-99847572D01*
X155514804Y-99823773D01*
X155511204Y-99799505D01*
X155510000Y-99775001D01*
X155510000Y-99124999D01*
X155511204Y-99100495D01*
X155514804Y-99076227D01*
X155520765Y-99052428D01*
X155529030Y-99029329D01*
X155539520Y-99007150D01*
X155552132Y-98986107D01*
X155566747Y-98966401D01*
X155583223Y-98948223D01*
X155601401Y-98931747D01*
X155621107Y-98917132D01*
X155642150Y-98904520D01*
X155664329Y-98894030D01*
X155687428Y-98885765D01*
X155711227Y-98879804D01*
X155735495Y-98876204D01*
X155759999Y-98875000D01*
X156660001Y-98875000D01*
X156684505Y-98876204D01*
X156684505Y-98876204D01*
G37*
D11*
X156210000Y-99450000D03*
D10*
G36*
X156684505Y-96826204D02*
X156708773Y-96829804D01*
X156732572Y-96835765D01*
X156755671Y-96844030D01*
X156777850Y-96854520D01*
X156798893Y-96867132D01*
X156818599Y-96881747D01*
X156836777Y-96898223D01*
X156853253Y-96916401D01*
X156867868Y-96936107D01*
X156880480Y-96957150D01*
X156890970Y-96979329D01*
X156899235Y-97002428D01*
X156905196Y-97026227D01*
X156908796Y-97050495D01*
X156910000Y-97074999D01*
X156910000Y-97725001D01*
X156908796Y-97749505D01*
X156905196Y-97773773D01*
X156899235Y-97797572D01*
X156890970Y-97820671D01*
X156880480Y-97842850D01*
X156867868Y-97863893D01*
X156853253Y-97883599D01*
X156836777Y-97901777D01*
X156818599Y-97918253D01*
X156798893Y-97932868D01*
X156777850Y-97945480D01*
X156755671Y-97955970D01*
X156732572Y-97964235D01*
X156708773Y-97970196D01*
X156684505Y-97973796D01*
X156660001Y-97975000D01*
X155759999Y-97975000D01*
X155735495Y-97973796D01*
X155711227Y-97970196D01*
X155687428Y-97964235D01*
X155664329Y-97955970D01*
X155642150Y-97945480D01*
X155621107Y-97932868D01*
X155601401Y-97918253D01*
X155583223Y-97901777D01*
X155566747Y-97883599D01*
X155552132Y-97863893D01*
X155539520Y-97842850D01*
X155529030Y-97820671D01*
X155520765Y-97797572D01*
X155514804Y-97773773D01*
X155511204Y-97749505D01*
X155510000Y-97725001D01*
X155510000Y-97074999D01*
X155511204Y-97050495D01*
X155514804Y-97026227D01*
X155520765Y-97002428D01*
X155529030Y-96979329D01*
X155539520Y-96957150D01*
X155552132Y-96936107D01*
X155566747Y-96916401D01*
X155583223Y-96898223D01*
X155601401Y-96881747D01*
X155621107Y-96867132D01*
X155642150Y-96854520D01*
X155664329Y-96844030D01*
X155687428Y-96835765D01*
X155711227Y-96829804D01*
X155735495Y-96826204D01*
X155759999Y-96825000D01*
X156660001Y-96825000D01*
X156684505Y-96826204D01*
X156684505Y-96826204D01*
G37*
D11*
X156210000Y-97400000D03*
G04 #@! TD*
D10*
G04 #@! TO.C,C1*
G36*
X159605505Y-85541204D02*
X159629773Y-85544804D01*
X159653572Y-85550765D01*
X159676671Y-85559030D01*
X159698850Y-85569520D01*
X159719893Y-85582132D01*
X159739599Y-85596747D01*
X159757777Y-85613223D01*
X159774253Y-85631401D01*
X159788868Y-85651107D01*
X159801480Y-85672150D01*
X159811970Y-85694329D01*
X159820235Y-85717428D01*
X159826196Y-85741227D01*
X159829796Y-85765495D01*
X159831000Y-85789999D01*
X159831000Y-86440001D01*
X159829796Y-86464505D01*
X159826196Y-86488773D01*
X159820235Y-86512572D01*
X159811970Y-86535671D01*
X159801480Y-86557850D01*
X159788868Y-86578893D01*
X159774253Y-86598599D01*
X159757777Y-86616777D01*
X159739599Y-86633253D01*
X159719893Y-86647868D01*
X159698850Y-86660480D01*
X159676671Y-86670970D01*
X159653572Y-86679235D01*
X159629773Y-86685196D01*
X159605505Y-86688796D01*
X159581001Y-86690000D01*
X158680999Y-86690000D01*
X158656495Y-86688796D01*
X158632227Y-86685196D01*
X158608428Y-86679235D01*
X158585329Y-86670970D01*
X158563150Y-86660480D01*
X158542107Y-86647868D01*
X158522401Y-86633253D01*
X158504223Y-86616777D01*
X158487747Y-86598599D01*
X158473132Y-86578893D01*
X158460520Y-86557850D01*
X158450030Y-86535671D01*
X158441765Y-86512572D01*
X158435804Y-86488773D01*
X158432204Y-86464505D01*
X158431000Y-86440001D01*
X158431000Y-85789999D01*
X158432204Y-85765495D01*
X158435804Y-85741227D01*
X158441765Y-85717428D01*
X158450030Y-85694329D01*
X158460520Y-85672150D01*
X158473132Y-85651107D01*
X158487747Y-85631401D01*
X158504223Y-85613223D01*
X158522401Y-85596747D01*
X158542107Y-85582132D01*
X158563150Y-85569520D01*
X158585329Y-85559030D01*
X158608428Y-85550765D01*
X158632227Y-85544804D01*
X158656495Y-85541204D01*
X158680999Y-85540000D01*
X159581001Y-85540000D01*
X159605505Y-85541204D01*
X159605505Y-85541204D01*
G37*
D11*
X159131000Y-86115000D03*
D10*
G36*
X159605505Y-83491204D02*
X159629773Y-83494804D01*
X159653572Y-83500765D01*
X159676671Y-83509030D01*
X159698850Y-83519520D01*
X159719893Y-83532132D01*
X159739599Y-83546747D01*
X159757777Y-83563223D01*
X159774253Y-83581401D01*
X159788868Y-83601107D01*
X159801480Y-83622150D01*
X159811970Y-83644329D01*
X159820235Y-83667428D01*
X159826196Y-83691227D01*
X159829796Y-83715495D01*
X159831000Y-83739999D01*
X159831000Y-84390001D01*
X159829796Y-84414505D01*
X159826196Y-84438773D01*
X159820235Y-84462572D01*
X159811970Y-84485671D01*
X159801480Y-84507850D01*
X159788868Y-84528893D01*
X159774253Y-84548599D01*
X159757777Y-84566777D01*
X159739599Y-84583253D01*
X159719893Y-84597868D01*
X159698850Y-84610480D01*
X159676671Y-84620970D01*
X159653572Y-84629235D01*
X159629773Y-84635196D01*
X159605505Y-84638796D01*
X159581001Y-84640000D01*
X158680999Y-84640000D01*
X158656495Y-84638796D01*
X158632227Y-84635196D01*
X158608428Y-84629235D01*
X158585329Y-84620970D01*
X158563150Y-84610480D01*
X158542107Y-84597868D01*
X158522401Y-84583253D01*
X158504223Y-84566777D01*
X158487747Y-84548599D01*
X158473132Y-84528893D01*
X158460520Y-84507850D01*
X158450030Y-84485671D01*
X158441765Y-84462572D01*
X158435804Y-84438773D01*
X158432204Y-84414505D01*
X158431000Y-84390001D01*
X158431000Y-83739999D01*
X158432204Y-83715495D01*
X158435804Y-83691227D01*
X158441765Y-83667428D01*
X158450030Y-83644329D01*
X158460520Y-83622150D01*
X158473132Y-83601107D01*
X158487747Y-83581401D01*
X158504223Y-83563223D01*
X158522401Y-83546747D01*
X158542107Y-83532132D01*
X158563150Y-83519520D01*
X158585329Y-83509030D01*
X158608428Y-83500765D01*
X158632227Y-83494804D01*
X158656495Y-83491204D01*
X158680999Y-83490000D01*
X159581001Y-83490000D01*
X159605505Y-83491204D01*
X159605505Y-83491204D01*
G37*
D11*
X159131000Y-84065000D03*
G04 #@! TD*
D10*
G04 #@! TO.C,R5*
G36*
X152504505Y-96456204D02*
X152528773Y-96459804D01*
X152552572Y-96465765D01*
X152575671Y-96474030D01*
X152597850Y-96484520D01*
X152618893Y-96497132D01*
X152638599Y-96511747D01*
X152656777Y-96528223D01*
X152673253Y-96546401D01*
X152687868Y-96566107D01*
X152700480Y-96587150D01*
X152710970Y-96609329D01*
X152719235Y-96632428D01*
X152725196Y-96656227D01*
X152728796Y-96680495D01*
X152730000Y-96704999D01*
X152730000Y-97605001D01*
X152728796Y-97629505D01*
X152725196Y-97653773D01*
X152719235Y-97677572D01*
X152710970Y-97700671D01*
X152700480Y-97722850D01*
X152687868Y-97743893D01*
X152673253Y-97763599D01*
X152656777Y-97781777D01*
X152638599Y-97798253D01*
X152618893Y-97812868D01*
X152597850Y-97825480D01*
X152575671Y-97835970D01*
X152552572Y-97844235D01*
X152528773Y-97850196D01*
X152504505Y-97853796D01*
X152480001Y-97855000D01*
X151829999Y-97855000D01*
X151805495Y-97853796D01*
X151781227Y-97850196D01*
X151757428Y-97844235D01*
X151734329Y-97835970D01*
X151712150Y-97825480D01*
X151691107Y-97812868D01*
X151671401Y-97798253D01*
X151653223Y-97781777D01*
X151636747Y-97763599D01*
X151622132Y-97743893D01*
X151609520Y-97722850D01*
X151599030Y-97700671D01*
X151590765Y-97677572D01*
X151584804Y-97653773D01*
X151581204Y-97629505D01*
X151580000Y-97605001D01*
X151580000Y-96704999D01*
X151581204Y-96680495D01*
X151584804Y-96656227D01*
X151590765Y-96632428D01*
X151599030Y-96609329D01*
X151609520Y-96587150D01*
X151622132Y-96566107D01*
X151636747Y-96546401D01*
X151653223Y-96528223D01*
X151671401Y-96511747D01*
X151691107Y-96497132D01*
X151712150Y-96484520D01*
X151734329Y-96474030D01*
X151757428Y-96465765D01*
X151781227Y-96459804D01*
X151805495Y-96456204D01*
X151829999Y-96455000D01*
X152480001Y-96455000D01*
X152504505Y-96456204D01*
X152504505Y-96456204D01*
G37*
D11*
X152155000Y-97155000D03*
D10*
G36*
X150454505Y-96456204D02*
X150478773Y-96459804D01*
X150502572Y-96465765D01*
X150525671Y-96474030D01*
X150547850Y-96484520D01*
X150568893Y-96497132D01*
X150588599Y-96511747D01*
X150606777Y-96528223D01*
X150623253Y-96546401D01*
X150637868Y-96566107D01*
X150650480Y-96587150D01*
X150660970Y-96609329D01*
X150669235Y-96632428D01*
X150675196Y-96656227D01*
X150678796Y-96680495D01*
X150680000Y-96704999D01*
X150680000Y-97605001D01*
X150678796Y-97629505D01*
X150675196Y-97653773D01*
X150669235Y-97677572D01*
X150660970Y-97700671D01*
X150650480Y-97722850D01*
X150637868Y-97743893D01*
X150623253Y-97763599D01*
X150606777Y-97781777D01*
X150588599Y-97798253D01*
X150568893Y-97812868D01*
X150547850Y-97825480D01*
X150525671Y-97835970D01*
X150502572Y-97844235D01*
X150478773Y-97850196D01*
X150454505Y-97853796D01*
X150430001Y-97855000D01*
X149779999Y-97855000D01*
X149755495Y-97853796D01*
X149731227Y-97850196D01*
X149707428Y-97844235D01*
X149684329Y-97835970D01*
X149662150Y-97825480D01*
X149641107Y-97812868D01*
X149621401Y-97798253D01*
X149603223Y-97781777D01*
X149586747Y-97763599D01*
X149572132Y-97743893D01*
X149559520Y-97722850D01*
X149549030Y-97700671D01*
X149540765Y-97677572D01*
X149534804Y-97653773D01*
X149531204Y-97629505D01*
X149530000Y-97605001D01*
X149530000Y-96704999D01*
X149531204Y-96680495D01*
X149534804Y-96656227D01*
X149540765Y-96632428D01*
X149549030Y-96609329D01*
X149559520Y-96587150D01*
X149572132Y-96566107D01*
X149586747Y-96546401D01*
X149603223Y-96528223D01*
X149621401Y-96511747D01*
X149641107Y-96497132D01*
X149662150Y-96484520D01*
X149684329Y-96474030D01*
X149707428Y-96465765D01*
X149731227Y-96459804D01*
X149755495Y-96456204D01*
X149779999Y-96455000D01*
X150430001Y-96455000D01*
X150454505Y-96456204D01*
X150454505Y-96456204D01*
G37*
D11*
X150105000Y-97155000D03*
G04 #@! TD*
D10*
G04 #@! TO.C,R6*
G36*
X147424505Y-96456204D02*
X147448773Y-96459804D01*
X147472572Y-96465765D01*
X147495671Y-96474030D01*
X147517850Y-96484520D01*
X147538893Y-96497132D01*
X147558599Y-96511747D01*
X147576777Y-96528223D01*
X147593253Y-96546401D01*
X147607868Y-96566107D01*
X147620480Y-96587150D01*
X147630970Y-96609329D01*
X147639235Y-96632428D01*
X147645196Y-96656227D01*
X147648796Y-96680495D01*
X147650000Y-96704999D01*
X147650000Y-97605001D01*
X147648796Y-97629505D01*
X147645196Y-97653773D01*
X147639235Y-97677572D01*
X147630970Y-97700671D01*
X147620480Y-97722850D01*
X147607868Y-97743893D01*
X147593253Y-97763599D01*
X147576777Y-97781777D01*
X147558599Y-97798253D01*
X147538893Y-97812868D01*
X147517850Y-97825480D01*
X147495671Y-97835970D01*
X147472572Y-97844235D01*
X147448773Y-97850196D01*
X147424505Y-97853796D01*
X147400001Y-97855000D01*
X146749999Y-97855000D01*
X146725495Y-97853796D01*
X146701227Y-97850196D01*
X146677428Y-97844235D01*
X146654329Y-97835970D01*
X146632150Y-97825480D01*
X146611107Y-97812868D01*
X146591401Y-97798253D01*
X146573223Y-97781777D01*
X146556747Y-97763599D01*
X146542132Y-97743893D01*
X146529520Y-97722850D01*
X146519030Y-97700671D01*
X146510765Y-97677572D01*
X146504804Y-97653773D01*
X146501204Y-97629505D01*
X146500000Y-97605001D01*
X146500000Y-96704999D01*
X146501204Y-96680495D01*
X146504804Y-96656227D01*
X146510765Y-96632428D01*
X146519030Y-96609329D01*
X146529520Y-96587150D01*
X146542132Y-96566107D01*
X146556747Y-96546401D01*
X146573223Y-96528223D01*
X146591401Y-96511747D01*
X146611107Y-96497132D01*
X146632150Y-96484520D01*
X146654329Y-96474030D01*
X146677428Y-96465765D01*
X146701227Y-96459804D01*
X146725495Y-96456204D01*
X146749999Y-96455000D01*
X147400001Y-96455000D01*
X147424505Y-96456204D01*
X147424505Y-96456204D01*
G37*
D11*
X147075000Y-97155000D03*
D10*
G36*
X145374505Y-96456204D02*
X145398773Y-96459804D01*
X145422572Y-96465765D01*
X145445671Y-96474030D01*
X145467850Y-96484520D01*
X145488893Y-96497132D01*
X145508599Y-96511747D01*
X145526777Y-96528223D01*
X145543253Y-96546401D01*
X145557868Y-96566107D01*
X145570480Y-96587150D01*
X145580970Y-96609329D01*
X145589235Y-96632428D01*
X145595196Y-96656227D01*
X145598796Y-96680495D01*
X145600000Y-96704999D01*
X145600000Y-97605001D01*
X145598796Y-97629505D01*
X145595196Y-97653773D01*
X145589235Y-97677572D01*
X145580970Y-97700671D01*
X145570480Y-97722850D01*
X145557868Y-97743893D01*
X145543253Y-97763599D01*
X145526777Y-97781777D01*
X145508599Y-97798253D01*
X145488893Y-97812868D01*
X145467850Y-97825480D01*
X145445671Y-97835970D01*
X145422572Y-97844235D01*
X145398773Y-97850196D01*
X145374505Y-97853796D01*
X145350001Y-97855000D01*
X144699999Y-97855000D01*
X144675495Y-97853796D01*
X144651227Y-97850196D01*
X144627428Y-97844235D01*
X144604329Y-97835970D01*
X144582150Y-97825480D01*
X144561107Y-97812868D01*
X144541401Y-97798253D01*
X144523223Y-97781777D01*
X144506747Y-97763599D01*
X144492132Y-97743893D01*
X144479520Y-97722850D01*
X144469030Y-97700671D01*
X144460765Y-97677572D01*
X144454804Y-97653773D01*
X144451204Y-97629505D01*
X144450000Y-97605001D01*
X144450000Y-96704999D01*
X144451204Y-96680495D01*
X144454804Y-96656227D01*
X144460765Y-96632428D01*
X144469030Y-96609329D01*
X144479520Y-96587150D01*
X144492132Y-96566107D01*
X144506747Y-96546401D01*
X144523223Y-96528223D01*
X144541401Y-96511747D01*
X144561107Y-96497132D01*
X144582150Y-96484520D01*
X144604329Y-96474030D01*
X144627428Y-96465765D01*
X144651227Y-96459804D01*
X144675495Y-96456204D01*
X144699999Y-96455000D01*
X145350001Y-96455000D01*
X145374505Y-96456204D01*
X145374505Y-96456204D01*
G37*
D11*
X145025000Y-97155000D03*
G04 #@! TD*
D10*
G04 #@! TO.C,C3*
G36*
X139804505Y-85026204D02*
X139828773Y-85029804D01*
X139852572Y-85035765D01*
X139875671Y-85044030D01*
X139897850Y-85054520D01*
X139918893Y-85067132D01*
X139938599Y-85081747D01*
X139956777Y-85098223D01*
X139973253Y-85116401D01*
X139987868Y-85136107D01*
X140000480Y-85157150D01*
X140010970Y-85179329D01*
X140019235Y-85202428D01*
X140025196Y-85226227D01*
X140028796Y-85250495D01*
X140030000Y-85274999D01*
X140030000Y-86175001D01*
X140028796Y-86199505D01*
X140025196Y-86223773D01*
X140019235Y-86247572D01*
X140010970Y-86270671D01*
X140000480Y-86292850D01*
X139987868Y-86313893D01*
X139973253Y-86333599D01*
X139956777Y-86351777D01*
X139938599Y-86368253D01*
X139918893Y-86382868D01*
X139897850Y-86395480D01*
X139875671Y-86405970D01*
X139852572Y-86414235D01*
X139828773Y-86420196D01*
X139804505Y-86423796D01*
X139780001Y-86425000D01*
X139129999Y-86425000D01*
X139105495Y-86423796D01*
X139081227Y-86420196D01*
X139057428Y-86414235D01*
X139034329Y-86405970D01*
X139012150Y-86395480D01*
X138991107Y-86382868D01*
X138971401Y-86368253D01*
X138953223Y-86351777D01*
X138936747Y-86333599D01*
X138922132Y-86313893D01*
X138909520Y-86292850D01*
X138899030Y-86270671D01*
X138890765Y-86247572D01*
X138884804Y-86223773D01*
X138881204Y-86199505D01*
X138880000Y-86175001D01*
X138880000Y-85274999D01*
X138881204Y-85250495D01*
X138884804Y-85226227D01*
X138890765Y-85202428D01*
X138899030Y-85179329D01*
X138909520Y-85157150D01*
X138922132Y-85136107D01*
X138936747Y-85116401D01*
X138953223Y-85098223D01*
X138971401Y-85081747D01*
X138991107Y-85067132D01*
X139012150Y-85054520D01*
X139034329Y-85044030D01*
X139057428Y-85035765D01*
X139081227Y-85029804D01*
X139105495Y-85026204D01*
X139129999Y-85025000D01*
X139780001Y-85025000D01*
X139804505Y-85026204D01*
X139804505Y-85026204D01*
G37*
D11*
X139455000Y-85725000D03*
D10*
G36*
X137754505Y-85026204D02*
X137778773Y-85029804D01*
X137802572Y-85035765D01*
X137825671Y-85044030D01*
X137847850Y-85054520D01*
X137868893Y-85067132D01*
X137888599Y-85081747D01*
X137906777Y-85098223D01*
X137923253Y-85116401D01*
X137937868Y-85136107D01*
X137950480Y-85157150D01*
X137960970Y-85179329D01*
X137969235Y-85202428D01*
X137975196Y-85226227D01*
X137978796Y-85250495D01*
X137980000Y-85274999D01*
X137980000Y-86175001D01*
X137978796Y-86199505D01*
X137975196Y-86223773D01*
X137969235Y-86247572D01*
X137960970Y-86270671D01*
X137950480Y-86292850D01*
X137937868Y-86313893D01*
X137923253Y-86333599D01*
X137906777Y-86351777D01*
X137888599Y-86368253D01*
X137868893Y-86382868D01*
X137847850Y-86395480D01*
X137825671Y-86405970D01*
X137802572Y-86414235D01*
X137778773Y-86420196D01*
X137754505Y-86423796D01*
X137730001Y-86425000D01*
X137079999Y-86425000D01*
X137055495Y-86423796D01*
X137031227Y-86420196D01*
X137007428Y-86414235D01*
X136984329Y-86405970D01*
X136962150Y-86395480D01*
X136941107Y-86382868D01*
X136921401Y-86368253D01*
X136903223Y-86351777D01*
X136886747Y-86333599D01*
X136872132Y-86313893D01*
X136859520Y-86292850D01*
X136849030Y-86270671D01*
X136840765Y-86247572D01*
X136834804Y-86223773D01*
X136831204Y-86199505D01*
X136830000Y-86175001D01*
X136830000Y-85274999D01*
X136831204Y-85250495D01*
X136834804Y-85226227D01*
X136840765Y-85202428D01*
X136849030Y-85179329D01*
X136859520Y-85157150D01*
X136872132Y-85136107D01*
X136886747Y-85116401D01*
X136903223Y-85098223D01*
X136921401Y-85081747D01*
X136941107Y-85067132D01*
X136962150Y-85054520D01*
X136984329Y-85044030D01*
X137007428Y-85035765D01*
X137031227Y-85029804D01*
X137055495Y-85026204D01*
X137079999Y-85025000D01*
X137730001Y-85025000D01*
X137754505Y-85026204D01*
X137754505Y-85026204D01*
G37*
D11*
X137405000Y-85725000D03*
G04 #@! TD*
D10*
G04 #@! TO.C,R7*
G36*
X157319505Y-82366204D02*
X157343773Y-82369804D01*
X157367572Y-82375765D01*
X157390671Y-82384030D01*
X157412850Y-82394520D01*
X157433893Y-82407132D01*
X157453599Y-82421747D01*
X157471777Y-82438223D01*
X157488253Y-82456401D01*
X157502868Y-82476107D01*
X157515480Y-82497150D01*
X157525970Y-82519329D01*
X157534235Y-82542428D01*
X157540196Y-82566227D01*
X157543796Y-82590495D01*
X157545000Y-82614999D01*
X157545000Y-83265001D01*
X157543796Y-83289505D01*
X157540196Y-83313773D01*
X157534235Y-83337572D01*
X157525970Y-83360671D01*
X157515480Y-83382850D01*
X157502868Y-83403893D01*
X157488253Y-83423599D01*
X157471777Y-83441777D01*
X157453599Y-83458253D01*
X157433893Y-83472868D01*
X157412850Y-83485480D01*
X157390671Y-83495970D01*
X157367572Y-83504235D01*
X157343773Y-83510196D01*
X157319505Y-83513796D01*
X157295001Y-83515000D01*
X156394999Y-83515000D01*
X156370495Y-83513796D01*
X156346227Y-83510196D01*
X156322428Y-83504235D01*
X156299329Y-83495970D01*
X156277150Y-83485480D01*
X156256107Y-83472868D01*
X156236401Y-83458253D01*
X156218223Y-83441777D01*
X156201747Y-83423599D01*
X156187132Y-83403893D01*
X156174520Y-83382850D01*
X156164030Y-83360671D01*
X156155765Y-83337572D01*
X156149804Y-83313773D01*
X156146204Y-83289505D01*
X156145000Y-83265001D01*
X156145000Y-82614999D01*
X156146204Y-82590495D01*
X156149804Y-82566227D01*
X156155765Y-82542428D01*
X156164030Y-82519329D01*
X156174520Y-82497150D01*
X156187132Y-82476107D01*
X156201747Y-82456401D01*
X156218223Y-82438223D01*
X156236401Y-82421747D01*
X156256107Y-82407132D01*
X156277150Y-82394520D01*
X156299329Y-82384030D01*
X156322428Y-82375765D01*
X156346227Y-82369804D01*
X156370495Y-82366204D01*
X156394999Y-82365000D01*
X157295001Y-82365000D01*
X157319505Y-82366204D01*
X157319505Y-82366204D01*
G37*
D11*
X156845000Y-82940000D03*
D10*
G36*
X157319505Y-80316204D02*
X157343773Y-80319804D01*
X157367572Y-80325765D01*
X157390671Y-80334030D01*
X157412850Y-80344520D01*
X157433893Y-80357132D01*
X157453599Y-80371747D01*
X157471777Y-80388223D01*
X157488253Y-80406401D01*
X157502868Y-80426107D01*
X157515480Y-80447150D01*
X157525970Y-80469329D01*
X157534235Y-80492428D01*
X157540196Y-80516227D01*
X157543796Y-80540495D01*
X157545000Y-80564999D01*
X157545000Y-81215001D01*
X157543796Y-81239505D01*
X157540196Y-81263773D01*
X157534235Y-81287572D01*
X157525970Y-81310671D01*
X157515480Y-81332850D01*
X157502868Y-81353893D01*
X157488253Y-81373599D01*
X157471777Y-81391777D01*
X157453599Y-81408253D01*
X157433893Y-81422868D01*
X157412850Y-81435480D01*
X157390671Y-81445970D01*
X157367572Y-81454235D01*
X157343773Y-81460196D01*
X157319505Y-81463796D01*
X157295001Y-81465000D01*
X156394999Y-81465000D01*
X156370495Y-81463796D01*
X156346227Y-81460196D01*
X156322428Y-81454235D01*
X156299329Y-81445970D01*
X156277150Y-81435480D01*
X156256107Y-81422868D01*
X156236401Y-81408253D01*
X156218223Y-81391777D01*
X156201747Y-81373599D01*
X156187132Y-81353893D01*
X156174520Y-81332850D01*
X156164030Y-81310671D01*
X156155765Y-81287572D01*
X156149804Y-81263773D01*
X156146204Y-81239505D01*
X156145000Y-81215001D01*
X156145000Y-80564999D01*
X156146204Y-80540495D01*
X156149804Y-80516227D01*
X156155765Y-80492428D01*
X156164030Y-80469329D01*
X156174520Y-80447150D01*
X156187132Y-80426107D01*
X156201747Y-80406401D01*
X156218223Y-80388223D01*
X156236401Y-80371747D01*
X156256107Y-80357132D01*
X156277150Y-80344520D01*
X156299329Y-80334030D01*
X156322428Y-80325765D01*
X156346227Y-80319804D01*
X156370495Y-80316204D01*
X156394999Y-80315000D01*
X157295001Y-80315000D01*
X157319505Y-80316204D01*
X157319505Y-80316204D01*
G37*
D11*
X156845000Y-80890000D03*
G04 #@! TD*
D10*
G04 #@! TO.C,R8*
G36*
X154779505Y-80316204D02*
X154803773Y-80319804D01*
X154827572Y-80325765D01*
X154850671Y-80334030D01*
X154872850Y-80344520D01*
X154893893Y-80357132D01*
X154913599Y-80371747D01*
X154931777Y-80388223D01*
X154948253Y-80406401D01*
X154962868Y-80426107D01*
X154975480Y-80447150D01*
X154985970Y-80469329D01*
X154994235Y-80492428D01*
X155000196Y-80516227D01*
X155003796Y-80540495D01*
X155005000Y-80564999D01*
X155005000Y-81215001D01*
X155003796Y-81239505D01*
X155000196Y-81263773D01*
X154994235Y-81287572D01*
X154985970Y-81310671D01*
X154975480Y-81332850D01*
X154962868Y-81353893D01*
X154948253Y-81373599D01*
X154931777Y-81391777D01*
X154913599Y-81408253D01*
X154893893Y-81422868D01*
X154872850Y-81435480D01*
X154850671Y-81445970D01*
X154827572Y-81454235D01*
X154803773Y-81460196D01*
X154779505Y-81463796D01*
X154755001Y-81465000D01*
X153854999Y-81465000D01*
X153830495Y-81463796D01*
X153806227Y-81460196D01*
X153782428Y-81454235D01*
X153759329Y-81445970D01*
X153737150Y-81435480D01*
X153716107Y-81422868D01*
X153696401Y-81408253D01*
X153678223Y-81391777D01*
X153661747Y-81373599D01*
X153647132Y-81353893D01*
X153634520Y-81332850D01*
X153624030Y-81310671D01*
X153615765Y-81287572D01*
X153609804Y-81263773D01*
X153606204Y-81239505D01*
X153605000Y-81215001D01*
X153605000Y-80564999D01*
X153606204Y-80540495D01*
X153609804Y-80516227D01*
X153615765Y-80492428D01*
X153624030Y-80469329D01*
X153634520Y-80447150D01*
X153647132Y-80426107D01*
X153661747Y-80406401D01*
X153678223Y-80388223D01*
X153696401Y-80371747D01*
X153716107Y-80357132D01*
X153737150Y-80344520D01*
X153759329Y-80334030D01*
X153782428Y-80325765D01*
X153806227Y-80319804D01*
X153830495Y-80316204D01*
X153854999Y-80315000D01*
X154755001Y-80315000D01*
X154779505Y-80316204D01*
X154779505Y-80316204D01*
G37*
D11*
X154305000Y-80890000D03*
D10*
G36*
X154779505Y-82366204D02*
X154803773Y-82369804D01*
X154827572Y-82375765D01*
X154850671Y-82384030D01*
X154872850Y-82394520D01*
X154893893Y-82407132D01*
X154913599Y-82421747D01*
X154931777Y-82438223D01*
X154948253Y-82456401D01*
X154962868Y-82476107D01*
X154975480Y-82497150D01*
X154985970Y-82519329D01*
X154994235Y-82542428D01*
X155000196Y-82566227D01*
X155003796Y-82590495D01*
X155005000Y-82614999D01*
X155005000Y-83265001D01*
X155003796Y-83289505D01*
X155000196Y-83313773D01*
X154994235Y-83337572D01*
X154985970Y-83360671D01*
X154975480Y-83382850D01*
X154962868Y-83403893D01*
X154948253Y-83423599D01*
X154931777Y-83441777D01*
X154913599Y-83458253D01*
X154893893Y-83472868D01*
X154872850Y-83485480D01*
X154850671Y-83495970D01*
X154827572Y-83504235D01*
X154803773Y-83510196D01*
X154779505Y-83513796D01*
X154755001Y-83515000D01*
X153854999Y-83515000D01*
X153830495Y-83513796D01*
X153806227Y-83510196D01*
X153782428Y-83504235D01*
X153759329Y-83495970D01*
X153737150Y-83485480D01*
X153716107Y-83472868D01*
X153696401Y-83458253D01*
X153678223Y-83441777D01*
X153661747Y-83423599D01*
X153647132Y-83403893D01*
X153634520Y-83382850D01*
X153624030Y-83360671D01*
X153615765Y-83337572D01*
X153609804Y-83313773D01*
X153606204Y-83289505D01*
X153605000Y-83265001D01*
X153605000Y-82614999D01*
X153606204Y-82590495D01*
X153609804Y-82566227D01*
X153615765Y-82542428D01*
X153624030Y-82519329D01*
X153634520Y-82497150D01*
X153647132Y-82476107D01*
X153661747Y-82456401D01*
X153678223Y-82438223D01*
X153696401Y-82421747D01*
X153716107Y-82407132D01*
X153737150Y-82394520D01*
X153759329Y-82384030D01*
X153782428Y-82375765D01*
X153806227Y-82369804D01*
X153830495Y-82366204D01*
X153854999Y-82365000D01*
X154755001Y-82365000D01*
X154779505Y-82366204D01*
X154779505Y-82366204D01*
G37*
D11*
X154305000Y-82940000D03*
G04 #@! TD*
D10*
G04 #@! TO.C,R9*
G36*
X157319505Y-87301204D02*
X157343773Y-87304804D01*
X157367572Y-87310765D01*
X157390671Y-87319030D01*
X157412850Y-87329520D01*
X157433893Y-87342132D01*
X157453599Y-87356747D01*
X157471777Y-87373223D01*
X157488253Y-87391401D01*
X157502868Y-87411107D01*
X157515480Y-87432150D01*
X157525970Y-87454329D01*
X157534235Y-87477428D01*
X157540196Y-87501227D01*
X157543796Y-87525495D01*
X157545000Y-87549999D01*
X157545000Y-88200001D01*
X157543796Y-88224505D01*
X157540196Y-88248773D01*
X157534235Y-88272572D01*
X157525970Y-88295671D01*
X157515480Y-88317850D01*
X157502868Y-88338893D01*
X157488253Y-88358599D01*
X157471777Y-88376777D01*
X157453599Y-88393253D01*
X157433893Y-88407868D01*
X157412850Y-88420480D01*
X157390671Y-88430970D01*
X157367572Y-88439235D01*
X157343773Y-88445196D01*
X157319505Y-88448796D01*
X157295001Y-88450000D01*
X156394999Y-88450000D01*
X156370495Y-88448796D01*
X156346227Y-88445196D01*
X156322428Y-88439235D01*
X156299329Y-88430970D01*
X156277150Y-88420480D01*
X156256107Y-88407868D01*
X156236401Y-88393253D01*
X156218223Y-88376777D01*
X156201747Y-88358599D01*
X156187132Y-88338893D01*
X156174520Y-88317850D01*
X156164030Y-88295671D01*
X156155765Y-88272572D01*
X156149804Y-88248773D01*
X156146204Y-88224505D01*
X156145000Y-88200001D01*
X156145000Y-87549999D01*
X156146204Y-87525495D01*
X156149804Y-87501227D01*
X156155765Y-87477428D01*
X156164030Y-87454329D01*
X156174520Y-87432150D01*
X156187132Y-87411107D01*
X156201747Y-87391401D01*
X156218223Y-87373223D01*
X156236401Y-87356747D01*
X156256107Y-87342132D01*
X156277150Y-87329520D01*
X156299329Y-87319030D01*
X156322428Y-87310765D01*
X156346227Y-87304804D01*
X156370495Y-87301204D01*
X156394999Y-87300000D01*
X157295001Y-87300000D01*
X157319505Y-87301204D01*
X157319505Y-87301204D01*
G37*
D11*
X156845000Y-87875000D03*
D10*
G36*
X157319505Y-89351204D02*
X157343773Y-89354804D01*
X157367572Y-89360765D01*
X157390671Y-89369030D01*
X157412850Y-89379520D01*
X157433893Y-89392132D01*
X157453599Y-89406747D01*
X157471777Y-89423223D01*
X157488253Y-89441401D01*
X157502868Y-89461107D01*
X157515480Y-89482150D01*
X157525970Y-89504329D01*
X157534235Y-89527428D01*
X157540196Y-89551227D01*
X157543796Y-89575495D01*
X157545000Y-89599999D01*
X157545000Y-90250001D01*
X157543796Y-90274505D01*
X157540196Y-90298773D01*
X157534235Y-90322572D01*
X157525970Y-90345671D01*
X157515480Y-90367850D01*
X157502868Y-90388893D01*
X157488253Y-90408599D01*
X157471777Y-90426777D01*
X157453599Y-90443253D01*
X157433893Y-90457868D01*
X157412850Y-90470480D01*
X157390671Y-90480970D01*
X157367572Y-90489235D01*
X157343773Y-90495196D01*
X157319505Y-90498796D01*
X157295001Y-90500000D01*
X156394999Y-90500000D01*
X156370495Y-90498796D01*
X156346227Y-90495196D01*
X156322428Y-90489235D01*
X156299329Y-90480970D01*
X156277150Y-90470480D01*
X156256107Y-90457868D01*
X156236401Y-90443253D01*
X156218223Y-90426777D01*
X156201747Y-90408599D01*
X156187132Y-90388893D01*
X156174520Y-90367850D01*
X156164030Y-90345671D01*
X156155765Y-90322572D01*
X156149804Y-90298773D01*
X156146204Y-90274505D01*
X156145000Y-90250001D01*
X156145000Y-89599999D01*
X156146204Y-89575495D01*
X156149804Y-89551227D01*
X156155765Y-89527428D01*
X156164030Y-89504329D01*
X156174520Y-89482150D01*
X156187132Y-89461107D01*
X156201747Y-89441401D01*
X156218223Y-89423223D01*
X156236401Y-89406747D01*
X156256107Y-89392132D01*
X156277150Y-89379520D01*
X156299329Y-89369030D01*
X156322428Y-89360765D01*
X156346227Y-89354804D01*
X156370495Y-89351204D01*
X156394999Y-89350000D01*
X157295001Y-89350000D01*
X157319505Y-89351204D01*
X157319505Y-89351204D01*
G37*
D11*
X156845000Y-89925000D03*
G04 #@! TD*
D10*
G04 #@! TO.C,R10*
G36*
X154779505Y-89351204D02*
X154803773Y-89354804D01*
X154827572Y-89360765D01*
X154850671Y-89369030D01*
X154872850Y-89379520D01*
X154893893Y-89392132D01*
X154913599Y-89406747D01*
X154931777Y-89423223D01*
X154948253Y-89441401D01*
X154962868Y-89461107D01*
X154975480Y-89482150D01*
X154985970Y-89504329D01*
X154994235Y-89527428D01*
X155000196Y-89551227D01*
X155003796Y-89575495D01*
X155005000Y-89599999D01*
X155005000Y-90250001D01*
X155003796Y-90274505D01*
X155000196Y-90298773D01*
X154994235Y-90322572D01*
X154985970Y-90345671D01*
X154975480Y-90367850D01*
X154962868Y-90388893D01*
X154948253Y-90408599D01*
X154931777Y-90426777D01*
X154913599Y-90443253D01*
X154893893Y-90457868D01*
X154872850Y-90470480D01*
X154850671Y-90480970D01*
X154827572Y-90489235D01*
X154803773Y-90495196D01*
X154779505Y-90498796D01*
X154755001Y-90500000D01*
X153854999Y-90500000D01*
X153830495Y-90498796D01*
X153806227Y-90495196D01*
X153782428Y-90489235D01*
X153759329Y-90480970D01*
X153737150Y-90470480D01*
X153716107Y-90457868D01*
X153696401Y-90443253D01*
X153678223Y-90426777D01*
X153661747Y-90408599D01*
X153647132Y-90388893D01*
X153634520Y-90367850D01*
X153624030Y-90345671D01*
X153615765Y-90322572D01*
X153609804Y-90298773D01*
X153606204Y-90274505D01*
X153605000Y-90250001D01*
X153605000Y-89599999D01*
X153606204Y-89575495D01*
X153609804Y-89551227D01*
X153615765Y-89527428D01*
X153624030Y-89504329D01*
X153634520Y-89482150D01*
X153647132Y-89461107D01*
X153661747Y-89441401D01*
X153678223Y-89423223D01*
X153696401Y-89406747D01*
X153716107Y-89392132D01*
X153737150Y-89379520D01*
X153759329Y-89369030D01*
X153782428Y-89360765D01*
X153806227Y-89354804D01*
X153830495Y-89351204D01*
X153854999Y-89350000D01*
X154755001Y-89350000D01*
X154779505Y-89351204D01*
X154779505Y-89351204D01*
G37*
D11*
X154305000Y-89925000D03*
D10*
G36*
X154779505Y-87301204D02*
X154803773Y-87304804D01*
X154827572Y-87310765D01*
X154850671Y-87319030D01*
X154872850Y-87329520D01*
X154893893Y-87342132D01*
X154913599Y-87356747D01*
X154931777Y-87373223D01*
X154948253Y-87391401D01*
X154962868Y-87411107D01*
X154975480Y-87432150D01*
X154985970Y-87454329D01*
X154994235Y-87477428D01*
X155000196Y-87501227D01*
X155003796Y-87525495D01*
X155005000Y-87549999D01*
X155005000Y-88200001D01*
X155003796Y-88224505D01*
X155000196Y-88248773D01*
X154994235Y-88272572D01*
X154985970Y-88295671D01*
X154975480Y-88317850D01*
X154962868Y-88338893D01*
X154948253Y-88358599D01*
X154931777Y-88376777D01*
X154913599Y-88393253D01*
X154893893Y-88407868D01*
X154872850Y-88420480D01*
X154850671Y-88430970D01*
X154827572Y-88439235D01*
X154803773Y-88445196D01*
X154779505Y-88448796D01*
X154755001Y-88450000D01*
X153854999Y-88450000D01*
X153830495Y-88448796D01*
X153806227Y-88445196D01*
X153782428Y-88439235D01*
X153759329Y-88430970D01*
X153737150Y-88420480D01*
X153716107Y-88407868D01*
X153696401Y-88393253D01*
X153678223Y-88376777D01*
X153661747Y-88358599D01*
X153647132Y-88338893D01*
X153634520Y-88317850D01*
X153624030Y-88295671D01*
X153615765Y-88272572D01*
X153609804Y-88248773D01*
X153606204Y-88224505D01*
X153605000Y-88200001D01*
X153605000Y-87549999D01*
X153606204Y-87525495D01*
X153609804Y-87501227D01*
X153615765Y-87477428D01*
X153624030Y-87454329D01*
X153634520Y-87432150D01*
X153647132Y-87411107D01*
X153661747Y-87391401D01*
X153678223Y-87373223D01*
X153696401Y-87356747D01*
X153716107Y-87342132D01*
X153737150Y-87329520D01*
X153759329Y-87319030D01*
X153782428Y-87310765D01*
X153806227Y-87304804D01*
X153830495Y-87301204D01*
X153854999Y-87300000D01*
X154755001Y-87300000D01*
X154779505Y-87301204D01*
X154779505Y-87301204D01*
G37*
D11*
X154305000Y-87875000D03*
G04 #@! TD*
M02*
