G04 #@! TF.GenerationSoftware,KiCad,Pcbnew,(5.0.2-5)-5*
G04 #@! TF.CreationDate,2019-09-23T09:23:56+03:00*
G04 #@! TF.ProjectId,digi_pot,64696769-5f70-46f7-942e-6b696361645f,rev?*
G04 #@! TF.SameCoordinates,Original*
G04 #@! TF.FileFunction,Soldermask,Top*
G04 #@! TF.FilePolarity,Negative*
%FSLAX46Y46*%
G04 Gerber Fmt 4.6, Leading zero omitted, Abs format (unit mm)*
G04 Created by KiCad (PCBNEW (5.0.2-5)-5) date 2019 September 23, Monday 09:23:56*
%MOMM*%
%LPD*%
G01*
G04 APERTURE LIST*
%ADD10C,0.100000*%
G04 APERTURE END LIST*
D10*
G36*
X162670443Y-103245519D02*
X162736627Y-103252037D01*
X162849853Y-103286384D01*
X162906467Y-103303557D01*
X163045087Y-103377652D01*
X163062991Y-103387222D01*
X163082259Y-103403035D01*
X163200186Y-103499814D01*
X163283448Y-103601271D01*
X163312778Y-103637009D01*
X163312779Y-103637011D01*
X163396443Y-103793533D01*
X163396443Y-103793534D01*
X163447963Y-103963373D01*
X163465359Y-104140000D01*
X163447963Y-104316627D01*
X163413616Y-104429853D01*
X163396443Y-104486467D01*
X163322348Y-104625087D01*
X163312778Y-104642991D01*
X163283448Y-104678729D01*
X163200186Y-104780186D01*
X163098729Y-104863448D01*
X163062991Y-104892778D01*
X163062989Y-104892779D01*
X162906467Y-104976443D01*
X162849853Y-104993616D01*
X162736627Y-105027963D01*
X162670442Y-105034482D01*
X162604260Y-105041000D01*
X162515740Y-105041000D01*
X162449557Y-105034481D01*
X162383373Y-105027963D01*
X162270147Y-104993616D01*
X162213533Y-104976443D01*
X162057011Y-104892779D01*
X162057009Y-104892778D01*
X162021271Y-104863448D01*
X161919814Y-104780186D01*
X161836552Y-104678729D01*
X161807222Y-104642991D01*
X161797652Y-104625087D01*
X161723557Y-104486467D01*
X161706384Y-104429853D01*
X161672037Y-104316627D01*
X161654641Y-104140000D01*
X161672037Y-103963373D01*
X161723557Y-103793534D01*
X161723557Y-103793533D01*
X161807221Y-103637011D01*
X161807222Y-103637009D01*
X161836552Y-103601271D01*
X161919814Y-103499814D01*
X162037741Y-103403035D01*
X162057009Y-103387222D01*
X162074913Y-103377652D01*
X162213533Y-103303557D01*
X162270147Y-103286384D01*
X162383373Y-103252037D01*
X162449558Y-103245518D01*
X162515740Y-103239000D01*
X162604260Y-103239000D01*
X162670443Y-103245519D01*
X162670443Y-103245519D01*
G37*
G36*
X135521000Y-105041000D02*
X133719000Y-105041000D01*
X133719000Y-103239000D01*
X135521000Y-103239000D01*
X135521000Y-105041000D01*
X135521000Y-105041000D01*
G37*
G36*
X159894965Y-102698989D02*
X160086234Y-102778215D01*
X160258376Y-102893237D01*
X160404763Y-103039624D01*
X160519785Y-103211766D01*
X160599011Y-103403035D01*
X160639400Y-103606084D01*
X160639400Y-103813116D01*
X160599011Y-104016165D01*
X160519785Y-104207434D01*
X160404763Y-104379576D01*
X160258376Y-104525963D01*
X160086234Y-104640985D01*
X159894965Y-104720211D01*
X159691916Y-104760600D01*
X159484884Y-104760600D01*
X159281835Y-104720211D01*
X159090566Y-104640985D01*
X158918424Y-104525963D01*
X158772037Y-104379576D01*
X158657015Y-104207434D01*
X158577789Y-104016165D01*
X158537400Y-103813116D01*
X158537400Y-103606084D01*
X158577789Y-103403035D01*
X158657015Y-103211766D01*
X158772037Y-103039624D01*
X158918424Y-102893237D01*
X159090566Y-102778215D01*
X159281835Y-102698989D01*
X159484884Y-102658600D01*
X159691916Y-102658600D01*
X159894965Y-102698989D01*
X159894965Y-102698989D01*
G37*
G36*
X150025221Y-101370913D02*
X150025224Y-101370914D01*
X150025225Y-101370914D01*
X150185639Y-101419575D01*
X150185641Y-101419576D01*
X150185644Y-101419577D01*
X150333478Y-101498595D01*
X150463059Y-101604941D01*
X150569405Y-101734522D01*
X150648423Y-101882356D01*
X150697087Y-102042779D01*
X150713517Y-102209600D01*
X150697087Y-102376421D01*
X150697086Y-102376424D01*
X150697086Y-102376425D01*
X150659297Y-102501000D01*
X150648423Y-102536844D01*
X150569405Y-102684678D01*
X150463059Y-102814259D01*
X150333478Y-102920605D01*
X150185644Y-102999623D01*
X150185641Y-102999624D01*
X150185639Y-102999625D01*
X150025225Y-103048286D01*
X150025224Y-103048286D01*
X150025221Y-103048287D01*
X149900204Y-103060600D01*
X149816596Y-103060600D01*
X149691579Y-103048287D01*
X149691576Y-103048286D01*
X149691575Y-103048286D01*
X149531161Y-102999625D01*
X149531159Y-102999624D01*
X149531156Y-102999623D01*
X149383322Y-102920605D01*
X149253741Y-102814259D01*
X149147395Y-102684678D01*
X149068377Y-102536844D01*
X149057504Y-102501000D01*
X149019714Y-102376425D01*
X149019714Y-102376424D01*
X149019713Y-102376421D01*
X149003283Y-102209600D01*
X149019713Y-102042779D01*
X149068377Y-101882356D01*
X149147395Y-101734522D01*
X149253741Y-101604941D01*
X149383322Y-101498595D01*
X149531156Y-101419577D01*
X149531159Y-101419576D01*
X149531161Y-101419575D01*
X149691575Y-101370914D01*
X149691576Y-101370914D01*
X149691579Y-101370913D01*
X149816596Y-101358600D01*
X149900204Y-101358600D01*
X150025221Y-101370913D01*
X150025221Y-101370913D01*
G37*
G36*
X147150200Y-101233600D02*
X147152602Y-101257986D01*
X147159715Y-101281435D01*
X147171266Y-101303046D01*
X147186812Y-101321988D01*
X147205754Y-101337534D01*
X147227365Y-101349085D01*
X147250814Y-101356198D01*
X147275200Y-101358600D01*
X147360204Y-101358600D01*
X147485221Y-101370913D01*
X147485224Y-101370914D01*
X147485225Y-101370914D01*
X147645639Y-101419575D01*
X147645641Y-101419576D01*
X147645644Y-101419577D01*
X147793478Y-101498595D01*
X147923059Y-101604941D01*
X148029405Y-101734522D01*
X148108423Y-101882356D01*
X148157087Y-102042779D01*
X148173517Y-102209600D01*
X148157087Y-102376421D01*
X148157086Y-102376424D01*
X148157086Y-102376425D01*
X148119297Y-102501000D01*
X148108423Y-102536844D01*
X148029405Y-102684678D01*
X147923059Y-102814259D01*
X147793478Y-102920605D01*
X147645644Y-102999623D01*
X147645641Y-102999624D01*
X147645639Y-102999625D01*
X147485225Y-103048286D01*
X147485224Y-103048286D01*
X147485221Y-103048287D01*
X147360204Y-103060600D01*
X147276596Y-103060600D01*
X147151579Y-103048287D01*
X147151576Y-103048286D01*
X147151575Y-103048286D01*
X146991161Y-102999625D01*
X146991159Y-102999624D01*
X146991156Y-102999623D01*
X146843322Y-102920605D01*
X146713741Y-102814259D01*
X146607395Y-102684678D01*
X146528377Y-102536844D01*
X146517504Y-102501000D01*
X146479714Y-102376425D01*
X146479714Y-102376424D01*
X146479713Y-102376421D01*
X146463283Y-102209600D01*
X146479713Y-102042779D01*
X146528377Y-101882356D01*
X146607395Y-101734522D01*
X146713741Y-101604941D01*
X146843322Y-101498595D01*
X146999789Y-101414962D01*
X147004426Y-101413042D01*
X147024801Y-101399428D01*
X147042128Y-101382102D01*
X147055743Y-101361727D01*
X147065121Y-101339089D01*
X147069902Y-101315055D01*
X147069902Y-101290551D01*
X147065122Y-101266517D01*
X147055746Y-101243878D01*
X147042132Y-101223503D01*
X147024806Y-101206176D01*
X147004431Y-101192561D01*
X146981793Y-101183183D01*
X146957759Y-101178402D01*
X146945504Y-101177800D01*
X145151296Y-101177800D01*
X145126910Y-101180202D01*
X145103461Y-101187315D01*
X145081850Y-101198866D01*
X145062908Y-101214412D01*
X145048200Y-101232333D01*
X145048200Y-99075800D01*
X147150200Y-99075800D01*
X147150200Y-101233600D01*
X147150200Y-101233600D01*
G37*
G36*
X157645221Y-101370913D02*
X157645224Y-101370914D01*
X157645225Y-101370914D01*
X157805639Y-101419575D01*
X157805641Y-101419576D01*
X157805644Y-101419577D01*
X157953478Y-101498595D01*
X158083059Y-101604941D01*
X158189405Y-101734522D01*
X158268423Y-101882356D01*
X158317087Y-102042779D01*
X158333517Y-102209600D01*
X158317087Y-102376421D01*
X158317086Y-102376424D01*
X158317086Y-102376425D01*
X158279297Y-102501000D01*
X158268423Y-102536844D01*
X158189405Y-102684678D01*
X158083059Y-102814259D01*
X157953478Y-102920605D01*
X157805644Y-102999623D01*
X157805641Y-102999624D01*
X157805639Y-102999625D01*
X157645225Y-103048286D01*
X157645224Y-103048286D01*
X157645221Y-103048287D01*
X157520204Y-103060600D01*
X157436596Y-103060600D01*
X157311579Y-103048287D01*
X157311576Y-103048286D01*
X157311575Y-103048286D01*
X157151161Y-102999625D01*
X157151159Y-102999624D01*
X157151156Y-102999623D01*
X157003322Y-102920605D01*
X156873741Y-102814259D01*
X156767395Y-102684678D01*
X156688377Y-102536844D01*
X156677504Y-102501000D01*
X156639714Y-102376425D01*
X156639714Y-102376424D01*
X156639713Y-102376421D01*
X156623283Y-102209600D01*
X156639713Y-102042779D01*
X156688377Y-101882356D01*
X156767395Y-101734522D01*
X156873741Y-101604941D01*
X157003322Y-101498595D01*
X157151156Y-101419577D01*
X157151159Y-101419576D01*
X157151161Y-101419575D01*
X157311575Y-101370914D01*
X157311576Y-101370914D01*
X157311579Y-101370913D01*
X157436596Y-101358600D01*
X157520204Y-101358600D01*
X157645221Y-101370913D01*
X157645221Y-101370913D01*
G37*
G36*
X145028698Y-101327186D02*
X145035811Y-101350635D01*
X145047362Y-101372246D01*
X145062908Y-101391188D01*
X145081850Y-101406734D01*
X145094834Y-101413674D01*
X145094782Y-101413771D01*
X145253478Y-101498595D01*
X145383059Y-101604941D01*
X145489405Y-101734522D01*
X145568423Y-101882356D01*
X145617087Y-102042779D01*
X145633517Y-102209600D01*
X145617087Y-102376421D01*
X145617086Y-102376424D01*
X145617086Y-102376425D01*
X145579297Y-102501000D01*
X145568423Y-102536844D01*
X145489405Y-102684678D01*
X145383059Y-102814259D01*
X145253478Y-102920605D01*
X145105644Y-102999623D01*
X145105641Y-102999624D01*
X145105639Y-102999625D01*
X144945225Y-103048286D01*
X144945224Y-103048286D01*
X144945221Y-103048287D01*
X144820204Y-103060600D01*
X144736596Y-103060600D01*
X144611579Y-103048287D01*
X144611576Y-103048286D01*
X144611575Y-103048286D01*
X144451161Y-102999625D01*
X144451159Y-102999624D01*
X144451156Y-102999623D01*
X144303322Y-102920605D01*
X144173741Y-102814259D01*
X144067395Y-102684678D01*
X143988377Y-102536844D01*
X143977504Y-102501000D01*
X143939714Y-102376425D01*
X143939714Y-102376424D01*
X143939713Y-102376421D01*
X143923283Y-102209600D01*
X143939713Y-102042779D01*
X143988377Y-101882356D01*
X144067395Y-101734522D01*
X144173741Y-101604941D01*
X144303322Y-101498595D01*
X144451156Y-101419577D01*
X144451159Y-101419576D01*
X144451161Y-101419575D01*
X144611575Y-101370914D01*
X144611576Y-101370914D01*
X144611579Y-101370913D01*
X144736596Y-101358600D01*
X144820205Y-101358600D01*
X144910948Y-101367537D01*
X144935453Y-101367537D01*
X144959486Y-101362756D01*
X144982125Y-101353379D01*
X145002500Y-101339765D01*
X145019827Y-101322438D01*
X145027151Y-101311476D01*
X145028698Y-101327186D01*
X145028698Y-101327186D01*
G37*
G36*
X155105221Y-101370913D02*
X155105224Y-101370914D01*
X155105225Y-101370914D01*
X155265639Y-101419575D01*
X155265641Y-101419576D01*
X155265644Y-101419577D01*
X155413478Y-101498595D01*
X155543059Y-101604941D01*
X155649405Y-101734522D01*
X155728423Y-101882356D01*
X155777087Y-102042779D01*
X155793517Y-102209600D01*
X155777087Y-102376421D01*
X155777086Y-102376424D01*
X155777086Y-102376425D01*
X155739297Y-102501000D01*
X155728423Y-102536844D01*
X155649405Y-102684678D01*
X155543059Y-102814259D01*
X155413478Y-102920605D01*
X155265644Y-102999623D01*
X155265641Y-102999624D01*
X155265639Y-102999625D01*
X155105225Y-103048286D01*
X155105224Y-103048286D01*
X155105221Y-103048287D01*
X154980204Y-103060600D01*
X154896596Y-103060600D01*
X154771579Y-103048287D01*
X154771576Y-103048286D01*
X154771575Y-103048286D01*
X154611161Y-102999625D01*
X154611159Y-102999624D01*
X154611156Y-102999623D01*
X154463322Y-102920605D01*
X154333741Y-102814259D01*
X154227395Y-102684678D01*
X154148377Y-102536844D01*
X154137504Y-102501000D01*
X154099714Y-102376425D01*
X154099714Y-102376424D01*
X154099713Y-102376421D01*
X154083283Y-102209600D01*
X154099713Y-102042779D01*
X154148377Y-101882356D01*
X154227395Y-101734522D01*
X154333741Y-101604941D01*
X154463322Y-101498595D01*
X154611156Y-101419577D01*
X154611159Y-101419576D01*
X154611161Y-101419575D01*
X154771575Y-101370914D01*
X154771576Y-101370914D01*
X154771579Y-101370913D01*
X154896596Y-101358600D01*
X154980204Y-101358600D01*
X155105221Y-101370913D01*
X155105221Y-101370913D01*
G37*
G36*
X142405221Y-101370913D02*
X142405224Y-101370914D01*
X142405225Y-101370914D01*
X142565639Y-101419575D01*
X142565641Y-101419576D01*
X142565644Y-101419577D01*
X142713478Y-101498595D01*
X142843059Y-101604941D01*
X142949405Y-101734522D01*
X143028423Y-101882356D01*
X143077087Y-102042779D01*
X143093517Y-102209600D01*
X143077087Y-102376421D01*
X143077086Y-102376424D01*
X143077086Y-102376425D01*
X143039297Y-102501000D01*
X143028423Y-102536844D01*
X142949405Y-102684678D01*
X142843059Y-102814259D01*
X142713478Y-102920605D01*
X142565644Y-102999623D01*
X142565641Y-102999624D01*
X142565639Y-102999625D01*
X142405225Y-103048286D01*
X142405224Y-103048286D01*
X142405221Y-103048287D01*
X142280204Y-103060600D01*
X142196596Y-103060600D01*
X142071579Y-103048287D01*
X142071576Y-103048286D01*
X142071575Y-103048286D01*
X141911161Y-102999625D01*
X141911159Y-102999624D01*
X141911156Y-102999623D01*
X141763322Y-102920605D01*
X141633741Y-102814259D01*
X141527395Y-102684678D01*
X141448377Y-102536844D01*
X141437504Y-102501000D01*
X141399714Y-102376425D01*
X141399714Y-102376424D01*
X141399713Y-102376421D01*
X141383283Y-102209600D01*
X141399713Y-102042779D01*
X141448377Y-101882356D01*
X141527395Y-101734522D01*
X141633741Y-101604941D01*
X141763322Y-101498595D01*
X141911156Y-101419577D01*
X141911159Y-101419576D01*
X141911161Y-101419575D01*
X142071575Y-101370914D01*
X142071576Y-101370914D01*
X142071579Y-101370913D01*
X142196596Y-101358600D01*
X142280204Y-101358600D01*
X142405221Y-101370913D01*
X142405221Y-101370913D01*
G37*
G36*
X140549400Y-103060600D02*
X138847400Y-103060600D01*
X138847400Y-101358600D01*
X140549400Y-101358600D01*
X140549400Y-103060600D01*
X140549400Y-103060600D01*
G37*
G36*
X152565221Y-101370913D02*
X152565224Y-101370914D01*
X152565225Y-101370914D01*
X152725639Y-101419575D01*
X152725641Y-101419576D01*
X152725644Y-101419577D01*
X152873478Y-101498595D01*
X153003059Y-101604941D01*
X153109405Y-101734522D01*
X153188423Y-101882356D01*
X153237087Y-102042779D01*
X153253517Y-102209600D01*
X153237087Y-102376421D01*
X153237086Y-102376424D01*
X153237086Y-102376425D01*
X153199297Y-102501000D01*
X153188423Y-102536844D01*
X153109405Y-102684678D01*
X153003059Y-102814259D01*
X152873478Y-102920605D01*
X152725644Y-102999623D01*
X152725641Y-102999624D01*
X152725639Y-102999625D01*
X152565225Y-103048286D01*
X152565224Y-103048286D01*
X152565221Y-103048287D01*
X152440204Y-103060600D01*
X152356596Y-103060600D01*
X152231579Y-103048287D01*
X152231576Y-103048286D01*
X152231575Y-103048286D01*
X152071161Y-102999625D01*
X152071159Y-102999624D01*
X152071156Y-102999623D01*
X151923322Y-102920605D01*
X151793741Y-102814259D01*
X151687395Y-102684678D01*
X151608377Y-102536844D01*
X151597504Y-102501000D01*
X151559714Y-102376425D01*
X151559714Y-102376424D01*
X151559713Y-102376421D01*
X151543283Y-102209600D01*
X151559713Y-102042779D01*
X151608377Y-101882356D01*
X151687395Y-101734522D01*
X151793741Y-101604941D01*
X151923322Y-101498595D01*
X152071156Y-101419577D01*
X152071159Y-101419576D01*
X152071161Y-101419575D01*
X152231575Y-101370914D01*
X152231576Y-101370914D01*
X152231579Y-101370913D01*
X152356596Y-101358600D01*
X152440204Y-101358600D01*
X152565221Y-101370913D01*
X152565221Y-101370913D01*
G37*
G36*
X134730443Y-100705519D02*
X134796627Y-100712037D01*
X134909853Y-100746384D01*
X134966467Y-100763557D01*
X135028614Y-100796776D01*
X135122991Y-100847222D01*
X135158729Y-100876552D01*
X135260186Y-100959814D01*
X135340915Y-101058184D01*
X135372778Y-101097009D01*
X135372779Y-101097011D01*
X135456443Y-101253533D01*
X135464907Y-101281435D01*
X135507963Y-101423373D01*
X135525359Y-101600000D01*
X135507963Y-101776627D01*
X135475889Y-101882361D01*
X135456443Y-101946467D01*
X135404962Y-102042779D01*
X135372778Y-102102991D01*
X135343448Y-102138729D01*
X135260186Y-102240186D01*
X135158729Y-102323448D01*
X135122991Y-102352778D01*
X135122989Y-102352779D01*
X134966467Y-102436443D01*
X134909853Y-102453616D01*
X134796627Y-102487963D01*
X134730442Y-102494482D01*
X134664260Y-102501000D01*
X134575740Y-102501000D01*
X134509558Y-102494482D01*
X134443373Y-102487963D01*
X134330147Y-102453616D01*
X134273533Y-102436443D01*
X134117011Y-102352779D01*
X134117009Y-102352778D01*
X134081271Y-102323448D01*
X133979814Y-102240186D01*
X133896552Y-102138729D01*
X133867222Y-102102991D01*
X133835038Y-102042779D01*
X133783557Y-101946467D01*
X133764111Y-101882361D01*
X133732037Y-101776627D01*
X133714641Y-101600000D01*
X133732037Y-101423373D01*
X133775093Y-101281435D01*
X133783557Y-101253533D01*
X133867221Y-101097011D01*
X133867222Y-101097009D01*
X133899085Y-101058184D01*
X133979814Y-100959814D01*
X134081271Y-100876552D01*
X134117009Y-100847222D01*
X134211386Y-100796776D01*
X134273533Y-100763557D01*
X134330147Y-100746384D01*
X134443373Y-100712037D01*
X134509557Y-100705519D01*
X134575740Y-100699000D01*
X134664260Y-100699000D01*
X134730443Y-100705519D01*
X134730443Y-100705519D01*
G37*
G36*
X162670443Y-100705519D02*
X162736627Y-100712037D01*
X162849853Y-100746384D01*
X162906467Y-100763557D01*
X162968614Y-100796776D01*
X163062991Y-100847222D01*
X163098729Y-100876552D01*
X163200186Y-100959814D01*
X163280915Y-101058184D01*
X163312778Y-101097009D01*
X163312779Y-101097011D01*
X163396443Y-101253533D01*
X163404907Y-101281435D01*
X163447963Y-101423373D01*
X163465359Y-101600000D01*
X163447963Y-101776627D01*
X163415889Y-101882361D01*
X163396443Y-101946467D01*
X163344962Y-102042779D01*
X163312778Y-102102991D01*
X163283448Y-102138729D01*
X163200186Y-102240186D01*
X163098729Y-102323448D01*
X163062991Y-102352778D01*
X163062989Y-102352779D01*
X162906467Y-102436443D01*
X162849853Y-102453616D01*
X162736627Y-102487963D01*
X162670442Y-102494482D01*
X162604260Y-102501000D01*
X162515740Y-102501000D01*
X162449558Y-102494482D01*
X162383373Y-102487963D01*
X162270147Y-102453616D01*
X162213533Y-102436443D01*
X162057011Y-102352779D01*
X162057009Y-102352778D01*
X162021271Y-102323448D01*
X161919814Y-102240186D01*
X161836552Y-102138729D01*
X161807222Y-102102991D01*
X161775038Y-102042779D01*
X161723557Y-101946467D01*
X161704111Y-101882361D01*
X161672037Y-101776627D01*
X161654641Y-101600000D01*
X161672037Y-101423373D01*
X161715093Y-101281435D01*
X161723557Y-101253533D01*
X161807221Y-101097011D01*
X161807222Y-101097009D01*
X161839085Y-101058184D01*
X161919814Y-100959814D01*
X162021271Y-100876552D01*
X162057009Y-100847222D01*
X162151386Y-100796776D01*
X162213533Y-100763557D01*
X162270147Y-100746384D01*
X162383373Y-100712037D01*
X162449557Y-100705519D01*
X162515740Y-100699000D01*
X162604260Y-100699000D01*
X162670443Y-100705519D01*
X162670443Y-100705519D01*
G37*
G36*
X148905765Y-99116189D02*
X149097034Y-99195415D01*
X149269176Y-99310437D01*
X149415563Y-99456824D01*
X149530585Y-99628966D01*
X149609811Y-99820235D01*
X149650200Y-100023284D01*
X149650200Y-100230316D01*
X149609811Y-100433365D01*
X149530585Y-100624634D01*
X149415563Y-100796776D01*
X149269176Y-100943163D01*
X149097034Y-101058185D01*
X148905765Y-101137411D01*
X148702716Y-101177800D01*
X148495684Y-101177800D01*
X148292635Y-101137411D01*
X148101366Y-101058185D01*
X147929224Y-100943163D01*
X147782837Y-100796776D01*
X147667815Y-100624634D01*
X147588589Y-100433365D01*
X147548200Y-100230316D01*
X147548200Y-100023284D01*
X147588589Y-99820235D01*
X147667815Y-99628966D01*
X147782837Y-99456824D01*
X147929224Y-99310437D01*
X148101366Y-99195415D01*
X148292635Y-99116189D01*
X148495684Y-99075800D01*
X148702716Y-99075800D01*
X148905765Y-99116189D01*
X148905765Y-99116189D01*
G37*
G36*
X151405765Y-99116189D02*
X151597034Y-99195415D01*
X151769176Y-99310437D01*
X151915563Y-99456824D01*
X152030585Y-99628966D01*
X152109811Y-99820235D01*
X152150200Y-100023284D01*
X152150200Y-100230316D01*
X152109811Y-100433365D01*
X152030585Y-100624634D01*
X151915563Y-100796776D01*
X151769176Y-100943163D01*
X151597034Y-101058185D01*
X151405765Y-101137411D01*
X151202716Y-101177800D01*
X150995684Y-101177800D01*
X150792635Y-101137411D01*
X150601366Y-101058185D01*
X150429224Y-100943163D01*
X150282837Y-100796776D01*
X150167815Y-100624634D01*
X150088589Y-100433365D01*
X150048200Y-100230316D01*
X150048200Y-100023284D01*
X150088589Y-99820235D01*
X150167815Y-99628966D01*
X150282837Y-99456824D01*
X150429224Y-99310437D01*
X150601366Y-99195415D01*
X150792635Y-99116189D01*
X150995684Y-99075800D01*
X151202716Y-99075800D01*
X151405765Y-99116189D01*
X151405765Y-99116189D01*
G37*
G36*
X134730443Y-98165519D02*
X134796627Y-98172037D01*
X134909853Y-98206384D01*
X134966467Y-98223557D01*
X135105087Y-98297652D01*
X135122991Y-98307222D01*
X135158729Y-98336552D01*
X135260186Y-98419814D01*
X135343448Y-98521271D01*
X135372778Y-98557009D01*
X135372779Y-98557011D01*
X135456443Y-98713533D01*
X135456443Y-98713534D01*
X135507963Y-98883373D01*
X135525359Y-99060000D01*
X135507963Y-99236627D01*
X135485573Y-99310437D01*
X135456443Y-99406467D01*
X135382348Y-99545087D01*
X135372778Y-99562991D01*
X135343448Y-99598729D01*
X135260186Y-99700186D01*
X135158729Y-99783448D01*
X135122991Y-99812778D01*
X135122989Y-99812779D01*
X134966467Y-99896443D01*
X134909853Y-99913616D01*
X134796627Y-99947963D01*
X134730443Y-99954481D01*
X134664260Y-99961000D01*
X134575740Y-99961000D01*
X134509557Y-99954481D01*
X134443373Y-99947963D01*
X134330147Y-99913616D01*
X134273533Y-99896443D01*
X134117011Y-99812779D01*
X134117009Y-99812778D01*
X134081271Y-99783448D01*
X133979814Y-99700186D01*
X133896552Y-99598729D01*
X133867222Y-99562991D01*
X133857652Y-99545087D01*
X133783557Y-99406467D01*
X133754427Y-99310437D01*
X133732037Y-99236627D01*
X133714641Y-99060000D01*
X133732037Y-98883373D01*
X133783557Y-98713534D01*
X133783557Y-98713533D01*
X133867221Y-98557011D01*
X133867222Y-98557009D01*
X133896552Y-98521271D01*
X133979814Y-98419814D01*
X134081271Y-98336552D01*
X134117009Y-98307222D01*
X134134913Y-98297652D01*
X134273533Y-98223557D01*
X134330147Y-98206384D01*
X134443373Y-98172037D01*
X134509557Y-98165519D01*
X134575740Y-98159000D01*
X134664260Y-98159000D01*
X134730443Y-98165519D01*
X134730443Y-98165519D01*
G37*
G36*
X162670443Y-98165519D02*
X162736627Y-98172037D01*
X162849853Y-98206384D01*
X162906467Y-98223557D01*
X163045087Y-98297652D01*
X163062991Y-98307222D01*
X163098729Y-98336552D01*
X163200186Y-98419814D01*
X163283448Y-98521271D01*
X163312778Y-98557009D01*
X163312779Y-98557011D01*
X163396443Y-98713533D01*
X163396443Y-98713534D01*
X163447963Y-98883373D01*
X163465359Y-99060000D01*
X163447963Y-99236627D01*
X163425573Y-99310437D01*
X163396443Y-99406467D01*
X163322348Y-99545087D01*
X163312778Y-99562991D01*
X163283448Y-99598729D01*
X163200186Y-99700186D01*
X163098729Y-99783448D01*
X163062991Y-99812778D01*
X163062989Y-99812779D01*
X162906467Y-99896443D01*
X162849853Y-99913616D01*
X162736627Y-99947963D01*
X162670443Y-99954481D01*
X162604260Y-99961000D01*
X162515740Y-99961000D01*
X162449557Y-99954481D01*
X162383373Y-99947963D01*
X162270147Y-99913616D01*
X162213533Y-99896443D01*
X162057011Y-99812779D01*
X162057009Y-99812778D01*
X162021271Y-99783448D01*
X161919814Y-99700186D01*
X161836552Y-99598729D01*
X161807222Y-99562991D01*
X161797652Y-99545087D01*
X161723557Y-99406467D01*
X161694427Y-99310437D01*
X161672037Y-99236627D01*
X161654641Y-99060000D01*
X161672037Y-98883373D01*
X161723557Y-98713534D01*
X161723557Y-98713533D01*
X161807221Y-98557011D01*
X161807222Y-98557009D01*
X161836552Y-98521271D01*
X161919814Y-98419814D01*
X162021271Y-98336552D01*
X162057009Y-98307222D01*
X162074913Y-98297652D01*
X162213533Y-98223557D01*
X162270147Y-98206384D01*
X162383373Y-98172037D01*
X162449557Y-98165519D01*
X162515740Y-98159000D01*
X162604260Y-98159000D01*
X162670443Y-98165519D01*
X162670443Y-98165519D01*
G37*
G36*
X134730442Y-95625518D02*
X134796627Y-95632037D01*
X134909853Y-95666384D01*
X134966467Y-95683557D01*
X135105087Y-95757652D01*
X135122991Y-95767222D01*
X135158729Y-95796552D01*
X135260186Y-95879814D01*
X135343448Y-95981271D01*
X135372778Y-96017009D01*
X135372779Y-96017011D01*
X135456443Y-96173533D01*
X135456443Y-96173534D01*
X135507963Y-96343373D01*
X135525359Y-96520000D01*
X135507963Y-96696627D01*
X135473616Y-96809853D01*
X135456443Y-96866467D01*
X135382348Y-97005087D01*
X135372778Y-97022991D01*
X135343448Y-97058729D01*
X135260186Y-97160186D01*
X135158729Y-97243448D01*
X135122991Y-97272778D01*
X135122989Y-97272779D01*
X134966467Y-97356443D01*
X134909853Y-97373616D01*
X134796627Y-97407963D01*
X134730442Y-97414482D01*
X134664260Y-97421000D01*
X134575740Y-97421000D01*
X134509558Y-97414482D01*
X134443373Y-97407963D01*
X134330147Y-97373616D01*
X134273533Y-97356443D01*
X134117011Y-97272779D01*
X134117009Y-97272778D01*
X134081271Y-97243448D01*
X133979814Y-97160186D01*
X133896552Y-97058729D01*
X133867222Y-97022991D01*
X133857652Y-97005087D01*
X133783557Y-96866467D01*
X133766384Y-96809853D01*
X133732037Y-96696627D01*
X133714641Y-96520000D01*
X133732037Y-96343373D01*
X133783557Y-96173534D01*
X133783557Y-96173533D01*
X133867221Y-96017011D01*
X133867222Y-96017009D01*
X133896552Y-95981271D01*
X133979814Y-95879814D01*
X134081271Y-95796552D01*
X134117009Y-95767222D01*
X134134913Y-95757652D01*
X134273533Y-95683557D01*
X134330147Y-95666384D01*
X134443373Y-95632037D01*
X134509558Y-95625518D01*
X134575740Y-95619000D01*
X134664260Y-95619000D01*
X134730442Y-95625518D01*
X134730442Y-95625518D01*
G37*
G36*
X162670442Y-95625518D02*
X162736627Y-95632037D01*
X162849853Y-95666384D01*
X162906467Y-95683557D01*
X163045087Y-95757652D01*
X163062991Y-95767222D01*
X163098729Y-95796552D01*
X163200186Y-95879814D01*
X163283448Y-95981271D01*
X163312778Y-96017009D01*
X163312779Y-96017011D01*
X163396443Y-96173533D01*
X163396443Y-96173534D01*
X163447963Y-96343373D01*
X163465359Y-96520000D01*
X163447963Y-96696627D01*
X163413616Y-96809853D01*
X163396443Y-96866467D01*
X163322348Y-97005087D01*
X163312778Y-97022991D01*
X163283448Y-97058729D01*
X163200186Y-97160186D01*
X163098729Y-97243448D01*
X163062991Y-97272778D01*
X163062989Y-97272779D01*
X162906467Y-97356443D01*
X162849853Y-97373616D01*
X162736627Y-97407963D01*
X162670442Y-97414482D01*
X162604260Y-97421000D01*
X162515740Y-97421000D01*
X162449558Y-97414482D01*
X162383373Y-97407963D01*
X162270147Y-97373616D01*
X162213533Y-97356443D01*
X162057011Y-97272779D01*
X162057009Y-97272778D01*
X162021271Y-97243448D01*
X161919814Y-97160186D01*
X161836552Y-97058729D01*
X161807222Y-97022991D01*
X161797652Y-97005087D01*
X161723557Y-96866467D01*
X161706384Y-96809853D01*
X161672037Y-96696627D01*
X161654641Y-96520000D01*
X161672037Y-96343373D01*
X161723557Y-96173534D01*
X161723557Y-96173533D01*
X161807221Y-96017011D01*
X161807222Y-96017009D01*
X161836552Y-95981271D01*
X161919814Y-95879814D01*
X162021271Y-95796552D01*
X162057009Y-95767222D01*
X162074913Y-95757652D01*
X162213533Y-95683557D01*
X162270147Y-95666384D01*
X162383373Y-95632037D01*
X162449558Y-95625518D01*
X162515740Y-95619000D01*
X162604260Y-95619000D01*
X162670442Y-95625518D01*
X162670442Y-95625518D01*
G37*
G36*
X162670443Y-93085519D02*
X162736627Y-93092037D01*
X162849853Y-93126384D01*
X162906467Y-93143557D01*
X163045087Y-93217652D01*
X163062991Y-93227222D01*
X163098729Y-93256552D01*
X163200186Y-93339814D01*
X163283448Y-93441271D01*
X163312778Y-93477009D01*
X163312779Y-93477011D01*
X163396443Y-93633533D01*
X163396443Y-93633534D01*
X163447963Y-93803373D01*
X163465359Y-93980000D01*
X163447963Y-94156627D01*
X163441540Y-94177800D01*
X163396443Y-94326467D01*
X163322348Y-94465087D01*
X163312778Y-94482991D01*
X163283448Y-94518729D01*
X163200186Y-94620186D01*
X163098729Y-94703448D01*
X163062991Y-94732778D01*
X163062989Y-94732779D01*
X162906467Y-94816443D01*
X162849853Y-94833616D01*
X162736627Y-94867963D01*
X162670443Y-94874481D01*
X162604260Y-94881000D01*
X162515740Y-94881000D01*
X162449557Y-94874481D01*
X162383373Y-94867963D01*
X162270147Y-94833616D01*
X162213533Y-94816443D01*
X162057011Y-94732779D01*
X162057009Y-94732778D01*
X162021271Y-94703448D01*
X161919814Y-94620186D01*
X161836552Y-94518729D01*
X161807222Y-94482991D01*
X161797652Y-94465087D01*
X161723557Y-94326467D01*
X161678460Y-94177800D01*
X161672037Y-94156627D01*
X161654641Y-93980000D01*
X161672037Y-93803373D01*
X161723557Y-93633534D01*
X161723557Y-93633533D01*
X161807221Y-93477011D01*
X161807222Y-93477009D01*
X161836552Y-93441271D01*
X161919814Y-93339814D01*
X162021271Y-93256552D01*
X162057009Y-93227222D01*
X162074913Y-93217652D01*
X162213533Y-93143557D01*
X162270147Y-93126384D01*
X162383373Y-93092037D01*
X162449557Y-93085519D01*
X162515740Y-93079000D01*
X162604260Y-93079000D01*
X162670443Y-93085519D01*
X162670443Y-93085519D01*
G37*
G36*
X134730443Y-93085519D02*
X134796627Y-93092037D01*
X134909853Y-93126384D01*
X134966467Y-93143557D01*
X135105087Y-93217652D01*
X135122991Y-93227222D01*
X135158729Y-93256552D01*
X135260186Y-93339814D01*
X135343448Y-93441271D01*
X135372778Y-93477009D01*
X135372779Y-93477011D01*
X135456443Y-93633533D01*
X135456443Y-93633534D01*
X135507963Y-93803373D01*
X135525359Y-93980000D01*
X135507963Y-94156627D01*
X135501540Y-94177800D01*
X135456443Y-94326467D01*
X135382348Y-94465087D01*
X135372778Y-94482991D01*
X135343448Y-94518729D01*
X135260186Y-94620186D01*
X135158729Y-94703448D01*
X135122991Y-94732778D01*
X135122989Y-94732779D01*
X134966467Y-94816443D01*
X134909853Y-94833616D01*
X134796627Y-94867963D01*
X134730443Y-94874481D01*
X134664260Y-94881000D01*
X134575740Y-94881000D01*
X134509557Y-94874481D01*
X134443373Y-94867963D01*
X134330147Y-94833616D01*
X134273533Y-94816443D01*
X134117011Y-94732779D01*
X134117009Y-94732778D01*
X134081271Y-94703448D01*
X133979814Y-94620186D01*
X133896552Y-94518729D01*
X133867222Y-94482991D01*
X133857652Y-94465087D01*
X133783557Y-94326467D01*
X133738460Y-94177800D01*
X133732037Y-94156627D01*
X133714641Y-93980000D01*
X133732037Y-93803373D01*
X133783557Y-93633534D01*
X133783557Y-93633533D01*
X133867221Y-93477011D01*
X133867222Y-93477009D01*
X133896552Y-93441271D01*
X133979814Y-93339814D01*
X134081271Y-93256552D01*
X134117009Y-93227222D01*
X134134913Y-93217652D01*
X134273533Y-93143557D01*
X134330147Y-93126384D01*
X134443373Y-93092037D01*
X134509557Y-93085519D01*
X134575740Y-93079000D01*
X134664260Y-93079000D01*
X134730443Y-93085519D01*
X134730443Y-93085519D01*
G37*
G36*
X155500200Y-94177800D02*
X152898200Y-94177800D01*
X152898200Y-91075800D01*
X155500200Y-91075800D01*
X155500200Y-94177800D01*
X155500200Y-94177800D01*
G37*
G36*
X144300200Y-94177800D02*
X141698200Y-94177800D01*
X141698200Y-91075800D01*
X144300200Y-91075800D01*
X144300200Y-94177800D01*
X144300200Y-94177800D01*
G37*
G36*
X163461000Y-92341000D02*
X161659000Y-92341000D01*
X161659000Y-90539000D01*
X163461000Y-90539000D01*
X163461000Y-92341000D01*
X163461000Y-92341000D01*
G37*
G36*
X134730443Y-90545519D02*
X134796627Y-90552037D01*
X134909853Y-90586384D01*
X134966467Y-90603557D01*
X135105087Y-90677652D01*
X135122991Y-90687222D01*
X135158729Y-90716552D01*
X135260186Y-90799814D01*
X135343448Y-90901271D01*
X135372778Y-90937009D01*
X135372779Y-90937011D01*
X135456443Y-91093533D01*
X135456443Y-91093534D01*
X135507963Y-91263373D01*
X135525359Y-91440000D01*
X135507963Y-91616627D01*
X135473616Y-91729853D01*
X135456443Y-91786467D01*
X135382348Y-91925087D01*
X135372778Y-91942991D01*
X135343448Y-91978729D01*
X135260186Y-92080186D01*
X135158729Y-92163448D01*
X135122991Y-92192778D01*
X135122989Y-92192779D01*
X134966467Y-92276443D01*
X134909853Y-92293616D01*
X134796627Y-92327963D01*
X134730443Y-92334481D01*
X134664260Y-92341000D01*
X134575740Y-92341000D01*
X134509557Y-92334481D01*
X134443373Y-92327963D01*
X134330147Y-92293616D01*
X134273533Y-92276443D01*
X134117011Y-92192779D01*
X134117009Y-92192778D01*
X134081271Y-92163448D01*
X133979814Y-92080186D01*
X133896552Y-91978729D01*
X133867222Y-91942991D01*
X133857652Y-91925087D01*
X133783557Y-91786467D01*
X133766384Y-91729853D01*
X133732037Y-91616627D01*
X133714641Y-91440000D01*
X133732037Y-91263373D01*
X133783557Y-91093534D01*
X133783557Y-91093533D01*
X133867221Y-90937011D01*
X133867222Y-90937009D01*
X133896552Y-90901271D01*
X133979814Y-90799814D01*
X134081271Y-90716552D01*
X134117009Y-90687222D01*
X134134913Y-90677652D01*
X134273533Y-90603557D01*
X134330147Y-90586384D01*
X134443373Y-90552037D01*
X134509557Y-90545519D01*
X134575740Y-90539000D01*
X134664260Y-90539000D01*
X134730443Y-90545519D01*
X134730443Y-90545519D01*
G37*
G36*
X140542677Y-88414465D02*
X140580364Y-88425898D01*
X140615103Y-88444466D01*
X140645548Y-88469452D01*
X140670534Y-88499897D01*
X140689102Y-88534636D01*
X140700535Y-88572323D01*
X140705000Y-88617661D01*
X140705000Y-89454339D01*
X140700535Y-89499677D01*
X140689102Y-89537364D01*
X140670534Y-89572103D01*
X140645548Y-89602548D01*
X140615103Y-89627534D01*
X140580364Y-89646102D01*
X140542677Y-89657535D01*
X140497339Y-89662000D01*
X139410661Y-89662000D01*
X139365323Y-89657535D01*
X139327636Y-89646102D01*
X139292897Y-89627534D01*
X139262452Y-89602548D01*
X139237466Y-89572103D01*
X139218898Y-89537364D01*
X139207465Y-89499677D01*
X139203000Y-89454339D01*
X139203000Y-88617661D01*
X139207465Y-88572323D01*
X139218898Y-88534636D01*
X139237466Y-88499897D01*
X139262452Y-88469452D01*
X139292897Y-88444466D01*
X139327636Y-88425898D01*
X139365323Y-88414465D01*
X139410661Y-88410000D01*
X140497339Y-88410000D01*
X140542677Y-88414465D01*
X140542677Y-88414465D01*
G37*
G36*
X140542677Y-86364465D02*
X140580364Y-86375898D01*
X140615103Y-86394466D01*
X140645548Y-86419452D01*
X140670534Y-86449897D01*
X140689102Y-86484636D01*
X140700535Y-86522323D01*
X140705000Y-86567661D01*
X140705000Y-87404339D01*
X140700535Y-87449677D01*
X140689102Y-87487364D01*
X140670534Y-87522103D01*
X140645548Y-87552548D01*
X140615103Y-87577534D01*
X140580364Y-87596102D01*
X140542677Y-87607535D01*
X140497339Y-87612000D01*
X139410661Y-87612000D01*
X139365323Y-87607535D01*
X139327636Y-87596102D01*
X139292897Y-87577534D01*
X139262452Y-87552548D01*
X139237466Y-87522103D01*
X139218898Y-87487364D01*
X139207465Y-87449677D01*
X139203000Y-87404339D01*
X139203000Y-86567661D01*
X139207465Y-86522323D01*
X139218898Y-86484636D01*
X139237466Y-86449897D01*
X139262452Y-86419452D01*
X139292897Y-86394466D01*
X139327636Y-86375898D01*
X139365323Y-86364465D01*
X139410661Y-86360000D01*
X140497339Y-86360000D01*
X140542677Y-86364465D01*
X140542677Y-86364465D01*
G37*
G36*
X134730442Y-85465518D02*
X134796627Y-85472037D01*
X134909853Y-85506384D01*
X134966467Y-85523557D01*
X135105087Y-85597652D01*
X135122991Y-85607222D01*
X135158729Y-85636552D01*
X135260186Y-85719814D01*
X135343448Y-85821271D01*
X135372778Y-85857009D01*
X135372779Y-85857011D01*
X135456443Y-86013533D01*
X135456443Y-86013534D01*
X135507963Y-86183373D01*
X135525359Y-86360000D01*
X135507963Y-86536627D01*
X135478979Y-86632173D01*
X135456443Y-86706467D01*
X135382348Y-86845087D01*
X135372778Y-86862991D01*
X135343448Y-86898729D01*
X135260186Y-87000186D01*
X135158729Y-87083448D01*
X135122991Y-87112778D01*
X135122989Y-87112779D01*
X134966467Y-87196443D01*
X134909853Y-87213616D01*
X134796627Y-87247963D01*
X134730442Y-87254482D01*
X134664260Y-87261000D01*
X134575740Y-87261000D01*
X134509558Y-87254482D01*
X134443373Y-87247963D01*
X134330147Y-87213616D01*
X134273533Y-87196443D01*
X134117011Y-87112779D01*
X134117009Y-87112778D01*
X134081271Y-87083448D01*
X133979814Y-87000186D01*
X133896552Y-86898729D01*
X133867222Y-86862991D01*
X133857652Y-86845087D01*
X133783557Y-86706467D01*
X133761021Y-86632173D01*
X133732037Y-86536627D01*
X133714641Y-86360000D01*
X133732037Y-86183373D01*
X133783557Y-86013534D01*
X133783557Y-86013533D01*
X133867221Y-85857011D01*
X133867222Y-85857009D01*
X133896552Y-85821271D01*
X133979814Y-85719814D01*
X134081271Y-85636552D01*
X134117009Y-85607222D01*
X134134913Y-85597652D01*
X134273533Y-85523557D01*
X134330147Y-85506384D01*
X134443373Y-85472037D01*
X134509558Y-85465518D01*
X134575740Y-85459000D01*
X134664260Y-85459000D01*
X134730442Y-85465518D01*
X134730442Y-85465518D01*
G37*
G36*
X162670442Y-85465518D02*
X162736627Y-85472037D01*
X162849853Y-85506384D01*
X162906467Y-85523557D01*
X163045087Y-85597652D01*
X163062991Y-85607222D01*
X163098729Y-85636552D01*
X163200186Y-85719814D01*
X163283448Y-85821271D01*
X163312778Y-85857009D01*
X163312779Y-85857011D01*
X163396443Y-86013533D01*
X163396443Y-86013534D01*
X163447963Y-86183373D01*
X163465359Y-86360000D01*
X163447963Y-86536627D01*
X163418979Y-86632173D01*
X163396443Y-86706467D01*
X163322348Y-86845087D01*
X163312778Y-86862991D01*
X163283448Y-86898729D01*
X163200186Y-87000186D01*
X163098729Y-87083448D01*
X163062991Y-87112778D01*
X163062989Y-87112779D01*
X162906467Y-87196443D01*
X162849853Y-87213616D01*
X162736627Y-87247963D01*
X162670442Y-87254482D01*
X162604260Y-87261000D01*
X162515740Y-87261000D01*
X162449558Y-87254482D01*
X162383373Y-87247963D01*
X162270147Y-87213616D01*
X162213533Y-87196443D01*
X162057011Y-87112779D01*
X162057009Y-87112778D01*
X162021271Y-87083448D01*
X161919814Y-87000186D01*
X161836552Y-86898729D01*
X161807222Y-86862991D01*
X161797652Y-86845087D01*
X161723557Y-86706467D01*
X161701021Y-86632173D01*
X161672037Y-86536627D01*
X161654641Y-86360000D01*
X161672037Y-86183373D01*
X161723557Y-86013534D01*
X161723557Y-86013533D01*
X161807221Y-85857011D01*
X161807222Y-85857009D01*
X161836552Y-85821271D01*
X161919814Y-85719814D01*
X162021271Y-85636552D01*
X162057009Y-85607222D01*
X162074913Y-85597652D01*
X162213533Y-85523557D01*
X162270147Y-85506384D01*
X162383373Y-85472037D01*
X162449558Y-85465518D01*
X162515740Y-85459000D01*
X162604260Y-85459000D01*
X162670442Y-85465518D01*
X162670442Y-85465518D01*
G37*
G36*
X142955677Y-83969465D02*
X142993364Y-83980898D01*
X143028103Y-83999466D01*
X143058548Y-84024452D01*
X143083534Y-84054897D01*
X143102102Y-84089636D01*
X143113535Y-84127323D01*
X143118000Y-84172661D01*
X143118000Y-85009339D01*
X143113535Y-85054677D01*
X143102102Y-85092364D01*
X143083534Y-85127103D01*
X143058548Y-85157548D01*
X143028103Y-85182534D01*
X142993364Y-85201102D01*
X142955677Y-85212535D01*
X142910339Y-85217000D01*
X141823661Y-85217000D01*
X141778323Y-85212535D01*
X141740636Y-85201102D01*
X141705897Y-85182534D01*
X141675452Y-85157548D01*
X141650466Y-85127103D01*
X141631898Y-85092364D01*
X141620465Y-85054677D01*
X141616000Y-85009339D01*
X141616000Y-84172661D01*
X141620465Y-84127323D01*
X141631898Y-84089636D01*
X141650466Y-84054897D01*
X141675452Y-84024452D01*
X141705897Y-83999466D01*
X141740636Y-83980898D01*
X141778323Y-83969465D01*
X141823661Y-83965000D01*
X142910339Y-83965000D01*
X142955677Y-83969465D01*
X142955677Y-83969465D01*
G37*
G36*
X134730443Y-82925519D02*
X134796627Y-82932037D01*
X134909853Y-82966384D01*
X134966467Y-82983557D01*
X135083359Y-83046038D01*
X135122991Y-83067222D01*
X135147434Y-83087282D01*
X135260186Y-83179814D01*
X135343448Y-83281271D01*
X135372778Y-83317009D01*
X135372779Y-83317011D01*
X135456443Y-83473533D01*
X135456443Y-83473534D01*
X135507963Y-83643373D01*
X135525359Y-83820000D01*
X135507963Y-83996627D01*
X135479749Y-84089636D01*
X135456443Y-84166467D01*
X135453132Y-84172661D01*
X135372778Y-84322991D01*
X135343448Y-84358729D01*
X135260186Y-84460186D01*
X135158729Y-84543448D01*
X135122991Y-84572778D01*
X135122989Y-84572779D01*
X134966467Y-84656443D01*
X134909853Y-84673616D01*
X134796627Y-84707963D01*
X134730443Y-84714481D01*
X134664260Y-84721000D01*
X134575740Y-84721000D01*
X134509557Y-84714481D01*
X134443373Y-84707963D01*
X134330147Y-84673616D01*
X134273533Y-84656443D01*
X134117011Y-84572779D01*
X134117009Y-84572778D01*
X134081271Y-84543448D01*
X133979814Y-84460186D01*
X133896552Y-84358729D01*
X133867222Y-84322991D01*
X133786868Y-84172661D01*
X133783557Y-84166467D01*
X133760251Y-84089636D01*
X133732037Y-83996627D01*
X133714641Y-83820000D01*
X133732037Y-83643373D01*
X133783557Y-83473534D01*
X133783557Y-83473533D01*
X133867221Y-83317011D01*
X133867222Y-83317009D01*
X133896552Y-83281271D01*
X133979814Y-83179814D01*
X134092566Y-83087282D01*
X134117009Y-83067222D01*
X134156641Y-83046038D01*
X134273533Y-82983557D01*
X134330147Y-82966384D01*
X134443373Y-82932037D01*
X134509557Y-82925519D01*
X134575740Y-82919000D01*
X134664260Y-82919000D01*
X134730443Y-82925519D01*
X134730443Y-82925519D01*
G37*
G36*
X162670443Y-82925519D02*
X162736627Y-82932037D01*
X162849853Y-82966384D01*
X162906467Y-82983557D01*
X163023359Y-83046038D01*
X163062991Y-83067222D01*
X163087434Y-83087282D01*
X163200186Y-83179814D01*
X163283448Y-83281271D01*
X163312778Y-83317009D01*
X163312779Y-83317011D01*
X163396443Y-83473533D01*
X163396443Y-83473534D01*
X163447963Y-83643373D01*
X163465359Y-83820000D01*
X163447963Y-83996627D01*
X163419749Y-84089636D01*
X163396443Y-84166467D01*
X163393132Y-84172661D01*
X163312778Y-84322991D01*
X163283448Y-84358729D01*
X163200186Y-84460186D01*
X163098729Y-84543448D01*
X163062991Y-84572778D01*
X163062989Y-84572779D01*
X162906467Y-84656443D01*
X162849853Y-84673616D01*
X162736627Y-84707963D01*
X162670443Y-84714481D01*
X162604260Y-84721000D01*
X162515740Y-84721000D01*
X162449557Y-84714481D01*
X162383373Y-84707963D01*
X162270147Y-84673616D01*
X162213533Y-84656443D01*
X162057011Y-84572779D01*
X162057009Y-84572778D01*
X162021271Y-84543448D01*
X161919814Y-84460186D01*
X161836552Y-84358729D01*
X161807222Y-84322991D01*
X161726868Y-84172661D01*
X161723557Y-84166467D01*
X161700251Y-84089636D01*
X161672037Y-83996627D01*
X161654641Y-83820000D01*
X161672037Y-83643373D01*
X161723557Y-83473534D01*
X161723557Y-83473533D01*
X161807221Y-83317011D01*
X161807222Y-83317009D01*
X161836552Y-83281271D01*
X161919814Y-83179814D01*
X162032566Y-83087282D01*
X162057009Y-83067222D01*
X162096641Y-83046038D01*
X162213533Y-82983557D01*
X162270147Y-82966384D01*
X162383373Y-82932037D01*
X162449557Y-82925519D01*
X162515740Y-82919000D01*
X162604260Y-82919000D01*
X162670443Y-82925519D01*
X162670443Y-82925519D01*
G37*
G36*
X152951000Y-84141000D02*
X151399000Y-84141000D01*
X151399000Y-79689000D01*
X152951000Y-79689000D01*
X152951000Y-84141000D01*
X152951000Y-84141000D01*
G37*
G36*
X147051000Y-84141000D02*
X145499000Y-84141000D01*
X145499000Y-79689000D01*
X147051000Y-79689000D01*
X147051000Y-84141000D01*
X147051000Y-84141000D01*
G37*
G36*
X142955677Y-81919465D02*
X142993364Y-81930898D01*
X143028103Y-81949466D01*
X143058548Y-81974452D01*
X143083534Y-82004897D01*
X143102102Y-82039636D01*
X143113535Y-82077323D01*
X143118000Y-82122661D01*
X143118000Y-82959339D01*
X143113535Y-83004677D01*
X143102102Y-83042364D01*
X143083534Y-83077103D01*
X143058548Y-83107548D01*
X143028103Y-83132534D01*
X142993364Y-83151102D01*
X142955677Y-83162535D01*
X142910339Y-83167000D01*
X141823661Y-83167000D01*
X141778323Y-83162535D01*
X141740636Y-83151102D01*
X141705897Y-83132534D01*
X141675452Y-83107548D01*
X141650466Y-83077103D01*
X141631898Y-83042364D01*
X141620465Y-83004677D01*
X141616000Y-82959339D01*
X141616000Y-82122661D01*
X141620465Y-82077323D01*
X141631898Y-82039636D01*
X141650466Y-82004897D01*
X141675452Y-81974452D01*
X141705897Y-81949466D01*
X141740636Y-81930898D01*
X141778323Y-81919465D01*
X141823661Y-81915000D01*
X142910339Y-81915000D01*
X142955677Y-81919465D01*
X142955677Y-81919465D01*
G37*
G36*
X159322043Y-81439381D02*
X159467815Y-81499762D01*
X159599011Y-81587424D01*
X159710576Y-81698989D01*
X159798238Y-81830185D01*
X159858619Y-81975957D01*
X159889400Y-82130707D01*
X159889400Y-82288493D01*
X159858619Y-82443243D01*
X159798238Y-82589015D01*
X159710576Y-82720211D01*
X159599011Y-82831776D01*
X159467815Y-82919438D01*
X159322043Y-82979819D01*
X159167293Y-83010600D01*
X159009507Y-83010600D01*
X158854757Y-82979819D01*
X158708985Y-82919438D01*
X158577789Y-82831776D01*
X158466224Y-82720211D01*
X158378562Y-82589015D01*
X158318181Y-82443243D01*
X158287400Y-82288493D01*
X158287400Y-82130707D01*
X158318181Y-81975957D01*
X158378562Y-81830185D01*
X158466224Y-81698989D01*
X158577789Y-81587424D01*
X158708985Y-81499762D01*
X158854757Y-81439381D01*
X159009507Y-81408600D01*
X159167293Y-81408600D01*
X159322043Y-81439381D01*
X159322043Y-81439381D01*
G37*
G36*
X137894965Y-80698989D02*
X138086234Y-80778215D01*
X138258376Y-80893237D01*
X138404763Y-81039624D01*
X138519785Y-81211766D01*
X138599011Y-81403035D01*
X138639400Y-81606084D01*
X138639400Y-81813116D01*
X138599011Y-82016165D01*
X138519785Y-82207434D01*
X138404763Y-82379576D01*
X138258376Y-82525963D01*
X138086234Y-82640985D01*
X137894965Y-82720211D01*
X137691916Y-82760600D01*
X137484884Y-82760600D01*
X137281835Y-82720211D01*
X137090566Y-82640985D01*
X136918424Y-82525963D01*
X136772037Y-82379576D01*
X136657015Y-82207434D01*
X136577789Y-82016165D01*
X136537400Y-81813116D01*
X136537400Y-81606084D01*
X136577789Y-81403035D01*
X136657015Y-81211766D01*
X136772037Y-81039624D01*
X136918424Y-80893237D01*
X137090566Y-80778215D01*
X137281835Y-80698989D01*
X137484884Y-80658600D01*
X137691916Y-80658600D01*
X137894965Y-80698989D01*
X137894965Y-80698989D01*
G37*
G36*
X135521000Y-82181000D02*
X133719000Y-82181000D01*
X133719000Y-80379000D01*
X135521000Y-80379000D01*
X135521000Y-82181000D01*
X135521000Y-82181000D01*
G37*
G36*
X163461000Y-82181000D02*
X161659000Y-82181000D01*
X161659000Y-80379000D01*
X163461000Y-80379000D01*
X163461000Y-82181000D01*
X163461000Y-82181000D01*
G37*
M02*
